<?xml version="1.0" encoding="utf-8"?>
<!-- Generator: Adobe Illustrator 23.0.4, SVG Export Plug-In . SVG Version: 6.00 Build 0)  -->
<svg version="1.1" id="Layer_1" xmlns="http://www.w3.org/2000/svg" xmlns:xlink="http://www.w3.org/1999/xlink" x="0px" y="0px"
	 viewBox="0 0 2834.6 2834.6" style="enable-background:new 0 0 2834.6 2834.6;" xml:space="preserve">
<style type="text/css">
	.st0{fill:url(#SVGID_1_);}
	.st1{fill:url(#SVGID_2_);}
	.st2{fill:#FFFFFF;}
</style>
<rect x="-0.9" y="1545.8" width="2834.9" height="1285.2"/>
<linearGradient id="SVGID_1_" gradientUnits="userSpaceOnUse" x1="195.8853" y1="2333.2502" x2="680.0532" y2="1985.5591" gradientTransform="matrix(1 0 0 -1 0 2831.8896)">
	<stop  offset="0.1387" style="stop-color:#FEE539"/>
	<stop  offset="1" style="stop-color:#EE3230"/>
</linearGradient>
<path class="st0" d="M732.5,700.3c0,141.3-114.5,255.8-255.8,255.8S220.9,841.6,220.9,700.3s114.5-255.8,255.8-255.8
	c113.3,0,209.4,73.6,243,175.6l-205.8,44.8l-37.2-114.5l-37.2,114.5H319.1l97.4,70.8l-37.2,114.5l97.4-70.8l97.4,70.8l-37.2-114.5
	L729,657.7C731.3,671.6,732.5,685.8,732.5,700.3z"/>
<g>
	<path d="M1026.4,649.8c-5.2-7.9-12.9-14.6-23.2-19.9c-10.3-5.3-21.4-8-33.1-8c-12.8,0-24,2.4-33.8,7.2
		c-9.8,4.8-18.2,11.3-25.1,19.4c-6.9,8.1-12.1,17.5-15.8,28.2c-3.6,10.7-5.4,21.9-5.4,33.6c0,11.7,1.8,22.9,5.4,33.6
		c3.6,10.7,8.9,20.1,15.8,28.2c6.9,8.1,15.3,14.6,25.3,19.4c10,4.8,21.4,7.2,34.1,7.2c12.4,0,23.7-2.4,33.8-7.2
		c10.2-4.8,18.5-11.4,25.1-19.6l32.6,29.5c-10.3,12.1-23.2,21.4-38.8,28.2c-15.5,6.7-33.1,10.1-52.7,10.1c-19,0-36.4-3.1-52.5-9.3
		s-29.9-14.9-41.6-26.1c-11.7-11.2-20.9-24.7-27.7-40.6c-6.7-15.8-10.1-33.6-10.1-53.2c0-19.3,3.3-36.9,9.8-52.7
		c6.5-15.8,15.7-29.5,27.4-40.8c11.7-11.4,25.6-20.2,41.6-26.3c16-6.2,33.3-9.3,51.9-9.3c17.2,0,34.4,3.4,51.4,10.3
		c17.1,6.9,30.6,16.9,40.6,30L1026.4,649.8z"/>
	<path d="M1339,708.2c0,2.8,0,5.5,0,8.3s-0.2,5.5-0.5,8.3h-194.8c0.3,10.3,2.7,19.9,7,29c4.3,9.1,10.1,16.9,17.3,23.6
		c7.2,6.7,15.6,11.9,25.1,15.7c9.5,3.8,19.6,5.6,30.2,5.6c16.5,0,30.8-3.6,42.9-10.8c12.1-7.2,21.5-16,28.4-26.3l34.1,27.4
		c-13.1,17.4-28.5,30.1-46.2,38.3c-17.8,8.2-37.5,12.3-59.2,12.3c-18.6,0-35.8-3.1-51.7-9.3c-15.8-6.2-29.5-14.9-40.8-26.1
		c-11.4-11.2-20.3-24.7-26.9-40.6c-6.6-15.8-9.8-33.4-9.8-52.7c0-18.9,3.2-36.4,9.6-52.4c6.4-16,15.3-29.7,26.7-41.1
		s24.9-20.2,40.4-26.6c15.5-6.4,32.3-9.6,50.2-9.6c17.9,0,34.3,2.9,48.9,8.8c14.7,5.9,27.1,14.3,37.3,25.3
		c10.2,11,18,24.4,23.6,40.1C1336.2,670.9,1339,688.6,1339,708.2z M1289.4,688.6c-0.3-9.6-2-18.7-4.9-27.1
		c-2.9-8.4-7.2-15.8-12.9-22c-5.7-6.2-12.8-11.1-21.2-14.7c-8.4-3.6-18.3-5.4-29.7-5.4c-10.3,0-20.1,1.8-29.2,5.4
		s-17.1,8.5-23.8,14.7s-12.2,13.5-16.5,22c-4.3,8.4-6.8,17.5-7.5,27.1H1289.4z"/>
	<path d="M1455.8,832.8h-48.6V442.1h48.6V832.8z"/>
	<path d="M1769.5,708.2c0,2.8,0,5.5,0,8.3s-0.2,5.5-0.5,8.3h-194.8c0.3,10.3,2.7,19.9,7,29c4.3,9.1,10.1,16.9,17.3,23.6
		c7.2,6.7,15.6,11.9,25.1,15.7c9.5,3.8,19.6,5.6,30.2,5.6c16.5,0,30.8-3.6,42.9-10.8c12.1-7.2,21.5-16,28.4-26.3l34.1,27.4
		c-13.1,17.4-28.5,30.1-46.2,38.3c-17.8,8.2-37.5,12.3-59.2,12.3c-18.6,0-35.8-3.1-51.7-9.3c-15.8-6.2-29.5-14.9-40.8-26.1
		c-11.4-11.2-20.3-24.7-26.9-40.6c-6.6-15.8-9.8-33.4-9.8-52.7c0-18.9,3.2-36.4,9.6-52.4c6.4-16,15.3-29.7,26.7-41.1
		s24.9-20.2,40.4-26.6c15.5-6.4,32.3-9.6,50.2-9.6c17.9,0,34.3,2.9,48.9,8.8c14.7,5.9,27.1,14.3,37.3,25.3
		c10.2,11,18,24.4,23.6,40.1C1766.7,670.9,1769.5,688.6,1769.5,708.2z M1719.9,688.6c-0.3-9.6-2-18.7-4.9-27.1
		c-2.9-8.4-7.2-15.8-12.9-22c-5.7-6.2-12.8-11.1-21.2-14.7c-8.4-3.6-18.3-5.4-29.7-5.4c-10.3,0-20.1,1.8-29.2,5.4
		s-17.1,8.5-23.8,14.7s-12.2,13.5-16.5,22c-4.3,8.4-6.8,17.5-7.5,27.1H1719.9z"/>
	<path d="M1884.7,794v38.8h-47V442.1h48.6v182.4h1.6c8.2-12.1,19.8-22.3,34.5-30.8c14.8-8.4,32.3-12.7,52.6-12.7
		c18.2,0,34.8,3.3,49.8,9.8c14.9,6.6,27.8,15.7,38.7,27.4c10.8,11.7,19.1,25.4,25,41.1c5.9,15.7,8.8,32.5,8.8,50.4
		c0,17.9-2.9,34.8-8.8,50.6c-5.9,15.8-14.1,29.6-24.7,41.3c-10.7,11.7-23.5,20.9-38.7,27.7s-32.1,10.1-51,10.1
		c-17.5,0-34.2-3.9-50-11.6s-28.5-19-38.1-33.8L1884.7,794L1884.7,794z M2047.5,710c0-11.3-1.7-22.3-5.2-33
		c-3.4-10.6-8.6-20.1-15.5-28.3c-6.9-8.2-15.4-14.8-25.6-19.6c-10.2-4.8-22-7.2-35.4-7.2c-12.4,0-23.7,2.4-33.8,7.2
		c-10.2,4.8-18.9,11.3-26.1,19.6c-7.2,8.2-12.8,17.7-16.8,28.3c-4,10.7-5.9,21.8-5.9,33.5c0,11.7,2,22.8,5.9,33.5
		c4,10.7,9.6,20,16.8,28.1s15.9,14.5,26.1,19.3c10.2,4.8,21.4,7.2,33.8,7.2c13.4,0,25.2-2.5,35.4-7.5c10.2-5,18.7-11.6,25.6-19.8
		c6.9-8.2,12.1-17.7,15.5-28.3C2045.8,732.4,2047.5,721.4,2047.5,710z"/>
	<path d="M2164.8,615.2c-0.4-10.3-0.9-19.5-1.6-27.4h46c0.7,6.2,1.2,13.3,1.6,21.4c0.3,8.1,0.5,14.7,0.5,19.9h1.6
		c6.9-14.5,17-26.1,30.2-34.9c13.3-8.8,28.2-13.2,44.7-13.2c7.6,0,13.9,0.7,19.1,2.1l-2.1,45c-6.9-1.7-14.3-2.6-22.2-2.6
		c-11.7,0-21.9,2.2-30.5,6.5c-8.6,4.3-15.8,10.1-21.4,17.3c-5.7,7.2-9.9,15.6-12.7,25.1c-2.8,9.5-4.1,19.4-4.1,29.7v128.7h-48.6
		V640.5C2165.3,634,2165.1,625.5,2164.8,615.2z"/>
	<path d="M2591.1,709.8c0,18.9-3.4,36.3-10.1,52.2c-6.7,15.8-16,29.5-27.9,41.1c-11.9,11.6-25.9,20.5-42.1,26.9
		c-16.2,6.4-33.6,9.6-52.2,9.6s-36-3.2-52.2-9.6c-16.2-6.4-30.1-15.3-41.9-26.9c-11.7-11.5-20.9-25.2-27.6-41.1
		c-6.7-15.8-10.1-33.2-10.1-52.2c0-18.9,3.4-36.2,10.1-51.9c6.7-15.7,15.9-29.2,27.6-40.6c11.7-11.4,25.7-20.2,41.9-26.6
		c16.2-6.4,33.6-9.6,52.2-9.6s36,3.2,52.2,9.6c16.2,6.4,30.2,15.2,42.1,26.6c11.9,11.4,21.2,24.9,27.9,40.6
		C2587.8,673.5,2591.1,690.8,2591.1,709.8z M2540.5,710c0-11.7-1.8-22.8-5.4-33.5c-3.6-10.6-8.9-20-15.8-28.1
		c-6.9-8.1-15.5-14.5-25.7-19.3c-10.2-4.8-21.9-7.2-35-7.2c-13.1,0-24.8,2.4-35,7.2c-10.2,4.8-18.8,11.2-25.7,19.3
		s-12.2,17.4-15.8,28.1c-3.6,10.7-5.4,21.8-5.4,33.5c0,11.7,1.8,22.8,5.4,33.5c3.6,10.7,8.9,20.1,15.8,28.3
		c6.9,8.2,15.5,14.8,25.7,19.6c10.2,4.8,21.9,7.2,35,7.2s24.8-2.4,35-7.2c10.2-4.8,18.8-11.3,25.7-19.6s12.2-17.7,15.8-28.3
		C2538.6,732.9,2540.5,721.7,2540.5,710z"/>
</g>
<linearGradient id="SVGID_2_" gradientUnits="userSpaceOnUse" x1="195.8853" y1="825.503" x2="680.0532" y2="477.8119" gradientTransform="matrix(1 0 0 -1 0 2831.8896)">
	<stop  offset="0.1387" style="stop-color:#FEE539"/>
	<stop  offset="1" style="stop-color:#EE3230"/>
</linearGradient>
<path class="st1" d="M732.5,2208.1c0,141.3-114.5,255.8-255.8,255.8s-255.8-114.5-255.8-255.8s114.5-255.8,255.8-255.8
	c113.3,0,209.4,73.6,243,175.6l-205.8,44.8l-37.2-114.5l-37.2,114.5H319.1l97.4,70.8l-37.2,114.5l97.4-70.8l97.4,70.8l-37.2-114.5
	l192.1-77.9C731.3,2179.3,732.5,2193.6,732.5,2208.1z"/>
<g>
	<path class="st2" d="M1026.4,2157.6c-5.2-7.9-12.9-14.6-23.2-19.9c-10.3-5.3-21.4-8-33.1-8c-12.8,0-24,2.4-33.8,7.2
		c-9.8,4.8-18.2,11.3-25.1,19.4c-6.9,8.1-12.1,17.5-15.8,28.2c-3.6,10.7-5.4,21.9-5.4,33.6c0,11.7,1.8,22.9,5.4,33.6
		c3.6,10.7,8.9,20.1,15.8,28.2c6.9,8.1,15.3,14.6,25.3,19.4c10,4.8,21.4,7.2,34.1,7.2c12.4,0,23.7-2.4,33.8-7.2
		c10.2-4.8,18.5-11.4,25.1-19.6l32.6,29.5c-10.3,12.1-23.2,21.4-38.8,28.2c-15.5,6.7-33.1,10.1-52.7,10.1c-19,0-36.4-3.1-52.5-9.3
		c-16-6.2-29.9-14.9-41.6-26.1c-11.7-11.2-20.9-24.7-27.7-40.6c-6.7-15.8-10.1-33.6-10.1-53.2c0-19.3,3.3-36.9,9.8-52.7
		c6.5-15.8,15.7-29.5,27.4-40.8c11.7-11.4,25.6-20.1,41.6-26.3c16-6.2,33.3-9.3,51.9-9.3c17.2,0,34.4,3.4,51.4,10.3
		c17.1,6.9,30.6,16.9,40.6,30L1026.4,2157.6z"/>
	<path class="st2" d="M1339,2216c0,2.8,0,5.5,0,8.3s-0.2,5.5-0.5,8.3h-194.8c0.3,10.3,2.7,19.9,7,29c4.3,9.1,10.1,16.9,17.3,23.6
		c7.2,6.7,15.6,11.9,25.1,15.7c9.5,3.8,19.6,5.6,30.2,5.6c16.5,0,30.8-3.6,42.9-10.8c12.1-7.2,21.5-16,28.4-26.4l34.1,27.4
		c-13.1,17.4-28.5,30.1-46.2,38.3c-17.8,8.2-37.5,12.3-59.2,12.3c-18.6,0-35.8-3.1-51.7-9.3c-15.8-6.2-29.5-14.9-40.8-26.1
		c-11.4-11.2-20.3-24.7-26.9-40.6c-6.6-15.8-9.8-33.4-9.8-52.7c0-18.9,3.2-36.4,9.6-52.4s15.3-29.7,26.7-41.1
		c11.4-11.4,24.9-20.2,40.4-26.6c15.5-6.4,32.3-9.6,50.2-9.6c17.9,0,34.3,2.9,48.9,8.8c14.7,5.9,27.1,14.3,37.3,25.3
		c10.2,11,18,24.4,23.6,40.1C1336.2,2178.7,1339,2196.3,1339,2216z M1289.4,2196.3c-0.3-9.6-2-18.7-4.9-27.1
		c-2.9-8.4-7.2-15.8-12.9-22c-5.7-6.2-12.8-11.1-21.2-14.7c-8.4-3.6-18.3-5.4-29.7-5.4c-10.3,0-20.1,1.8-29.2,5.4
		c-9.1,3.6-17.1,8.5-23.8,14.7s-12.2,13.5-16.5,22c-4.3,8.4-6.8,17.5-7.5,27.1H1289.4z"/>
	<path class="st2" d="M1455.8,2340.5h-48.6v-390.7h48.6V2340.5z"/>
	<path class="st2" d="M1769.5,2216c0,2.8,0,5.5,0,8.3s-0.2,5.5-0.5,8.3h-194.8c0.3,10.3,2.7,19.9,7,29c4.3,9.1,10.1,16.9,17.3,23.6
		c7.2,6.7,15.6,11.9,25.1,15.7c9.5,3.8,19.6,5.6,30.2,5.6c16.5,0,30.8-3.6,42.9-10.8c12.1-7.2,21.5-16,28.4-26.4l34.1,27.4
		c-13.1,17.4-28.5,30.1-46.2,38.3c-17.8,8.2-37.5,12.3-59.2,12.3c-18.6,0-35.8-3.1-51.7-9.3c-15.8-6.2-29.5-14.9-40.8-26.1
		c-11.4-11.2-20.3-24.7-26.9-40.6c-6.6-15.8-9.8-33.4-9.8-52.7c0-18.9,3.2-36.4,9.6-52.4s15.3-29.7,26.7-41.1
		c11.4-11.4,24.9-20.2,40.4-26.6c15.5-6.4,32.3-9.6,50.2-9.6c17.9,0,34.3,2.9,48.9,8.8c14.7,5.9,27.1,14.3,37.3,25.3
		c10.2,11,18,24.4,23.6,40.1C1766.7,2178.7,1769.5,2196.3,1769.5,2216z M1719.9,2196.3c-0.3-9.6-2-18.7-4.9-27.1
		c-2.9-8.4-7.2-15.8-12.9-22c-5.7-6.2-12.8-11.1-21.2-14.7c-8.4-3.6-18.3-5.4-29.7-5.4c-10.3,0-20.1,1.8-29.2,5.4
		c-9.1,3.6-17.1,8.5-23.8,14.7s-12.2,13.5-16.5,22c-4.3,8.4-6.8,17.5-7.5,27.1H1719.9z"/>
	<path class="st2" d="M1884.7,2301.8v38.8h-47v-390.7h48.6v182.4h1.6c8.2-12.1,19.8-22.3,34.5-30.8c14.8-8.4,32.3-12.7,52.6-12.7
		c18.2,0,34.8,3.3,49.8,9.8c14.9,6.6,27.8,15.7,38.7,27.4c10.8,11.7,19.1,25.4,25,41.1c5.9,15.7,8.8,32.5,8.8,50.4
		c0,17.9-2.9,34.8-8.8,50.6c-5.9,15.8-14.1,29.6-24.7,41.3c-10.7,11.7-23.5,20.9-38.7,27.7s-32.1,10.1-51,10.1
		c-17.5,0-34.2-3.9-50-11.6s-28.5-19-38.1-33.9L1884.7,2301.8L1884.7,2301.8z M2047.5,2217.8c0-11.3-1.7-22.3-5.2-33
		c-3.4-10.6-8.6-20.1-15.5-28.3c-6.9-8.2-15.4-14.8-25.6-19.6c-10.2-4.8-22-7.2-35.4-7.2c-12.4,0-23.7,2.4-33.8,7.2
		c-10.2,4.8-18.9,11.3-26.1,19.6c-7.2,8.2-12.8,17.7-16.8,28.3c-4,10.6-5.9,21.8-5.9,33.5c0,11.7,2,22.8,5.9,33.5
		c4,10.6,9.6,20,16.8,28.1c7.2,8.1,15.9,14.5,26.1,19.3c10.2,4.8,21.4,7.2,33.8,7.2c13.4,0,25.2-2.5,35.4-7.5
		c10.2-5,18.7-11.6,25.6-19.8c6.9-8.2,12.1-17.7,15.5-28.3C2045.8,2240.1,2047.5,2229.1,2047.5,2217.8z"/>
	<path class="st2" d="M2164.8,2123c-0.4-10.3-0.9-19.5-1.6-27.4h46c0.7,6.2,1.2,13.4,1.6,21.4c0.3,8.1,0.5,14.7,0.5,19.9h1.6
		c6.9-14.5,17-26.1,30.2-34.9c13.3-8.8,28.2-13.2,44.7-13.2c7.6,0,13.9,0.7,19.1,2.1l-2.1,45c-6.9-1.7-14.3-2.6-22.2-2.6
		c-11.7,0-21.9,2.2-30.5,6.5c-8.6,4.3-15.8,10.1-21.4,17.3c-5.7,7.2-9.9,15.6-12.7,25.1c-2.8,9.5-4.1,19.4-4.1,29.7v128.7h-48.6
		v-192.2C2165.3,2141.7,2165.1,2133.3,2164.8,2123z"/>
	<path class="st2" d="M2591.1,2217.5c0,18.9-3.4,36.3-10.1,52.2c-6.7,15.8-16,29.5-27.9,41.1c-11.9,11.6-25.9,20.5-42.1,26.9
		c-16.2,6.4-33.6,9.6-52.2,9.6s-36-3.2-52.2-9.6c-16.2-6.4-30.1-15.3-41.9-26.9c-11.7-11.5-20.9-25.2-27.6-41.1
		c-6.7-15.8-10.1-33.2-10.1-52.2c0-18.9,3.4-36.2,10.1-51.9c6.7-15.7,15.9-29.2,27.6-40.6c11.7-11.4,25.7-20.2,41.9-26.6
		c16.2-6.4,33.6-9.6,52.2-9.6s36,3.2,52.2,9.6c16.2,6.4,30.2,15.2,42.1,26.6c11.9,11.4,21.2,24.9,27.9,40.6
		C2587.8,2181.3,2591.1,2198.6,2591.1,2217.5z M2540.5,2217.8c0-11.7-1.8-22.8-5.4-33.5c-3.6-10.6-8.9-20-15.8-28.1
		c-6.9-8.1-15.5-14.5-25.7-19.3c-10.2-4.8-21.9-7.2-35-7.2c-13.1,0-24.8,2.4-35,7.2c-10.2,4.8-18.8,11.2-25.7,19.3
		c-6.9,8.1-12.2,17.4-15.8,28.1c-3.6,10.6-5.4,21.8-5.4,33.5c0,11.7,1.8,22.8,5.4,33.5c3.6,10.6,8.9,20.1,15.8,28.3
		c6.9,8.2,15.5,14.8,25.7,19.6c10.2,4.8,21.9,7.2,35,7.2s24.8-2.4,35-7.2c10.2-4.8,18.8-11.3,25.7-19.6s12.2-17.7,15.8-28.3
		C2538.6,2240.6,2540.5,2229.5,2540.5,2217.8z"/>
</g>
</svg>
