<?xml version="1.0" encoding="utf-8"?>
<!-- Generator: Adobe Illustrator 23.0.4, SVG Export Plug-In . SVG Version: 6.00 Build 0)  -->
<svg version="1.1" id="Layer_1" xmlns="http://www.w3.org/2000/svg" xmlns:xlink="http://www.w3.org/1999/xlink" x="0px" y="0px"
	 viewBox="0 0 2834.65 2834.65" style="enable-background:new 0 0 2834.65 2834.65;" xml:space="preserve">
<style type="text/css">
	.st0{fill:url(#SVGID_1_);}
</style>
<linearGradient id="SVGID_1_" gradientUnits="userSpaceOnUse" x1="195.8847" y1="1269.8667" x2="680.0527" y2="1617.5577">
	<stop  offset="0.1387" style="stop-color:#FEE539"/>
	<stop  offset="1" style="stop-color:#EE3230"/>
</linearGradient>
<path class="st0" d="M732.53,1471.53c0,141.29-114.53,255.82-255.82,255.82s-255.82-114.53-255.82-255.82
	s114.53-255.82,255.82-255.82c113.28,0,209.36,73.63,242.99,175.63l-205.8,44.81l-37.2-114.49l-37.2,114.49H319.12l97.39,70.76
	l-37.2,114.48l97.39-70.75l97.39,70.75l-37.2-114.48l192.11-77.95C731.32,1442.81,732.53,1457.03,732.53,1471.53z"/>
<g>
	<path d="M1026.38,1421.06c-5.17-7.92-12.92-14.55-23.25-19.9c-10.34-5.34-21.36-8.01-33.07-8.01c-12.75,0-24.03,2.41-33.85,7.23
		c-9.82,4.83-18.18,11.29-25.06,19.38c-6.9,8.1-12.14,17.49-15.76,28.16c-3.62,10.68-5.43,21.88-5.43,33.59
		c0,11.72,1.81,22.92,5.43,33.59c3.62,10.68,8.87,20.07,15.76,28.16c6.89,8.1,15.32,14.56,25.32,19.38
		c9.99,4.83,21.36,7.24,34.11,7.24c12.4,0,23.68-2.41,33.85-7.24c10.16-4.82,18.51-11.37,25.06-19.64l32.56,29.46
		c-10.34,12.06-23.25,21.45-38.76,28.16c-15.5,6.72-33.07,10.08-52.71,10.08c-18.95,0-36.43-3.1-52.45-9.3s-29.89-14.9-41.6-26.1
		c-11.72-11.19-20.93-24.72-27.65-40.57c-6.72-15.84-10.08-33.59-10.08-53.23c0-19.29,3.27-36.86,9.82-52.71
		c6.54-15.84,15.67-29.46,27.39-40.82c11.71-11.37,25.58-20.15,41.6-26.35c16.02-6.2,33.33-9.3,51.93-9.3
		c17.22,0,34.36,3.45,51.42,10.34c17.05,6.9,30.57,16.88,40.56,29.97L1026.38,1421.06z"/>
	<path d="M1339.01,1479.45c0,2.76,0,5.51,0,8.27c0,2.76-0.18,5.51-0.52,8.27h-194.82c0.34,10.27,2.66,19.94,6.98,29
		c4.3,9.07,10.08,16.94,17.31,23.61c7.23,6.67,15.58,11.88,25.06,15.65c9.47,3.76,19.55,5.64,30.23,5.64
		c16.54,0,30.83-3.62,42.89-10.85c12.05-7.23,21.53-16.02,28.42-26.35l34.11,27.39c-13.1,17.36-28.51,30.14-46.25,38.34
		c-17.75,8.2-37.46,12.3-59.17,12.3c-18.6,0-35.83-3.1-51.68-9.3c-15.85-6.2-29.46-14.9-40.82-26.1
		c-11.37-11.19-20.33-24.72-26.87-40.57c-6.55-15.84-9.82-33.41-9.82-52.71c0-18.94,3.19-36.43,9.58-52.45
		c6.39-16.02,15.28-29.71,26.67-41.08c11.39-11.37,24.86-20.23,40.4-26.61c15.54-6.37,32.27-9.56,50.23-9.56
		c17.95,0,34.26,2.93,48.94,8.78c14.67,5.86,27.1,14.3,37.29,25.32c10.18,11.03,18.04,24.38,23.56,40.05
		C1336.25,1442.16,1339.01,1459.81,1339.01,1479.45z M1289.41,1459.81c-0.35-9.64-1.99-18.68-4.91-27.13
		c-2.93-8.44-7.23-15.76-12.92-21.96c-5.68-6.2-12.75-11.11-21.19-14.73c-8.45-3.62-18.34-5.43-29.71-5.43
		c-10.33,0-20.07,1.81-29.2,5.43c-9.13,3.62-17.05,8.53-23.77,14.73s-12.23,13.52-16.54,21.96c-4.31,8.45-6.81,17.49-7.49,27.13
		H1289.41z"/>
	<path d="M1455.8,1603.99h-48.58v-390.67h48.58V1603.99z"/>
	<path d="M1769.47,1479.45c0,2.76,0,5.51,0,8.27c0,2.76-0.18,5.51-0.52,8.27h-194.82c0.34,10.27,2.66,19.94,6.98,29
		c4.3,9.07,10.08,16.94,17.31,23.61c7.23,6.67,15.58,11.88,25.06,15.65c9.47,3.76,19.55,5.64,30.23,5.64
		c16.54,0,30.83-3.62,42.89-10.85c12.05-7.23,21.53-16.02,28.42-26.35l34.11,27.39c-13.1,17.36-28.51,30.14-46.25,38.34
		c-17.75,8.2-37.46,12.3-59.17,12.3c-18.6,0-35.83-3.1-51.68-9.3c-15.85-6.2-29.46-14.9-40.82-26.1
		c-11.37-11.19-20.33-24.72-26.87-40.57c-6.55-15.84-9.82-33.41-9.82-52.71c0-18.94,3.19-36.43,9.58-52.45
		c6.39-16.02,15.28-29.71,26.67-41.08c11.39-11.37,24.86-20.23,40.4-26.61c15.54-6.37,32.27-9.56,50.23-9.56
		c17.95,0,34.26,2.93,48.94,8.78c14.67,5.86,27.1,14.3,37.29,25.32c10.18,11.03,18.04,24.38,23.56,40.05
		C1766.71,1442.16,1769.47,1459.81,1769.47,1479.45z M1719.86,1459.81c-0.35-9.64-1.99-18.68-4.91-27.13
		c-2.93-8.44-7.23-15.76-12.92-21.96c-5.68-6.2-12.75-11.11-21.19-14.73c-8.45-3.62-18.34-5.43-29.71-5.43
		c-10.33,0-20.07,1.81-29.2,5.43c-9.13,3.62-17.05,8.53-23.77,14.73s-12.23,13.52-16.54,21.96c-4.31,8.45-6.81,17.49-7.49,27.13
		H1719.86z"/>
	<path d="M1884.7,1565.23v38.76h-47.02v-390.67h48.58v182.41h1.55c8.24-12.05,19.76-22.3,34.53-30.75
		c14.78-8.44,32.3-12.66,52.58-12.66c18.21,0,34.79,3.28,49.75,9.82c14.95,6.55,27.83,15.68,38.66,27.39
		c10.82,11.72,19.15,25.41,25,41.08c5.85,15.68,8.77,32.47,8.77,50.38c0,17.92-2.92,34.8-8.77,50.64
		c-5.85,15.85-14.09,29.63-24.74,41.34c-10.66,11.72-23.54,20.93-38.66,27.65c-15.12,6.72-32.14,10.08-51.04,10.08
		c-17.53,0-34.19-3.88-50-11.63s-28.53-19.03-38.14-33.85H1884.7z M2047.48,1481.26c0-11.34-1.73-22.33-5.17-32.98
		c-3.45-10.64-8.62-20.09-15.5-28.33c-6.89-8.24-15.42-14.77-25.58-19.58c-10.17-4.81-21.96-7.22-35.4-7.22
		c-12.4,0-23.69,2.41-33.85,7.22c-10.17,4.81-18.86,11.34-26.1,19.58c-7.23,8.24-12.84,17.69-16.79,28.33
		c-3.96,10.65-5.94,21.82-5.94,33.49c0,11.68,1.98,22.85,5.94,33.49c3.96,10.65,9.56,20.01,16.79,28.08s15.93,14.51,26.1,19.32
		c10.16,4.81,21.45,7.21,33.85,7.21c13.44,0,25.23-2.49,35.4-7.47c10.16-4.98,18.68-11.59,25.58-19.84
		c6.89-8.24,12.06-17.69,15.5-28.34C2045.75,1503.59,2047.48,1492.6,2047.48,1481.26z"/>
	<path d="M2164.78,1386.44c-0.35-10.33-0.86-19.46-1.55-27.39h45.99c0.69,6.2,1.2,13.35,1.55,21.45c0.34,8.1,0.52,14.73,0.52,19.89
		h1.55c6.89-14.47,16.96-26.1,30.23-34.88c13.26-8.78,28.16-13.18,44.7-13.18c7.57,0,13.95,0.69,19.12,2.07l-2.07,44.96
		c-6.9-1.72-14.3-2.58-22.22-2.58c-11.72,0-21.88,2.16-30.49,6.46c-8.62,4.31-15.76,10.08-21.45,17.31
		c-5.68,7.23-9.91,15.59-12.66,25.06c-2.76,9.48-4.13,19.38-4.13,29.71v128.67h-48.57v-192.23
		C2165.29,1405.22,2165.12,1396.77,2164.78,1386.44z"/>
	<path d="M2591.1,1481c0,18.95-3.36,36.35-10.08,52.19c-6.72,15.85-16.02,29.54-27.9,41.08c-11.89,11.55-25.93,20.5-42.12,26.87
		c-16.2,6.37-33.59,9.56-52.19,9.56s-36-3.19-52.19-9.56c-16.2-6.37-30.15-15.33-41.86-26.87c-11.72-11.54-20.93-25.23-27.65-41.08
		c-6.72-15.84-10.08-33.24-10.08-52.19c0-18.94,3.36-36.25,10.08-51.93c6.72-15.67,15.93-29.2,27.65-40.56
		c11.71-11.37,25.66-20.23,41.86-26.61c16.19-6.37,33.59-9.56,52.19-9.56s36,3.19,52.19,9.56c16.19,6.38,30.23,15.24,42.12,26.61
		c11.89,11.37,21.19,24.89,27.9,40.56C2587.75,1444.75,2591.1,1462.06,2591.1,1481z M2540.46,1481.26c0-11.67-1.82-22.84-5.44-33.49
		c-3.63-10.64-8.9-20-15.81-28.07c-6.91-8.07-15.47-14.51-25.66-19.32c-10.2-4.81-21.87-7.22-34.99-7.22
		c-13.14,0-24.8,2.41-34.99,7.22c-10.2,4.81-18.75,11.25-25.66,19.32c-6.91,8.07-12.18,17.43-15.81,28.07
		c-3.63,10.65-5.44,21.82-5.44,33.49c0,11.68,1.81,22.85,5.44,33.49c3.62,10.65,8.9,20.1,15.81,28.34
		c6.91,8.24,15.46,14.77,25.66,19.58c10.19,4.81,21.86,7.21,34.99,7.21c13.13,0,24.8-2.4,34.99-7.21
		c10.19-4.81,18.75-11.34,25.66-19.58c6.91-8.24,12.18-17.69,15.81-28.34C2538.65,1504.11,2540.46,1492.94,2540.46,1481.26z"/>
</g>
</svg>
