<?xml version="1.0" encoding="utf-8"?>
<!-- Generator: Adobe Illustrator 23.0.4, SVG Export Plug-In . SVG Version: 6.00 Build 0)  -->
<svg version="1.1" xmlns="http://www.w3.org/2000/svg" xmlns:xlink="http://www.w3.org/1999/xlink" x="0px" y="0px"
	 viewBox="0 0 750 500" style="enable-background:new 0 0 750 500;" xml:space="preserve">
<style type="text/css">
	.st0{fill-rule:evenodd;clip-rule:evenodd;fill:#E6DFE6;}
	.st1{fill-rule:evenodd;clip-rule:evenodd;fill:#000101;}
	.st2{fill-rule:evenodd;clip-rule:evenodd;fill:#FFBD93;}
	.st3{fill-rule:evenodd;clip-rule:evenodd;fill:#FF4F00;}
	.st4{fill-rule:evenodd;clip-rule:evenodd;fill:#E2AE00;}
	.st5{clip-path:url(#SVGID_2_);}
	.st6{fill:#ECEEEE;}
	.st7{clip-path:url(#SVGID_4_);}
	.st8{fill-rule:evenodd;clip-rule:evenodd;fill:#FFBD92;}
	.st9{fill-rule:evenodd;clip-rule:evenodd;fill:#484848;}
	.st10{fill-rule:evenodd;clip-rule:evenodd;fill:#FFA794;}
	.st11{fill:#FFA794;}
	.st12{clip-path:url(#SVGID_6_);}
	.st13{fill-rule:evenodd;clip-rule:evenodd;fill:#ECE8E9;}
	.st14{clip-path:url(#SVGID_8_);}
	.st15{fill:#FF4F00;}
	.st16{fill-rule:evenodd;clip-rule:evenodd;fill:#070707;}
	.st17{fill:#020202;}
	.st18{fill-rule:evenodd;clip-rule:evenodd;fill:#020202;}
	.st19{fill-rule:evenodd;clip-rule:evenodd;}
	.st20{fill-rule:evenodd;clip-rule:evenodd;fill:#FFC6B5;}
	.st21{fill-rule:evenodd;clip-rule:evenodd;fill:#FFC7B5;}
	.st22{clip-path:url(#SVGID_10_);}
	.st23{clip-path:url(#SVGID_12_);}
	.st24{clip-path:url(#SVGID_14_);}
	.st25{clip-path:url(#SVGID_16_);}
	.st26{fill-rule:evenodd;clip-rule:evenodd;fill:#494949;}
	.st27{clip-path:url(#SVGID_18_);}
	.st28{clip-path:url(#SVGID_20_);}
	.st29{fill-rule:evenodd;clip-rule:evenodd;fill:#002A4C;}
</style>
<g id="BACKGROUND">
	<ellipse class="st0" cx="178.6" cy="417.5" rx="85.1" ry="7.9"/>
	<ellipse class="st0" cx="306.5" cy="417.5" rx="85.1" ry="7.9"/>
	<ellipse class="st0" cx="434.4" cy="417.5" rx="85.1" ry="7.9"/>
	<ellipse class="st0" cx="562.3" cy="417.5" rx="85.1" ry="7.9"/>
</g>
<g id="OBJECTS">
	<g transform="matrix(1.05026,0,0,1.05026,-54.3434,3.88485)">
		<g transform="matrix(-1.06264,0.0677758,0.0694011,1.03047,336.98,-116.005)">
			<g transform="matrix(-0.727627,0.052102,0.0350761,0.520931,372.214,224.061)">
				<path class="st1" d="M474.7,7.8c-4.4-11.6-36.8-7.7-33.4,38.8c0.5,6.8-7.5,12.3-0.2,29.1c3.9,9.1-2.7,16.5-2,25.8
					c2.5,32.7,21.4,19,24.1,20.1c5.5,2.3,8.2,10,16.8,8.2c14-2.9,13.3-9.8,19.1-22.4c4.4-9.6-4.1-16.6,0.1-28.8
					c6.5-18.8-7.2-26.5-7.3-29.6C491,11.4,475.1,8.8,474.7,7.8z"/>
			</g>
			<g transform="matrix(0.993359,0.14419,-0.137287,0.9458,10.1416,47.8646)">
				<path class="st1" d="M60.2,301.4c-3-3.2-11.1-14-16.6-3.1c-4.1,8.3-9.1,19.3-4.6,41.8c3.6,17.7,14.3,47.5,14.3,47.5
					s-5.9,20.1,15.6,70.3c0,0,2.5,7.4,5.5,1.2c1.6-3.2-2.8-42.9-4.2-79.8C69,344.7,71.1,313.1,60.2,301.4z"/>
			</g>
			<g transform="matrix(-0.958977,0.298318,0.295853,0.958619,157.518,16.3492)">
				<path class="st1" d="M207.2,267.9c0,0-5.6,15.5-5.4,32c0.3,19.3,15.4,43.2,17.1,52.7c1.3,7.6-0.9,17.8,0.4,25.9
					c3.2,19.6,9.6,36.1,9.7,39.4c0,0,2.5,7.4,5.5,1.2c1.4-2.9,3.1-27.5,3.2-43.3c0.1-15.4-1.7-28-1.7-28s-5.2-65.8-13.7-75
					C213.4,263.4,207.2,267.9,207.2,267.9z"/>
			</g>
			<g transform="matrix(0.699527,0.997567,-0.984113,0.695809,256.449,-54.949)">
				<path class="st2" d="M64.8,311.3c0.2-0.3,0.6-3.1,0.2-3.3c-2-1.3-3.7-2.2-3.6-3.8c0.1-1.4,0.5-1.1,0.5-1.7
					c0-0.1-0.4-0.2-1.1,0.4c-0.9,0.8-0.7,1.9-0.8,1.8c-0.7-1.5-2.9-6.7-3.7-6.3c-0.4,0.2,2.3,6,2.2,6c-0.4-0.4-2.5-3.3-3.2-4.4
					c-0.7-1.1-0.9-1-1.1-1.1c-0.1,0,0,0.5,0.2,0.9c0.7,1.2,2.6,5.2,2.9,5.6c0.1,0.1-2.7-3.1-3.9-4c-0.8-0.6-1.5-0.9-0.5,0.6
					c0.7,1,1.7,1.9,2.5,2.9c0.4,0.4,1,1.3,1.4,1.8c0.2,0.2-2.1-1.5-2.9-2c-0.5-0.3-0.9-0.5-1.4-0.6c-0.3-0.1-0.2,0.5,0.2,0.8
					c0.9,0.7,2.1,1.4,2.7,2.4c0.7,0.9,3.3,3.6,4.8,4.2C64,312.8,64.8,311.3,64.8,311.3z"/>
			</g>
			<g transform="matrix(0.888519,0.0614733,0.0560065,-0.988391,-216.95,390.886)">
				<path class="st2" d="M262.2,104.9c0,0-6.7-7.4-17.6,23.6L223.8,185c0,0,2.5,6.7,6.6,0.2c4.2-6.5,21.1-46.9,27.2-56.4
					C263.7,119.3,270.3,110.3,262.2,104.9z"/>
			</g>
			<g transform="matrix(0.886311,0.0921827,0.0811071,-0.887942,-219.902,360.607)">
				<path class="st3" d="M267,89.5c-2.3-2.7-8-6.1-12.4-2.1c-0.6,0.6-1.2,3.7-4.3,14.5L224.2,176l6.8,2.2l34-67.3
					C265,110.9,271.5,94.9,267,89.5z"/>
			</g>
			<g transform="matrix(-1.10821,-0.12748,-0.135073,1.60275,505.525,-79.6642)">
				<path class="st2" d="M396.6,259.2c-4.3,0.1-5.4-2.4-5.4-2.4s-2.2,1.1-4.1-1c-1.2-1.3,0-2.2,0.7-2.5c2-0.8,5.1,2.2,5.5,1.7
					c1.9-2.6-0.2-3.6-1.4-4.6c-1.1-0.9-0.6-3.1,1.7-3.3c9.8-1,7.3-5.7,9.3-4.5c3.1,1.9,5.9,11.1,4.6,14.7
					C406.9,258.5,399.3,259.1,396.6,259.2z"/>
			</g>
			<g transform="matrix(-1.13172,0.421532,-0.432531,-1.13644,397.951,601.564)">
				<path class="st2" d="M182.5,268.5c0.2-0.3-0.7-3.3-0.8-3.7c-0.3-1.6-0.4-2.3-0.3-3.9c0.1-1.4,0.5-1,0.5-1.7
					c0-0.1-0.4-0.2-1.1,0.4c-0.9,0.8-0.7,1.9-0.8,1.8c-0.7-1.5-2.9-6.7-3.7-6.3c-0.4,0.2,2.3,6,2.2,6c-0.4-0.4-2.5-3.3-3.2-4.4
					c-0.7-1.1-0.9-1-1.1-1.1c-0.1,0,0,0.5,0.2,0.9c0.7,1.2,2.6,5.2,2.9,5.6c0.1,0.1-2.7-3.1-3.9-4c-0.8-0.6-1.5-0.9-0.5,0.6
					c0.7,1,1.7,1.9,2.5,2.9c0.4,0.4,1,1.3,1.4,1.8c0.2,0.2-2.1-1.5-2.9-2c-0.5-0.3-0.9-0.5-1.4-0.6c-0.3-0.1-0.2,0.5,0.2,0.8
					c0.9,0.7,2.1,1.4,2.7,2.4c0.7,0.9,1.5,1.9,2.2,4.2C178,269,182.5,268.5,182.5,268.5z"/>
			</g>
			<g transform="matrix(-1.84519,0.00749336,0.0329552,1.01071,705.534,29.8314)">
				<path class="st2" d="M373.3,244.6c0,0-6.3,1.1-5.7,2.7c1.5,4.3,1.8,7.4,1.6,12.5c-0.1,4.7,6.4,2.5,6.4-1.2L373.3,244.6z"/>
			</g>
			<g transform="matrix(0.931347,-0.547061,0.490358,0.520914,-210.427,442.26)">
				<path class="st4" d="M124.5,227.2c0.5-0.3,3.7-2.1-0.3-2.5c-2.1-0.2-3.7-1.5-7.3-4.9c-1.3-1.2-3.2-3.2-5.2-3.8
					c-1.4-0.4-2.3,0.6-3.1,1.5c6.4,11.5,16.2,17.5,17.3,17.8c2.2-2.4,1.2-3.3,2.6-3.9C128.8,230.5,125.7,228,124.5,227.2z"/>
				<g>
					<defs>
						<path id="SVGID_1_" d="M124.5,227.2c0.5-0.3,3.7-2.1-0.3-2.5c-2.1-0.2-3.7-1.5-7.3-4.9c-1.3-1.2-3.2-3.2-5.2-3.8
							c-1.4-0.4-2.3,0.6-3.1,1.5c6.4,11.5,16.2,17.5,17.3,17.8c2.2-2.4,1.2-3.3,2.6-3.9C128.8,230.5,125.7,228,124.5,227.2z"/>
					</defs>
					<clipPath id="SVGID_2_">
						<use xlink:href="#SVGID_1_"  style="overflow:visible;"/>
					</clipPath>
					<g class="st5">
						<g transform="matrix(1.00164,-0.157258,0.158597,0.973461,-35.845,38.8208)">
							<path class="st6" d="M123.6,217c0.5,0.4,1,0.8,1.5,1.1c1.7,1.3,4.3,2.9,4.4,2.9c1.9,1.1,2.2,6-4.8,0.6
								c-9.7-5.9-14.4-16.5-17.3-27.6l-0.7-4l0.3-0.7l0.9,1.3c0.6,1.7,1.1,3.3,1.6,5l0-2.5c0.2-0.8,0.5-1,1.3-0.7
								c1.3,0.6,0.7,1.7,0.7,1.7c0.4,2.2,0.9,4.4,1.5,6.5c1.3,1.4,7.4,5.8,8.8,10.8c0,0,1,2.5,1.4,4
								C123.4,216,123.5,216.5,123.6,217z M113.9,203.2c1.8,4.7,4.4,9,8.1,12.4c-0.4-1.9-0.9-3.6-1.4-5.3c-0.7-2.1-2.2-3.4-2.7-3.8
								c-1-0.9-1.7-1.2-2.2-1.7C115,204.2,114.5,203.7,113.9,203.2z M122.2,213.4l0.5,1.3C122.7,214.8,122.2,213.2,122.2,213.4z"/>
						</g>
					</g>
				</g>
			</g>
			<g transform="matrix(-0.895265,-0.564634,-0.497463,0.527802,440.713,441.092)">
				<path class="st4" d="M234.4,339.3c0.5-0.3,3.7-2.1-0.3-2.5c-2.1-0.2-3.7-1.5-7.3-4.9c-1.3-1.2-3.2-3.2-5.2-3.8
					c-1.4-0.4-2.3,0.6-3.1,1.5c6.4,11.5,16.2,17.5,17.3,17.8c2.2-2.4,1.2-3.3,2.6-3.9C238.7,342.6,235.7,340.1,234.4,339.3z"/>
				<g>
					<defs>
						<path id="SVGID_3_" d="M234.4,339.3c0.5-0.3,3.7-2.1-0.3-2.5c-2.1-0.2-3.7-1.5-7.3-4.9c-1.3-1.2-3.2-3.2-5.2-3.8
							c-1.4-0.4-2.3,0.6-3.1,1.5c6.4,11.5,16.2,17.5,17.3,17.8c2.2-2.4,1.2-3.3,2.6-3.9C238.7,342.6,235.7,340.1,234.4,339.3z"/>
					</defs>
					<clipPath id="SVGID_4_">
						<use xlink:href="#SVGID_3_"  style="overflow:visible;"/>
					</clipPath>
					<g class="st7">
						<g transform="matrix(1.00164,-0.157258,0.158597,0.973461,-35.845,38.8208)">
							<path class="st6" d="M212.8,346.6c0.5,0.4,1,0.8,1.5,1.1c1.7,1.3,4.3,2.9,4.4,2.9c1.9,1.1,2.2,6-4.8,0.6
								c-9.7-5.9-14.4-16.5-17.3-27.6l-0.7-4l0.3-0.7l0.9,1.3c0.6,1.7,1.1,3.3,1.6,5l0-2.5c0.2-0.8,0.5-1,1.3-0.7
								c1.3,0.6,0.7,1.7,0.7,1.7c0.4,2.2,0.9,4.4,1.5,6.5c1.3,1.4,7.4,5.8,8.8,10.8c0,0,1,2.5,1.4,4
								C212.6,345.6,212.7,346.1,212.8,346.6z M203.1,332.8c1.8,4.7,4.4,9,8.1,12.4c-0.4-1.9-0.9-3.6-1.4-5.3
								c-0.7-2.1-2.2-3.4-2.7-3.8c-1-0.9-1.7-1.2-2.2-1.7C204.2,333.8,203.7,333.3,203.1,332.8z M211.4,343l0.5,1.3
								C211.9,344.3,211.4,342.7,211.4,343z"/>
						</g>
					</g>
				</g>
			</g>
			<g transform="matrix(0.991285,0.166381,-0.0742422,0.469619,2.63993,160.644)">
				<path class="st3" d="M37.5,365.5c2.5,4.3,6.2,7,13.6,2.5c9.6-5.7,11.9-15.2,11.8-20.4c-0.1-5.8-1-15.1-0.6-34.9
					c0.4-26-5.9-49.3-13-55l-10.7,1.6c0,0-3.5,4.6-6.1,8.6c-1,1.5-3.2,30-3.5,37c-0.6,17.4,3.8,20.1,4.6,25.2
					C36.5,347.3,33.8,359.1,37.5,365.5z"/>
			</g>
			<g transform="matrix(-0.88143,0.122187,0.145213,0.980117,413.967,154.739)">
				<path class="st8" d="M444,91.8c0,0-6.7-7.4-17.6,23.6L405.6,172c0,0,2.5,6.7,6.6,0.2c4.2-6.5,21.1-46.9,27.2-56.4
					C445.5,106.2,452.1,97.3,444,91.8z"/>
			</g>
			<g transform="matrix(-0.880898,0.126151,0.134794,0.882583,413.548,167.069)">
				<path class="st3" d="M450.1,75.6c0.4-0.3-3.4-0.2-5,0c-3.2,0.3-6.3,1.4-9.2,4.1c-0.6,0.6-4,3.5-6.1,13.3l-25,79.2l6.8,2.5
					L448.2,97C448.2,97,444.8,80,450.1,75.6z"/>
			</g>
		</g>
		<path class="st9" d="M339,237.9L339,237.9l0.1,0.3l0.1,0.3l0.1,0.3l0.1,0.3l0.1,0.3l0.1,0.3l0.1,0.6l0,0.1l0.1,0.6l0.1,0.6
			l0.1,0.3l0,0.3l0.1,0.7l0.1,0.6l0,0.1l0.1,0.7l0.1,0.7l0.1,0.7l0.1,1.1l0,0.3l0.1,1.4l0.1,1.4l0.1,1l0,0.4l0.1,0.7l0.1,0.7
			l0.1,0.7l0.1,0.7l0.1,0.7l0,0.1l0,0.6l0.1,0.7l0.1,0.6l0.1,0.6l0,0.2l0,0.4l0,0.3l0,0.2l0,0.1l0,0.3l0,0.3l-0.1,0.2l-0.1-0.1
			l-0.1-0.3l-0.1-0.3l0-0.1l0-0.2l-0.1-0.3l-0.1-0.4l0-0.2l-0.1-0.6l-0.1-0.6l-0.1-0.7l-0.1-0.6l0-0.1l-0.1-0.7l-0.1-0.7l-0.1-0.7
			l-0.1-0.7l-0.1-0.7l0-0.4l-0.1-1l-0.1-1.3l-0.1-1.3l0-0.3l-0.1-1.1l-0.1-0.7l-0.1-0.7l-0.1-0.7l0-0.1l0-0.6l0-0.7l0-0.3l0-0.4
			l0-0.7l0-0.6l0-0.1l0-0.6l0-0.3l0-0.3l0-0.3l0-0.3l0-0.3l0-0.2l0-0.1l0.1-0.2L339,237.9z"/>
		<path class="st9" d="M341.6,237.8L341.6,237.8l0.1,0.4l0.1,0.3l0.1,0.3l0,0.1l0,0.2l0,0.3l0,0.3l0,0.3l0,0l0.1,0.6l0.1,0.6
			l0.1,0.6l0.1,0.6l0.1,0.6l0.1,0.6l0.1,0.6l0.1,0.6l0.1,0.6l0.1,0.6l0.1,1.2l0,0.4l0.1,0.8l0.1,1.2l0.1,0.6l0.1,0.6l0.1,0.6
			l0.1,0.6l0.1,0.6l0.1,0.6l0.1,0.6l0.1,0.6l0.1,0.6l0,0.1l0,0.5l0,0.4l0,0.2l0,0.3l0,0.3l-0.3,0.4l-0.4-0.3l-0.1-0.3l-0.1-0.3
			l0-0.2l-0.1-0.4l-0.1-0.5l0-0.1l-0.1-0.6l-0.1-0.6l-0.1-0.6l-0.1-0.6l-0.1-0.6l-0.1-0.6L342,251l-0.1-0.6l-0.1-0.6l-0.1-1.2
			l-0.1-0.8l0-0.4l-0.1-1.2l-0.1-0.6l-0.1-0.6l-0.1-0.6l-0.1-0.6l-0.1-0.6l-0.1-0.6l-0.1-0.6l-0.1-0.6l-0.1-0.6l-0.1-0.6l0,0l0-0.3
			l0-0.3l0-0.3l0-0.2l0-0.1l0-0.3l0-0.3l0-0.3l0-0.1l0.2-0.3l0.3,0L341.6,237.8z"/>
		<path class="st9" d="M339.9,259.6l-0.1,0.7l-0.1,0.7l0,0.4l0,0.3l-0.1,0.7l-0.1,0.7l-0.1,0.7l-0.1,0.5l-0.1,0.9l-0.2,1.4l-0.2,1.4
			l-0.2,1.4l-0.2,1.4l-0.5,2.7l-0.5,2.7l-0.1,0.5l-0.2,0.9l-0.2,1.4l-0.2,1.4l-0.2,1.4l-0.4,2.5l0,0.2l-0.2,1.4l-0.3,1.7l-0.3,1.9
			l-0.3,1.9l0,0.1l-0.2,1l-0.2,1l-0.2,1.1l-0.2,1.1l-0.2,1.1l-0.1,0.5l-0.1,0.6l-0.2,1.1l-0.2,1.1l-0.2,1.1l-0.2,1.1l-0.2,1l0,0.1
			l-0.2,1.1l-0.2,1l-0.2,1l-0.2,1l-0.2,1l-0.1,0.5l-0.1,0.5l-0.1,0.5l-0.1,0.5l-0.1,0.4l-0.1,0.4l-0.1,0.4l0,0.2l0,0.2l-0.2,0.1
			l-0.1-0.2l0-0.2l0-0.2l0-0.4l0-0.4l0-0.4l0.1-0.5l0.1-0.5l0.1-0.5l0.1-0.5l0.1-1l0.1-1l0.1-1l0.1-1l0.1-1.1l0-0.1l0.1-1l0.2-1.1
			l0.2-1.1l0.2-1.1l0.2-1.1l0.1-0.6l0.1-0.5l0.2-1.1l0.2-1.1l0.2-1.1l0.2-1l0.2-1l0-0.1l0.3-1.9l0.3-1.9l0.3-1.7l0.2-1.4l0-0.2
			l0.5-2.5l0.3-1.4l0.3-1.4l0.3-1.4l0.2-0.9l0.1-0.5l0.5-2.7l0.5-2.7l0.3-1.4l0.3-1.4l0.3-1.4l0.3-1.4l0.2-0.9l0.1-0.5l0.1-0.7
			l0.1-0.7l0.1-0.7l0.1-0.3l0.1-0.4l0.2-0.7l0.2-0.7l0.1-0.1L339.9,259.6z"/>
		<path class="st9" d="M336.3,279.9l0.1,0.1l0,0.3l0.1,0.4l0.1,0.4l0.1,0.4l0.1,0.4l0.1,0.4l0.1,0.4l0.1,0.4l0,0.4l0,0.4l0,0.4
			l0,0.4l0,0.4l0,0.4l0.1,0.7l0.2,1.5l0.1,0.7l0,0.1l0,0.4l0,0.4l0,0.4l0,0.4l0,0.4l0,0.4l0,0.4l0.1,0.4l0.1,0.4l0.1,0.4l0.4,2.5
			l0.4,2.5l0.4,2.5l0.4,2.5l0.8,5l0.4,2.5l0.4,2.5l0.4,2.5l0.4,2.5l0.2,1.2l0.2,1.2l0.2,1.2l0.2,1.2l0.2,1.2l0.2,1.2l0.2,1.2
			l0.2,1.2l0.2,1.3l0.2,1.3l0.2,1.3l0.2,1.3l0.2,1.2l0.3,2.4l0.3,1.8l0.3,1.8l0.3,1.8l0.3,1.8l0.3,1.8l0.2,1.8l0.1,0.9l0.1,0.9
			l0.1,0.9l0.1,0.9l0.1,0.9l0.1,0.9l0.1,0.9l0.1,0.9l0.1,0.9l0.1,0.9l0.1,0.9l0.1,0.9l0.1,0.9l0.1,0.9l0.1,0.9l0.1,0.9l0.1,0.9
			l0.1,0.9l0.1,0.9l0.1,0.9l0.1,0.9l0.1,0.9l0.1,0.9l0.1,0.9l0.1,0.9l0.1,0.9l0.1,0.9l0.1,0.9l0.1,0.9l0.1,0.9l0.1,0.9l0.1,0.9
			l0.1,0.9l0,0.9l0,0.6l0,0.4l0,0.9l0,0.9l0,0.9l0,0.9l0,0.5l0,0.5l0,0.5l0,0.5l0,0.5l0,0.5l0,0.5l0,0.5l0,0.5v0.5l0,0.5l0,0.5
			l0,0.5l0,0.5l0,0.3l0,0.2l0,0.5l0,0.5l0,0.5l-0.2,0.2l-0.2-0.2l0-0.5l0-0.5l0-0.5l0-0.2l0-0.3l0-0.5l0-0.5l0-0.5l0-0.5l0-0.5
			l0-0.5l0-0.5l0-0.5l0-0.5l0-0.5l0-0.5l0-0.5l0-0.5l0-0.5l0-0.9l0-0.9l0-0.9l0-0.9l0-0.4l0-0.6l0-0.9l-0.1-0.9l-0.1-0.9l-0.1-0.9
			l-0.1-0.9l-0.1-0.9l-0.1-0.9l-0.1-0.9l-0.1-0.9l-0.1-0.9l-0.1-0.9l-0.1-0.9l-0.1-0.9l-0.1-0.9l-0.1-0.9l-0.1-0.9l-0.1-0.9
			l-0.1-0.9l-0.1-0.9l-0.1-0.9l-0.1-0.9l-0.1-0.9l-0.1-0.9l-0.1-0.9l-0.1-0.9l-0.1-0.9l-0.1-0.9l-0.1-0.9l-0.1-0.9l-0.1-0.9
			l-0.1-0.9l-0.1-0.9l-0.1-0.9l-0.1-0.9l-0.2-1.8l-0.2-1.8l-0.3-1.8l-0.3-1.8l-0.3-1.8l-0.3-1.8l-0.3-2.4l-0.2-1.2l-0.2-1.3
			l-0.2-1.3l-0.2-1.2l-0.2-1.2l-0.2-1.2l-0.2-1.2l-0.2-1.2l-0.2-1.2l-0.2-1.2l-0.2-1.2l-0.2-1.2l-0.2-1.2l-0.4-2.5l-0.4-2.5
			l-0.4-2.5l-0.4-2.5l-0.8-5l-0.4-2.5l-0.4-2.5l-0.4-2.5l-0.4-2.5l-0.1-0.4l-0.1-0.4l-0.1-0.4l0-0.4l0-0.4l0-0.4l0-0.4l0-0.4l0-0.4
			l0-0.4l0-0.1l-0.1-0.7l-0.1-1.5l-0.1-0.7l0-0.4l0-0.4l0-0.4l0-0.4l0-0.4l0-0.4l0-0.4l0-0.4l0-0.4l0-0.4l-0.1-0.4l-0.1-0.4
			l-0.1-0.4l0-0.3l0.1-0.1l0.1-0.2L336.3,279.9z"/>
		<path class="st9" d="M320.4,235.8l-0.2,0.3l-0.2,0.3l-0.2,0.3l-0.2,0.3l-0.2,0.3l-0.2,0.3l-0.2,0.4l-0.2,0.3L319,239l-0.1,0.4
			l-0.1,0.4l-0.1,0.4l-0.1,0.4l-0.1,0.4l-0.1,0.4l0,0.1l-0.1,0.3l-0.1,0.4l-0.1,0.4l-0.1,0.4l-0.1,0.4l-0.1,0.4l-0.1,0.4l-0.1,0.4
			l-0.1,0.4l-0.1,0.4l-0.1,0.4l-0.1,0.4l-0.1,0.4l-0.1,0.4l-0.1,0.4l-0.1,0.4l-0.1,0.4l-0.1,0.4l-0.1,0.4l-0.1,0.4l-0.1,0.4
			l-0.1,0.4l-0.1,0.4l-0.1,0.4l-0.1,0.4l-0.1,0.4l-0.1,0.4l-0.1,0.4l-0.1,0.4l-0.1,0.4l-0.1,0.4l-0.1,0.4l-0.1,0.4l-0.1,0.4
			l-0.1,0.4l-0.1,0.4l-0.1,0.4l-0.1,0.4l-0.1,0.4l-0.1,0.4l-0.1,0.4l-0.1,0.4l-0.1,0.4l-0.1,0.4l-0.1,0.4l-0.1,0.4l-0.1,0.4
			l-0.1,0.4l-0.1,0.4l-0.1,0.4l-0.1,0.4l-0.1,0.4l-0.1,0.4l-0.1,0.4l-0.1,0.4l-0.1,0.4l-0.1,0.4l-0.1,0.4l-0.1,0.4l-0.1,0.4
			l-0.1,0.4l-0.1,0.4l-0.1,0.4l-0.1,0.4l-0.1,0.4l-0.1,0.4l-0.1,0.4l-0.1,0.4L311,266l-0.1,0.4l-0.1,0.4l0,0.4l0,0.4l0,0.4l0,0.2
			l0,0.1l0,0.4l0,0.4l0,0.4l0,0.4l0,0.4l0,0.4l0,0.4l0,0.4l0,0.4l0,0.4l0,0.4l0,0.4l0,0.4l0,0.4l0,0.4l0,0.4l0,0.4l0,0.4l0,0.4
			l0,0.4l0,0.4l0,0.4l0,0.4l0,0.4l0,0.4l0,0.4l0,0.4l0,0.4v0.4l0,0.4l0,0.4l0,0.4l0,0.4l0,0.4l0,0.4l0,0.4l0,0.4l0,0.4l0,0.3l0,0.3
			l0,0.3l0,0.3l0,0.3l0,0.3l0,0.3l0,0.3l0,0.3l0,0.3l0,0.3l0,0.3l0,0.2l0,0.1l0,0.3l0.1,0.6l0.1,0.6l0.1,0.6l0.1,0.6l0.1,0.6
			l0.1,0.6l0.1,0.6l0.1,0.6l0.1,0.6l0.1,0.6l0.1,0.6l0.1,0.6l0.1,0.6l0.1,0.6l0.1,0.6l0.1,0.6l0.1,0.6l0.2,1.1l0.2,1.1l0.2,1.1
			l0.2,1.1l0.2,1.1l0.1,0.6l0.1,0.6l0.1,0.5l0,0l0.1,0.6l0.1,0.6l0.1,0.6l0.1,0.6l0.1,0.6l0.1,0.6l0.1,0.6l0.1,0.6l0.1,0.6l0.1,0.6
			l0.1,0.6l0.1,0.6l0.1,0.6l0.1,0.6l0,0.3l0,0.3l0,0.3l0,0.3l0,0.3l0,0.3l0,0.3l0,0.3l0,0.3l0,0.3l0,0.3l0,0.3l0,0.3l0,0.3l0,0.3
			l0,0.3l0,0.3l0,0.3l0,0.3l0,0.3l0,0.3l0,0.3l0,0.3l0,0.3l0,0.3l0,0.3l0,0.2l0,0.2l0,0.2l0,0.2l0,0.2l0,0.2l0,0.2l0,0.2l0,0.2
			l0,0.2l0,0.4l0,0.4l0,0.4l0,0.4l0,0.4l0,0.4l-0.1,0.4l0,0.3l0,0.1l-0.1,0.4l-0.1,0.4l-0.1,0.4l-0.1,0.4l-0.1,0.4l-0.1,0.4
			l-0.1,0.4l-0.1,0.4l-0.1,0.4l-0.1,0.4l-0.1,0.4l-0.1,0.4l-0.1,0.4l-0.1,0.4l-0.1,0.4l-0.1,0.4l-0.1,0.4l-0.2,0.8l-0.2,0.8
			l-0.2,0.8l-0.4,1.6l-0.2,0.8l-0.2,0.8l-0.2,0.8L311,339l-0.1,0.4l-0.1,0.4l-0.1,0.4l-0.1,0.4l-0.1,0.4l-0.1,0.4l-0.1,0.4l-0.1,0.4
			l-0.1,0.4l-0.1,0.4l-0.1,0.4l-0.1,0.4l-0.1,0.4l-0.1,0.4l-0.1,0.4l-0.1,0.4l-0.1,0.4l-0.1,0.6l-0.1,0.6l-0.1,0.6l0,0.2l-0.1,0.4
			l-0.1,0.6l-0.1,0.6l-0.1,0.7l-0.1,0.7l-0.1,0.7l-0.1,0.7l-0.1,0.7l-0.1,0.7l-0.1,0.7l-0.1,0.7l-0.1,0.7l-0.1,0.7l-0.1,0.7l0,0.7
			l0,0.7l0,0.7l0,0.7l0,0.7l0,0.7l0,0.7l0,0.7l0,0.7l0,0.7l0,0.7l0,0.7l0,0.7l0,0.7l0,0.7l0,0.7l0,0.7l0,0.7l0,0.7l0,0.7l0,0.7
			l0,0.7l0,0.7l0,0.7l0,0.7l0,0.7l0,0.7l0,0.7l0,0.7l0,0.7l0,0.7l0,0.7l0,0.7l0,0.7l0,0.7l0,0.7l0,0.7l0,0.7l0,0.7l0,0.7l0,0.7
			l0,0.7l0,0.3l0,0.4l0,0.7l0,0.7v0.7l0,0.7l-0.2,0.3l-0.2-0.2l-0.1-0.7l-0.1-0.7l-0.1-0.7l-0.1-0.7l0-0.4l0-0.3l0-0.7l0-0.7l0-0.7
			l0-0.7l0-0.7l0-0.7l0-0.7l0-0.7l0-0.7l0-0.7l0-0.7l0-0.7l0-0.7l0-0.7l0-0.7l0-0.7l0-0.7l0-0.7l0-0.7l0-0.7l0-0.7l0-0.7l0-0.7
			l0-0.7l0-0.7l0-0.7l0-0.7l0-0.7l0-0.7l0-0.7l0-0.7l0-0.7l0-0.7l0-0.7l0-0.7l0-0.7l0-0.7l0-0.7l0-0.7l0-0.7l0-0.7l0-0.7l0-0.7
			l0-0.7l0.1-0.7l0.1-0.7l0.1-0.7l0.1-0.7l0.1-0.7l0.1-0.7l0.1-0.7l0.1-0.7l0.1-0.7l0.1-0.7l0.1-0.7l0-0.4l0-0.2l0.1-0.7l0.1-0.7
			l0.1-0.7l0.1-0.4l0.1-0.4l0.1-0.4l0.1-0.4l0.1-0.4l0.1-0.4l0.1-0.4l0.1-0.4l0.1-0.4l0.1-0.4l0.1-0.4l0.1-0.4l0.1-0.4l0.1-0.4
			l0.1-0.4l0.1-0.4l0.1-0.4l0.1-0.4l0.2-0.8l0.2-0.8l0.2-0.8l0.4-1.6l0.2-0.8l0.2-0.8l0.2-0.8l0.1-0.4l0.1-0.4l0.1-0.4l0.1-0.4
			l0.1-0.4l0.1-0.4l0.1-0.4l0.1-0.4l0.1-0.4l0.1-0.4l0.1-0.4l0.1-0.4l0.1-0.4l0.1-0.4l0.1-0.4l0.1-0.4l0.1-0.4l0-0.1l0-0.3l0.1-0.4
			l0-0.4l0-0.4l0-0.4l0-0.4l0-0.4l0-0.4l0-0.2l0-0.2l0-0.2l0-0.2l0-0.2l0-0.2l0-0.2l0-0.2l0-0.2l0-0.2l0-0.3l0-0.3l0-0.3v-0.3l0-0.3
			l0-0.3l0-0.3l0-0.3l0-0.3l0-0.3l0-0.3l0-0.3l0-0.3l0-0.3l0-0.3l0-0.3l0-0.3l0-0.3l0-0.3l0-0.3l0-0.3l0-0.3l0-0.3l0-0.3l0-0.3
			l0-0.3l-0.1-0.6l-0.1-0.6l-0.1-0.6l-0.1-0.6l-0.1-0.6l-0.1-0.6l-0.1-0.6l-0.1-0.6l-0.1-0.6l-0.1-0.6l-0.1-0.6l-0.1-0.6l-0.1-0.6
			l-0.1-0.6l0,0l-0.1-0.5l-0.1-0.6l-0.1-0.6l-0.2-1.1l-0.2-1.1l-0.2-1.1l-0.2-1.1l-0.2-1.1l-0.1-0.6l-0.1-0.6l-0.1-0.6l-0.1-0.6
			l-0.1-0.6l-0.1-0.6l-0.1-0.6l-0.1-0.6l-0.1-0.6l-0.1-0.6l-0.1-0.6l-0.1-0.6l-0.1-0.6l-0.1-0.6l-0.1-0.6l-0.1-0.6l-0.1-0.6l0-0.3
			l0-0.1l0-0.2l0-0.3l0-0.3l0-0.3l0-0.3l0-0.3l0-0.3l0-0.3l0-0.3l0-0.3l0-0.3l0-0.3l0-0.3l0-0.4l0-0.4l0-0.4l0-0.4l0-0.4l0-0.4
			l0-0.4v-0.4l0-0.4l0-0.4l0-0.4l0-0.4l0-0.4l0-0.4l0-0.4l0-0.4l0-0.4l0-0.4l0-0.4l0-0.4l0-0.4l0-0.4l0-0.4l0-0.4l0-0.4l0-0.4l0-0.4
			l0-0.4l0-0.4l0-0.4l0-0.4l0-0.4l0-0.4l0-0.4l0-0.4l0-0.4l0-0.4l0-0.4l0-0.1l0-0.2l0.1-0.4l0.1-0.4l0.1-0.4l0.1-0.4l0.1-0.4
			l0.1-0.4l0.1-0.4l0.1-0.4l0.1-0.4l0.1-0.4l0.1-0.4l0.1-0.4l0.1-0.4l0.1-0.4l0.1-0.4l0.1-0.4l0.1-0.4l0.1-0.4l0.1-0.4l0.1-0.4
			l0.1-0.4l0.1-0.4l0.1-0.4l0.1-0.4l0.1-0.4l0.1-0.4l0.1-0.4l0.1-0.4l0.1-0.4l0.1-0.4l0.1-0.4l0.1-0.4l0.1-0.4l0.1-0.4l0.1-0.4
			l0.1-0.4l0.1-0.4l0.1-0.4l0.1-0.4l0.1-0.4l0.1-0.4l0.1-0.4l0.1-0.4l0.1-0.4l0.1-0.4l0.1-0.4l0.1-0.4l0.1-0.4l0.1-0.4l0.1-0.4
			l0.1-0.4l0.1-0.4l0.1-0.4l0.1-0.4l0.1-0.4l0.1-0.4l0.1-0.4l0.1-0.4l0.1-0.4l0.1-0.4l0.1-0.4l0.1-0.4l0.1-0.4l0.1-0.4l0.1-0.4
			l0.1-0.4l0.1-0.4l0.1-0.4l0.1-0.4l0.1-0.4l0.1-0.4l0.1-0.4l0.1-0.4l0.1-0.3l0-0.1l0.2-0.3l0.2-0.3l0.2-0.3l0.2-0.3l0.2-0.3
			l0.2-0.3l0.2-0.3l0.2-0.3l0.2-0.3l0.2-0.3l0.2-0.3l0.2-0.3l0.2-0.3l0.2-0.3l0.2-0.3l0.2-0.1L320.4,235.8z"/>
		<path class="st9" d="M321.8,235.9l-0.1,0.2l-0.1,0.2l-0.1,0.2l0,0.1l-0.1,0.2l-0.1,0.2l-0.1,0.2l-0.1,0.2l0,0.1l-0.2,0.4l-0.2,0.5
			l-0.2,0.5l-0.1,0.3l-0.1,0.1l-0.1,0.2l-0.1,0.2l-0.1,0.2l-0.1,0.2l-0.1,0.2l-0.1,0.2l-0.1,0.2l-0.1,0.2l-0.1,0.2l0,0l-0.1,0.2
			l-0.1,0.2l-0.1,0.2l-0.1,0.2l-0.1,0.2l-0.1,0.1L319,243l-0.1,0.1l-0.1,0.1l-0.1,0.1l-0.1,0.1l-0.1,0.1l-0.1,0.1l-0.1,0.1l-0.1,0.1
			l0,0l-0.1,0.1l-0.1,0.1l-0.1,0.1l-0.1,0.1l-0.1,0.1l-0.1,0.1l-0.1,0.1l-0.1,0.1l-0.1,0.1l-0.1,0.1l-0.1,0.1l0,0l0,0l0,0l0,0l0,0
			l0,0l0,0l0,0l0,0l0,0l0,0l0,0l0,0l0,0l0,0l-0.1,0l-0.1,0l-0.1,0l-0.1,0l-0.1,0l-0.1,0l-0.1,0l-0.1,0l-0.1,0l-0.1,0l0,0l0,0l0,0
			l0,0l0,0l0,0l0,0l0,0l0,0l0,0l0,0l0,0l0,0l0-0.1l0-0.1l0-0.1v-0.1l0,0l0-0.1l0-0.1l0-0.1l0-0.1l0-0.1l0-0.1l0-0.1l0-0.1l0.1-0.2
			l0.1-0.2l0.1-0.2l0,0l0-0.1l0.1-0.1l0-0.1l0-0.1l0.2-0.5l0.2-0.5l0-0.1l0.1-0.2l0.1-0.2l0.1-0.2l0.1-0.2l0.1-0.2l0.1-0.2l0.1-0.2
			l0-0.1l0.1-0.1l0.1-0.2l0.1-0.2l0.1-0.2l0.1-0.2l0.1-0.2l0.1-0.2l0.1-0.1l0.1-0.1l0.1-0.2l0.1-0.2l0.1-0.2l0.1-0.2l0.1-0.2
			l0.1-0.2l0.1-0.1l0.1-0.1l0.2-0.2l0.2-0.2l0.2-0.2l0.2-0.2l0.2-0.2l0.1-0.1l0-0.1l0.2,0l0,0.2l0,0.1l-0.1,0.2l-0.1,0.2l-0.1,0.2
			l-0.1,0.2l-0.1,0.2l-0.1,0.2l-0.1,0.1l-0.1,0.1l-0.1,0.2l-0.1,0.2l-0.1,0.2l-0.1,0.2l-0.1,0.2l-0.1,0.2l0,0.1l-0.1,0.1l-0.1,0.2
			l-0.1,0.2l-0.1,0.2l-0.1,0.2l-0.1,0.2l-0.1,0.2l-0.1,0.1l0,0.1l-0.1,0.2l-0.1,0.2l-0.1,0.2l-0.1,0.2l-0.1,0.2l-0.1,0.2l-0.1,0.2
			l0,0.1l-0.2,0.5l-0.2,0.5l0,0.1l0,0.1l-0.1,0.1l0,0.1l0,0l-0.1,0.2l-0.1,0.2l-0.1,0.2l0,0.1l0,0.1l0,0.1l0,0.1l0,0.1l0,0.1l0,0.1
			l0,0.1l0,0l0,0.1l0,0l0,0.1l0,0.1l0,0l0,0v0l0,0v0l0,0v0l0,0l0,0l0,0l0,0v0l0,0l0,0l0,0l0,0l0,0l0,0h0l0,0l0,0l0,0l0,0l0,0l0,0
			l0,0l0,0l0,0l0,0l0,0l0,0l0,0l0,0l0,0l0,0l0.1-0.1l0.1-0.1l0.1-0.1l0.1-0.1l0.1-0.1l0.1-0.1l0.1-0.1l0.1-0.1l0.1-0.1l0.1-0.1
			l0-0.1l0,0l0.1-0.1l0.1-0.1l0-0.1l0.1-0.1l0.1-0.1l0-0.1l0.1-0.1l0.1-0.1l0.1-0.1l0.1-0.1l0.1-0.2l0.1-0.2l0.1-0.2l0.1-0.2
			l0.1-0.2l0,0l0.1-0.2l0.1-0.2l0.1-0.2l0.1-0.2l0.1-0.2l0.1-0.2l0.1-0.2l0.1-0.2l0.1-0.2l0.1-0.1l0.1-0.3l0.2-0.5l0.2-0.5l0.2-0.4
			l0,0l0.1-0.2l0.1-0.2l0.1-0.2l0.1-0.2l0-0.1l0.1-0.2l0.1-0.2l0.1-0.2l0.1-0.2l0.1-0.1l0,0.1L321.8,235.9z M316.9,244.5
			L316.9,244.5L316.9,244.5L316.9,244.5L316.9,244.5L316.9,244.5L316.9,244.5L316.9,244.5L316.9,244.5L316.9,244.5L316.9,244.5
			L316.9,244.5L316.9,244.5L316.9,244.5L316.9,244.5L316.9,244.5L316.9,244.5L316.9,244.5L316.9,244.5L316.9,244.5L316.9,244.5
			L316.9,244.5L316.9,244.5L316.9,244.5L316.9,244.5L316.9,244.5L316.9,244.5L316.9,244.5L316.9,244.5L316.9,244.5L316.9,244.5z"/>
		<path class="st9" d="M329,238.5l-0.1,0.5l-0.1,0.5l0,0.2l-0.1,0.3l-0.1,0.5l-0.1,0.5l-0.1,0.5l-0.1,0.5l-0.1,0.2l-0.1,0.2l0,0.1
			l0,0.2l-0.1,0.2l-0.1,0.2l-0.1,0.2l-0.1,0.2l-0.1,0.2l0,0.2l0,0.2l0,0.2l0,0.2l0,0.2l0,0.2l0,0l0,0.2l0,0.2l0,0.1l0,0.1l-0.1,0.3
			l0,0.2l0,0.2l0,0.2l0,0.1l0,0.1l0,0.1l0,0.1l0,0.1l0,0.1l0,0.1l0,0.1v0.1v0l0,0v0v0l0,0.1l0,0.1l0,0l0,0l0,0v0l0,0l0,0l0,0l0,0
			l0,0l0,0l0,0l0,0l0,0l0,0l0,0l0,0l0,0l0,0l0,0l0,0l0,0l0,0l0,0l0,0l0,0l0,0l0,0l0,0l0,0l0,0l0,0l0,0l0,0l0,0l0,0l0,0l0,0l0,0l0,0
			l0,0l0,0l0.1-0.1l0.1-0.1l0,0l0.1-0.1l0.1-0.1l0.1-0.1l0.1-0.1l0.1-0.1l0.1-0.1l0.1-0.1l0.1-0.1l0-0.1l0-0.1l0.1-0.2l0.1-0.1
			l0-0.1l0-0.1l0-0.1l0-0.1l0,0l0-0.1l0-0.1l0-0.1l0-0.1l0-0.1l0-0.1l0-0.1l0-0.1l0-0.1l0-0.1l0-0.1l0-0.1l0-0.1l0-0.1l0.1-0.3
			l0.1-0.3l0-0.2l0,0l0-0.3l0-0.3l0-0.3l0-0.3l0-0.3l0-0.3l0-0.3l0.1-0.5l0-0.2l0-0.3l0.1-0.5l0-0.3l0-0.3l0-0.3l0-0.2l0,0l0.1-0.3
			l0.1-0.3l0.1-0.2l0.1-0.2l0.2-0.1l0.1,0.2l0,0.3l0,0.3l0,0.3l0,0.3l0,0l0,0.2l0,0.3l0,0.3l0,0.3l-0.1,0.5l0,0.3l0,0.2l-0.1,0.5
			l0,0.3l0,0.3l0,0.3l0,0.3l0,0.3l0,0.3l0,0.3l0,0l0,0.2l-0.1,0.3l-0.1,0.3l0,0.1l0,0.1l0,0.1l0,0.1l0,0.1l0,0.1l0,0.1l0,0.1l0,0.1
			l0,0.1l0,0.1l0,0.1l0,0.1l0,0.1l0,0l0,0.1l0,0.1l0,0.1l-0.1,0.1l-0.1,0.1l-0.1,0.2l0,0.1l-0.1,0.1l-0.1,0.1l-0.1,0.1l-0.1,0.1
			l-0.1,0.1l-0.1,0.1l-0.1,0.1l-0.1,0.1l-0.1,0.1l0,0l-0.1,0.1l-0.1,0.1l0,0l0,0l0,0l0,0l0,0l0,0l0,0l0,0l0,0l0,0l0,0l0,0l0,0l0,0
			l0,0l0,0l-0.1,0l-0.1,0l-0.1,0l-0.1,0l-0.1,0l-0.1,0l-0.1,0l-0.1,0l-0.1,0l0,0l0,0l0,0l0,0l0,0l0,0l0,0l0,0l0,0l0,0l0,0l0,0l0,0
			l0,0l0-0.1l0-0.1l0,0v-0.1l0-0.1l0-0.1l0-0.1l0-0.1l0-0.1l0-0.1l0-0.1l0-0.1l0-0.2l0-0.2l0-0.2l0.1-0.3l0-0.1l0-0.1l0-0.2l0-0.2
			l0,0l0-0.2l0-0.2l0-0.2l0.1-0.2l0.1-0.2l0.1-0.2l0.1-0.2l0.1-0.2l0.1-0.2l0.1-0.2l0.1-0.2l0.1-0.2l0-0.1l0.1-0.2l0.1-0.2l0.1-0.5
			l0.1-0.5l0.1-0.5l0.1-0.5l0.1-0.3l0.1-0.1l0.2-0.5l0.2-0.5l0.2-0.5l0.2-0.1l0.1,0.2L329,238.5z M327.1,247.7L327.1,247.7
			L327.1,247.7L327.1,247.7L327.1,247.7L327.1,247.7L327.1,247.7L327.1,247.7L327.1,247.7L327.1,247.7L327.1,247.7L327.1,247.7
			L327.1,247.7L327.1,247.7L327.1,247.7L327.1,247.7L327.1,247.7L327.1,247.7L327.1,247.7L327.1,247.7L327.1,247.7L327.1,247.7
			L327.1,247.7L327.1,247.7z M327.1,247.7L327.1,247.7L327.1,247.7L327.1,247.7L327.1,247.7L327.1,247.7L327.1,247.7L327.1,247.7
			L327.1,247.7z M327.1,247.7L327.1,247.7L327.1,247.7L327.1,247.7z M327.1,247.7L327.1,247.7L327.1,247.7L327.1,247.7L327.1,247.7z
			 M327.1,247.7L327.1,247.7L327.1,247.7L327.1,247.7L327.1,247.7z M327.1,247.7L327.1,247.7L327.1,247.7L327.1,247.7z M327.1,247.7
			L327.1,247.7L327.1,247.7L327.1,247.7L327.1,247.7z M327.1,247.7L327.1,247.7L327.1,247.7L327.1,247.7z M327.1,247.7L327.1,247.7
			L327.1,247.7L327.1,247.7L327.1,247.7z M327.1,247.7L327.1,247.7L327.1,247.7L327.1,247.7z M327.1,247.7L327.1,247.7L327.1,247.7
			L327.1,247.7z"/>
		<path class="st9" d="M346.2,235.5l0.1,0.1l0,0.1l0.1,0.2l0.1,0.2l0.1,0.2l0.1,0.2l0,0l0.1,0.2l0.1,0.2l0.2,0.4l0.2,0.4l0,0.1
			l0.1,0.3l0.2,0.4l0.2,0.4l0.1,0.3l0.1,0.1l0.2,0.4l0.2,0.4l0.1,0.3l0,0.1l0.2,0.4l0.2,0.4l0.2,0.4l0,0l0,0.1l0,0.1l0.1,0.1
			l0.1,0.1l0.1,0.1l0.1,0.1l0.1,0.1l0,0.1l0,0l0-0.1l0-0.1l0,0l0,0l0-0.1l0-0.1l0-0.1l0-0.1l0-0.2l0-0.2l0-0.2l0-0.1l0-0.2l0-0.1
			l0-0.1l0,0l0-0.1l0-0.1l0-0.1l0-0.1l0-0.1l0-0.1l0-0.1l0-0.1l0-0.1l0-0.1l0-0.1l0-0.1l-0.1-0.2l-0.1-0.2l-0.1-0.2l-0.1-0.2
			l-0.1-0.2l-0.1-0.2l-0.1-0.2l-0.1-0.2l0,0l-0.1-0.1l-0.2-0.4l-0.2-0.4l-0.2-0.4l-0.1-0.2l-0.1-0.2l-0.1-0.2l-0.1-0.2l-0.1-0.2l0,0
			l-0.1-0.2l-0.1-0.2l-0.1-0.2l-0.1-0.2l0,0l0-0.1l0-0.1l0-0.2l0.1,0.1l0.1,0.1l0.1,0.1l0,0l0.1,0.2l0.1,0.2l0.1,0.2l0.1,0.1l0,0
			l0.1,0.2l0.1,0.2l0.1,0.2l0.1,0.2l0.1,0.2l0.2,0.4l0.2,0.4l0.2,0.4l0.1,0.1l0,0l0.1,0.2l0.1,0.2l0.1,0.2l0.1,0.2l0.1,0.2l0.1,0.2
			l0.1,0.2l0.1,0.2l0,0.1l0,0.1l0,0.1l0,0.1l0,0.1l0,0.1l0,0.1l0,0.1l0,0.1l0,0.1l0,0.1l0,0.1l0,0l0,0.1l0,0.1l0,0.2l0,0.1l0,0.2
			l0,0.2l0,0.2l0,0.1l0,0.1l0,0.1l0,0.1l0,0.1l0,0.1l0,0.1l0,0.1l0,0.1l0,0.1l0,0.1v0.1l0,0.1l0,0.1l0,0.1l0,0l0,0l0,0l0,0l0,0l0,0
			l0,0l0,0l0,0l0,0l0,0l-0.1,0l-0.1,0l-0.1,0l-0.1,0l-0.1,0l-0.1,0l-0.1,0l-0.1,0l0,0l0,0l0,0l0,0l-0.1-0.1l-0.1-0.1l-0.1-0.1l0-0.1
			l0,0l-0.1-0.1l-0.1-0.1l-0.1-0.1l-0.1-0.1l-0.1-0.1l-0.1-0.1l-0.1-0.1l-0.1-0.2l-0.1-0.2l-0.1-0.1l-0.1-0.1l-0.1-0.1l-0.1-0.1
			l0-0.1l0,0l-0.2-0.4l-0.2-0.4l-0.2-0.4l-0.1-0.1l-0.1-0.3l-0.2-0.4l-0.2-0.4l-0.1-0.1l-0.1-0.3l-0.2-0.4l-0.2-0.4l-0.1-0.3l0-0.1
			l-0.1-0.4l-0.1-0.4L346,237l-0.1-0.2l0,0l-0.1-0.2l-0.1-0.2l-0.1-0.2l-0.1-0.2l0-0.1l0-0.2l0-0.2l0.1-0.2l0.2,0.1L346.2,235.5z
			 M349.4,243.1L349.4,243.1L349.4,243.1L349.4,243.1L349.4,243.1L349.4,243.1L349.4,243.1L349.4,243.1L349.4,243.1L349.4,243.1
			L349.4,243.1z M349.4,243L349.4,243L349.4,243L349.4,243z M349.4,243L349.4,243L349.4,243L349.4,243z"/>
		<path class="st9" d="M346.7,255.3L346.7,255.3l-0.2,0.2l-0.1,0.1l-0.1,0.1l-0.2,0.1l-0.3,0.2l0,0l-0.4,0.3l-0.4,0.3l-0.3,0.2
			l-0.1,0.1l-0.4,0.3l-0.5,0.3l-0.5,0.3l-0.5,0.3l-0.4,0.3l-0.1,0l-0.4,0.3l-0.2,0.2l-0.2,0.2l-0.2,0.1l-0.2,0.1l-0.2,0.1l-0.2,0.1
			l-0.2,0.1l-0.1,0.1l0,0l0,0l0,0l0,0l0,0l0,0l0,0l0,0l0,0.1l0,0.1l0,0l0,0l0,0.1l0,0.1l0,0.1l0,0.2l0,0.2l0,0.2l0,0.2l0,0.2l0,0.2
			l0,0.2l0,0.2l0,0.2l0,0.2l0,0.3l-0.1,0.5l-0.1,0.5l-0.1,0.5l0,0.3l-0.1,0.2l-0.1,0.2l-0.1,0.2l0,0.1l0,0.1l-0.1,0.2l-0.1,0.2
			l0,0.1l0,0.1l-0.2,0.1l-0.1-0.2l0-0.1l0-0.1l0-0.2l0-0.2l0-0.1l0-0.1l0-0.2l0-0.2l0-0.2l0-0.3l0.1-0.5l0.1-0.5l0.1-0.5l0-0.3
			l0-0.2l0-0.2l0-0.2l0-0.2l0-0.2l0-0.2l0-0.2l0-0.2l0-0.2l0-0.2l0-0.1l0-0.1l0-0.1l0,0l0,0l0-0.1l0-0.1l0-0.1l0-0.1l0-0.1l0-0.1
			l0-0.1l0-0.1l0,0l0,0l0,0l0.2-0.1l0.2-0.1l0.2-0.1l0.2-0.1l0.2-0.1l0.2-0.1l0.2-0.1l0.2-0.1l0.5-0.3l0.1,0l0.4-0.2l0.5-0.3
			l0.5-0.3l0.5-0.3l0.5-0.3l0.1-0.1l0.3-0.2l0.4-0.2l0.4-0.2l0,0l0.3-0.2l0.2-0.1l0.2-0.1l0.1-0.1L346.7,255.3L346.7,255.3z"/>
	</g>
	<g transform="matrix(1.05026,0,0,1.05026,-45.5066,1.03408)">
		<g transform="matrix(0.935359,1.16784,-1.19955,1.04604,295.876,-595.869)">
			<g transform="matrix(-0.645522,1.07814,1.04707,0.598855,245.397,-46.3748)">
				<path class="st10" d="M128.1,270.5c-0.9-0.3-14.1-4.7-15.5-2c-2.4,4.2-4.5,5.6,6.2,8.6c4.6,1.3,13.9,2.1,15.8,1.9
					c3.1-0.4-1.1-20.6-2-25.8c-0.4-2.2-1.6-7.1-3.5-5.8C126.5,249,129.8,271.1,128.1,270.5z"/>
			</g>
			<g transform="matrix(-0.278164,-0.225386,-0.249796,0.311582,485.876,275.397)">
				<path class="st1" d="M133.8,7.6c0,0,7.1-12.8,16.8-28.6c5.6-9-32.8-36.9-32.8-36.9S99.3-15.2,99.5-15.1
					C109.4-1.1,133.8,7.6,133.8,7.6z"/>
			</g>
			<g transform="matrix(0.647264,0.308637,-0.378285,0.602354,428.901,152.75)">
				<path class="st10" d="M51.4,113.5c0,0-2.8-3.7-2.6-4.5c0.3-0.9,2.9,1.6,8.1,5.3c2,1.4,5.9,2.2,6.2,2.3c4.7,2-0.3,5.9-2.5,5.6
					c-4.7-0.8-8.7-1.4-9.8-1.5c-1.7-0.2-3.4,0-5.1,0.1c-1.5,0.2-5.6,1.1-5.5,0.7c0.1-0.4,0.6-0.7,0.9-0.8c1.4-0.6,2.7-1.2,4.2-1.6
					c0.5-0.1,1-0.2,1.5-0.3c0.3-0.1,0.7-0.2,0.7-0.2s-0.5,0-0.8,0c-0.5,0-1,0.1-1.5,0.1c-1.5,0-5.7,0.8-6.3,0.6
					c-0.2,0-0.6,0-0.5-0.4c0.1-0.5,3.1-1.3,3.9-1.5c1.7-0.3,3.6-0.8,4.1-0.9c0.1,0,0.5-0.1,0.5-0.1c0.1-0.1-0.4-0.1-0.4-0.1
					c-0.4-0.1-8.3-0.2-8.2-0.4c0.3-0.5,1.2-0.7,1.8-0.9c1.7-0.4,3.4-0.4,5.2-0.4c0.6,0,1.2,0,1.8,0c0.1,0,0.6,0.1,0.7,0
					c0-0.1-0.4,0-0.4,0c-0.3-0.1-0.8-0.1-1.2-0.1c-1.3-0.3-2.9-0.4-4.2-0.5c-0.5,0-2.1,0-2.1-0.3c-0.1-0.7,5.7-0.8,6.8-0.7
					C49.2,113.3,50.8,113.2,51.4,113.5z"/>
			</g>
		</g>
		<g transform="matrix(0.472255,0.217752,-0.214478,0.486161,344.161,204.393)">
			<path class="st11" d="M217.9-52.2c0,0-16.3-51-17.2-54.8c-3.5-14.7-7-27.6-16.2-31.1c-5.1-1.9-11.4-4.7-18.5-5
				c-3.8-0.2-18.6,5.6-25,13.6c-4.3,5.3-3,22.3-1.4,33.2c2.1,13.8,13.7,49.8,13.7,49.8C163.4-34.6,212.8-40.9,217.9-52.2"/>
		</g>
		<g transform="matrix(-0.553265,-0.0855294,-0.0895131,0.57839,385.225,110.614)">
			<path class="st10" d="M-109.5,450.9c-0.8,4.2-0.9,18.6,0.3,21.3c1.6,3.7,15.6,3.3,16.6,1.1c1.4-3.1-6-5.7-6-12.7
				c0-4.3-0.6-9.9-2.4-14c-1.8-4.2-6.2-2.5-7.5,1.2L-109.5,450.9z"/>
		</g>
		<g transform="matrix(0.779951,-0.0221853,0.0212758,0.799248,262.244,13.9636)">
			<path class="st10" d="M270.9,463.1c-1.8-4.2-10.5,2.5-10.5,2.5c-0.8,4.2,2.3,9.8,3.4,13.7c0.3,0.9-1.3,4.8,0.4,6.5
				c3.6,3.7,11.7,5.8,11,4.3c-2-4.3-2.9-10.4-3.4-13.5C271.3,472.4,272.6,467.2,270.9,463.1z"/>
		</g>
		<g transform="matrix(-1.42757,-0.0753668,-0.122769,1.28577,473.778,83.8423)">
			<path class="st1" d="M-29.3,237.4c0,0-1,3.2-9.2,4.5c-0.6,0.1-1.1,0.2-1.7,0.2c-0.3,0.7-0.5,1.4-0.7,2.1c0.5,0.7,1.9,0.7,2.7,0.8
				c2.7,0.3,5.5,0.5,8.1-0.5c2.2-0.8,4.9,0.4,7.1-0.2c0.2-0.7,0.5-1.4,0.6-2.1c0.1-0.9-0.2-1.8-0.3-2.7c-0.1-0.9-1.2-0.7-1.7-0.4
				c-0.5,0.3-0.8,0.7-1.4,0.8c-0.8,0.2-1.5-0.2-2.2-0.2c-0.5,0-1,0.2-1.5,0.4c0.5-0.6,1.2-1.1,1.4-1.9c0-0.1,0.2-0.6,0.1-0.7
				C-28.4,237.5-29,237.6-29.3,237.4z"/>
			<g>
				<defs>
					<path id="SVGID_5_" d="M-29.3,237.4c0,0-1,3.2-9.2,4.5c-0.6,0.1-1.1,0.2-1.7,0.2c-0.3,0.7-0.5,1.4-0.7,2.1
						c0.5,0.7,1.9,0.7,2.7,0.8c2.7,0.3,5.5,0.5,8.1-0.5c2.2-0.8,4.9,0.4,7.1-0.2c0.2-0.7,0.5-1.4,0.6-2.1c0.1-0.9-0.2-1.8-0.3-2.7
						c-0.1-0.9-1.2-0.7-1.7-0.4c-0.5,0.3-0.8,0.7-1.4,0.8c-0.8,0.2-1.5-0.2-2.2-0.2c-0.5,0-1,0.2-1.5,0.4c0.5-0.6,1.2-1.1,1.4-1.9
						c0-0.1,0.2-0.6,0.1-0.7C-28.4,237.5-29,237.6-29.3,237.4z"/>
				</defs>
				<clipPath id="SVGID_6_">
					<use xlink:href="#SVGID_5_"  style="overflow:visible;"/>
				</clipPath>
				<g class="st12">
					<path class="st13" d="M-28.3,241.1L-28.3,241.1l-0.2,0l-0.1,0l-0.1,0l0,0l0,0l-0.1,0l-0.1,0l-0.1,0l-0.1,0l-0.1,0l-0.1,0
						l-0.1,0l-0.1,0l-0.1,0l-0.1,0l-0.1,0l-0.1,0l0,0l-0.1,0l-0.1,0l-0.1,0l-0.1,0l-0.1,0l-0.1,0l-0.1,0l-0.1,0.1l-0.1,0.1l-0.1,0.1
						l-0.1,0.1l-0.1,0.1l-0.1,0.1l0,0l-0.1,0.1l-0.1,0.1l-0.1,0.1l-0.1,0.1l-0.2,0.1l-0.2,0.1l-0.2,0.1l-0.1,0.1l-0.1,0.1l-0.1,0.1
						l-0.1,0l-0.1,0l-0.1,0l-0.2,0.1l-0.2,0.1l0,0l-0.5,0.2l-0.4,0.2l-0.4,0.2l-0.4,0.2l-0.2,0.1l-0.2,0.1l-0.2,0.1l-0.2,0.1
						l-0.2,0.1l-0.2,0.1l-0.2,0.1l-0.2,0.1l-0.2,0.1l-0.1,0.1l-0.1,0l-0.2,0.1l-0.2,0.1l-0.2,0.1l-0.2,0.1l-0.1,0l-0.1,0l-0.1,0
						l-0.1,0l-0.1,0l-0.1,0l-0.1,0l-0.1,0l-0.1,0l-0.1,0l-0.1,0l-0.1,0l-0.1,0l-0.1,0l-0.1,0l-0.1,0l-0.1,0.2l0.1,0.1l0.1,0l0.1,0
						l0.1,0l0.1,0l0.1,0l0.1,0l0.1,0l0.1,0l0.1,0l0.1,0l0.1,0l0.1,0l0.1,0l0.1,0l0.1,0l0.1,0l0.2-0.1l0.2-0.1l0.2-0.1l0.2-0.1l0.1,0
						l0.2-0.1l0.2-0.1l0.2-0.1l0.2-0.1l0.2-0.1l0.2-0.1l0.2-0.1l0.2-0.1l0.2-0.1l0.2-0.1l0.4-0.2l0.4-0.2l0.5-0.2l0.5-0.2l0,0
						l0.2-0.1l0.2-0.1l0.1,0l0.1,0l0.1,0l0.1,0l0.1,0l0.1,0l0.2-0.1l0.2-0.1l0.2-0.1l0.1,0l0.1,0l0.1,0l0.1,0l0,0l0.1,0l0.1,0l0.1,0
						l0.1,0l0.1,0l0.1,0l0,0l0,0l0,0l0,0l0,0l0,0l0,0h0l0,0l0,0h0h0h0l0,0l0,0l0,0l0,0l0,0l0,0l0,0l0,0l0,0l0.1,0l0.1,0l0.1,0l0.1,0
						l0.1,0l0.1,0l0,0l0,0l0.1,0l0.1,0l0.1,0l0.1,0l0.1,0l0.1,0l0.1,0l0.1,0l0.1,0l0.1,0l0.1,0l0.1,0l0.1,0l0.1,0l0.1,0l0.1,0l0.1,0
						l0.1,0l0,0l0,0l0.1,0.1l0.1,0.1l0.1,0.1l0.1,0.1l0.1,0.1l0.1,0.1l0.1,0.1l0.1,0.1l0.1,0.1l0.1,0.1l0.1,0.1l0,0l0.1,0l0.1,0.1
						l0.1,0.1l0.1,0.1l0.2,0.1l0.2,0.1l0,0l0,0l0,0l0,0l0,0l0,0l0,0l0,0l0.1,0l0.1,0l0.1,0l0.1,0l0.1,0l0.1,0l0.1,0l0.1,0l0.1,0
						l0.1,0l0.2,0l0.2,0.1l0.2,0l0.3-0.2l0.1,0l0.1-0.1l-0.1-0.1l-0.1,0l-0.1-0.3l-0.1-0.1l-0.2-0.1l-0.2-0.1l-0.1,0l-0.1,0l-0.1,0
						l-0.1,0l-0.1,0l-0.1,0l-0.1,0l-0.1,0l-0.1,0l-0.1,0l0,0l0,0l0,0l0,0l0,0l0,0l0,0l0,0l-0.2-0.2l-0.2-0.2l-0.1-0.1l-0.1-0.1
						l-0.1-0.1l-0.1-0.1l0,0l-0.1-0.1l-0.1-0.1l-0.1-0.1l-0.1-0.1l-0.1-0.1L-26,242l-0.1-0.1l-0.1-0.1l-0.1-0.1l-0.1-0.1l-0.1-0.1
						l-0.1,0l0,0l-0.1,0l-0.1,0l-0.1,0l-0.1,0l-0.1,0l-0.1,0l-0.1,0l-0.1,0l-0.1,0l-0.1,0l-0.1,0l-0.1,0l-0.1,0l-0.1,0l-0.1,0
						l-0.1,0l-0.1,0l-0.1,0l0,0l0,0L-28.3,241.1L-28.3,241.1z"/>
				</g>
			</g>
		</g>
		<g transform="matrix(1.56672,-0.023695,0.0191575,1.28096,180.436,77.8405)">
			<path class="st1" d="M135,243.4c0,0-1,3.2-9.2,4.5c-0.6,0.1-1.1,0.2-1.7,0.2c-0.3,0.7-0.5,1.4-0.7,2.1c0.5,0.7,1.9,0.7,2.7,0.8
				c2.7,0.3,5.5,0.5,8.1-0.5c2.2-0.8,4.9,0.4,7.1-0.2c0.2-0.7,0.5-1.4,0.6-2.1c0.1-0.9-0.2-1.8-0.3-2.7c-0.1-0.9-1.2-0.7-1.7-0.4
				c-0.5,0.3-0.8,0.7-1.4,0.8c-0.8,0.2-1.5-0.2-2.2-0.2c-0.5,0-1,0.2-1.5,0.4c0.5-0.6,1.2-1.1,1.4-1.9c0-0.1,0.2-0.6,0.1-0.7
				C135.9,243.4,135.3,243.5,135,243.4z"/>
			<g>
				<defs>
					<path id="SVGID_7_" d="M135,243.4c0,0-1,3.2-9.2,4.5c-0.6,0.1-1.1,0.2-1.7,0.2c-0.3,0.7-0.5,1.4-0.7,2.1
						c0.5,0.7,1.9,0.7,2.7,0.8c2.7,0.3,5.5,0.5,8.1-0.5c2.2-0.8,4.9,0.4,7.1-0.2c0.2-0.7,0.5-1.4,0.6-2.1c0.1-0.9-0.2-1.8-0.3-2.7
						c-0.1-0.9-1.2-0.7-1.7-0.4c-0.5,0.3-0.8,0.7-1.4,0.8c-0.8,0.2-1.5-0.2-2.2-0.2c-0.5,0-1,0.2-1.5,0.4c0.5-0.6,1.2-1.1,1.4-1.9
						c0-0.1,0.2-0.6,0.1-0.7C135.9,243.4,135.3,243.5,135,243.4z"/>
				</defs>
				<clipPath id="SVGID_8_">
					<use xlink:href="#SVGID_7_"  style="overflow:visible;"/>
				</clipPath>
				<g class="st14">
					<path class="st13" d="M135.9,247L135.9,247L135.9,247l0.2,0l0.1,0l0.1,0l0.1,0l0.1,0l0.1,0l0.1,0l0.1,0l0.1,0l0.1,0l0.1,0
						l0.1,0l0.1,0l0.1,0l0.1,0l0.1,0l0.1,0l0.1,0l0,0l0,0l0.1,0l0.1,0l0.1,0.1l0.1,0.1l0.1,0.1l0.1,0.1l0.1,0.1l0.1,0.1l0.1,0.1
						l0.1,0.1l0.1,0.1l0.1,0.1l0.1,0.1l0,0l0.1,0.1l0.1,0.1l0.1,0.1l0.1,0.1l0.2,0.2l0.2,0.2l0,0l0,0l0,0l0,0l0,0l0,0l0,0l0,0l0.1,0
						l0.1,0l0.1,0l0.1,0l0.1,0l0.1,0l0.1,0l0.1,0l0.1,0l0.1,0l0.2,0.1l0.2,0.1l0.1,0.1l0.2,0.3l0.1,0l0.1,0.1l-0.1,0.1l-0.1,0
						l-0.3,0.2l-0.2,0l-0.2-0.1l-0.2,0l-0.1,0l-0.1,0l-0.1,0l-0.1,0l-0.1,0l-0.1,0l-0.1,0l-0.1,0l-0.1,0l-0.1,0l0,0l0,0l0,0l0,0l0,0
						l0,0l0,0l0,0l-0.2-0.1l-0.2-0.1l-0.1-0.1l-0.1-0.1l-0.1-0.1l-0.1-0.1l0,0l-0.1-0.1l-0.1-0.1l-0.1-0.1l-0.1-0.1l-0.1-0.1
						l-0.1-0.1l-0.1-0.1l-0.1-0.1l-0.1-0.1l-0.1-0.1l-0.1-0.1l-0.1,0l-0.1,0l0,0l0,0l-0.1,0l-0.1,0l-0.1,0l-0.1,0l-0.1,0l-0.1,0
						l-0.1,0l-0.1,0l-0.1,0l-0.1,0l-0.1,0l-0.1,0l-0.1,0l-0.1,0l-0.1,0l-0.1,0l-0.1,0l-0.1,0l0,0l0,0l-0.1,0l-0.1,0l-0.1,0l-0.1,0
						l0,0l0,0l0,0h0l0,0l0,0l0,0l0,0l0,0h0h0l0,0l0,0l0,0l0,0l0,0l0,0l0,0l0,0l0,0l0,0l0,0l-0.1,0l-0.1,0l-0.1,0l-0.1,0l-0.1,0
						l-0.1,0l-0.1,0l0,0l-0.1,0l-0.1,0l-0.1,0l-0.2,0.1l-0.2,0.1l-0.2,0.1l-0.1,0l-0.1,0l-0.1,0l-0.1,0l-0.1,0l-0.1,0l-0.2,0.1
						l-0.2,0.1l-0.1,0l-0.4,0.2l-0.9,0.4l-0.4,0.2l-0.2,0.1l-0.2,0.1l-0.2,0.1l-0.2,0.1l-0.2,0.1l-0.2,0.1l-0.2,0.1l-0.2,0.1
						l-0.2,0.1l-0.2,0.1l0,0l-0.2,0.1l-0.2,0.1l-0.2,0.1l-0.2,0.1l-0.1,0l-0.1,0l-0.1,0l-0.1,0l-0.1,0l-0.1,0l-0.1,0l-0.1,0l-0.1,0
						l-0.1,0l-0.1,0l-0.1,0l-0.1,0l-0.1,0l-0.1,0l-0.1,0l-0.1-0.1l0.1-0.2l0.1,0l0.1,0l0.1,0l0.1,0l0.1,0l0.1,0l0.1,0l0.1,0l0.1,0
						l0.1,0l0.1,0l0.1,0l0.1,0l0.1,0l0.1,0l0.1,0l0.2-0.1l0.2-0.1l0.2-0.1l0.2-0.1l0,0l0.2-0.1l0.2-0.1l0.2-0.1l0.2-0.1l0.2-0.1
						l0.2-0.1l0.2-0.1l0.2-0.1l0.2-0.1l0.2-0.1l0.4-0.2l0.9-0.4l0.4-0.2l0.1,0l0.2-0.1l0.2-0.1l0.1,0l0.1,0l0.1-0.1l0.1-0.1l0.1-0.1
						l0.1-0.1l0.2-0.1l0.2-0.1l0.2-0.1l0.1-0.1l0.1-0.1l0.1-0.1l0,0l0.1-0.1l0.1-0.1l0.1-0.1l0.1-0.1l0.1-0.1l0.1-0.1l0.1-0.1l0.1,0
						l0.1,0l0.1,0l0.1,0l0,0l0,0l0.1,0l0.1,0l0.1,0l0.1,0l0.1,0l0.1,0l0.1,0l0.1,0l0.1,0l0.1,0l0.1,0l0.1,0h0l0.1,0l0.1,0l0.1,0
						l0.1,0l0.1,0L135.9,247L135.9,247z"/>
				</g>
			</g>
		</g>
		<g transform="matrix(0.753558,0.0898139,-0.0913687,0.774408,54.2684,15.874)">
			<path class="st15" d="M512,327.5L512,327.5c0,0-3.2-41.9-4.3-55.9c-0.9-12,5.7-69.5,21.7-56.8c18.4,14.6,27.3,31.4,20.1,59.3
				c-2.5,9.9-10.6,47.7-13.8,62.7c5.4,10.5,4.7,23.7-1,32.7c0,0-17,47.5-18.4,49.2c-2.3,2.8-9.3-1-9.3-1
				C505.1,416.7,512,328.2,512,327.5z"/>
		</g>
		<g transform="matrix(0.74609,-0.129712,0.155358,0.766149,-6.23896,104.861)">
			<path class="st15" d="M544.7,373.3L544.7,373.3c0,0-11.5-40.4-15.4-53.9c-3.3-11.5-8.3-69.2,9.9-60c20.9,10.6,33,25.4,31.6,54
				c-0.5,9.2-0.8,41.6-1,59.1c6.9,32.1-6.4,86.7-7.2,89c-1.3,3.8-12.3,2.5-13.5-0.5c0,0-8.2-45.5-8.9-60.2
				C539.8,391.6,544.7,373.3,544.7,373.3z"/>
		</g>
		<g transform="matrix(0.74609,-0.129712,0.155358,0.766149,-6.23896,104.861)">
			<path class="st16" d="M556.2,283L556.2,283L556.2,283L556.2,283L556.2,283L556.2,283L556.2,283L556.2,283L556.2,283L556.2,283
				L556.2,283L556.2,283L556.2,283L556.2,283L556.2,283L556.2,283l0,0.1l0,0l0,0l0,0l0,0l0,0l0,0.1l0,0.1l0,0.1l0.1,0.1l0,0l0.1,0.1
				l0.1,0.1l0.1,0.1l0.2,0.3l0.1,0.2l0.1,0.1l0,0.1l0.1,0.1l0.1,0.1l0.1,0.1l0.1,0.1l0.1,0.2l0.1,0.2l0.1,0.2l0.1,0.2l0.1,0.2l0,0.1
				l0.1,0.2l0.1,0.2l0.1,0.1l0.1,0.1l0.1,0.1l0.1,0.1l0.1,0.1l0.1,0.1l0.1,0.1l0,0.1l0,0.1l0,0.1l0,0.1l0,0.1l0,0.1l0,0.1l0.2,0.8
				l0.2,0.8l0.2,0.8l0.1,0.8l0.1,0.4l0.1,0.4l0.1,0.4l0.1,0.4l0.1,0.4l0.1,0.4l0.1,0.4l0.1,0.4l0.1,0.4l0.1,0.4l0.1,0.4l0,0.4l0,0.4
				l0,0.4l0,0.4l0,0.4l0,0.4l0,0.4l0,0.4l0,0.4l0,0.4l0,0.4l0,0.4l0,0.4l0,0.6l0,0.6v0.6l0,0.6l0,0.6l0,0.6l0,0.6l0,0.6l0,0.5l0,0.1
				l0,0.6l0,1.2l0,1.2l0,1.2l0,1.2l0,1.2l0,1.2l0,1.2l0,1.2l-0.1,1.2l-0.1,2.5l-0.1,2.5l0,1.2l0,1.2l0,1.2l0,1.2l0,0.9l0,0.4l0,1.2
				l0,1.2l0,1.2l0,1.2l0,0.6l0,0.6l0,0.6l0,0.6l0,0.6l0,0.6l0,0.6l0,0.6l0,0.6l0,0.6l0,0.4l0,0.4l0,0.5l0,0.5l0,0.5l0,0.1l0,0.4
				l0,0.5l0,0.5l0,0.5l0,0.5l0,0.5l0,0.5l0.1,0.5l0.1,0.5l0.1,0.5l0.1,0.6l0.1,0.6l0.1,0.6l0.1,0.6l0.1,0.6l0.1,0.6l0.1,0.6l0.1,0.6
				l0.1,0.6l0.1,0.6l0.1,0.6l0.1,0.6l0.1,0.6l0.1,0.6l0.1,0.6l0.1,0.5l0,0.1l0.1,0.6l0.1,0.6l0.1,0.6l0.1,0.6l0.1,0.6l0.1,0.6
				l0.1,0.6l0.1,0.6l0.1,0.6l0.1,0.6l0.1,0.6l0.1,0.6l0.1,0.6l0.1,0.6l0.1,0.6l0.1,0.6l0.1,0.6l0.1,0.6l0.1,0.5l0.1,0.5l0.1,0.5
				l0.1,0.5l0.1,0.5l0.1,0.5l0.1,0.5l0.1,0.5l0.1,0.5l0.1,0.5l0.1,0.5l0.1,0.5l0.1,0.5l0.1,0.4l0.1,0.4l0.1,0.2l0.1,0.3l0.1,0.3
				l0.1,0.3l0.1,0.3l0.1,0.3l0.1,0.3l0.1,0.3l0,0.2l0,0.1l0,0.3l0,0.4l0,0.4l0,0.4l0,0.4l0,0.4l0,0.4l0,0.4l0,0.4l0,0.4l0,0.4l0,0.4
				l0,0.5l0,0.5l0,0.5l0,0.5l0,0.5l0,0.5l0,0.5l0,0.5l0,0.5l0,0.5l0,0.5l0,0.5l0,0.5l0,0.6l0,0.6l0,0.6l0,0.6l0,0.6l0,0.6l0,0.6
				l0,0.6l0,0.6l0,0.6v0.6l0,0.6l0,0.6l0,0.6l0,0.6l0,0.6l0,0.6l0,0.6l0,0.3l0,0.3l0,0.6l0,0.6l0,0.6l0,1.3l0,1.3l0,0.7l0,0.7l0,0.7
				l0,0.7l0,0.7l0,0.7l0,0.7l0,0.7l0,0.7l0,0.7l0,0.7l0,0.7l0,0.7l0,0.7l0,0.7l0,0.7l0,0.7l0,0.7l0,0.7l0,0.7l0,0.7l0,0.7l-0.1,0.7
				l-0.1,0.7l-0.1,0.6l-0.1,0.6l-0.1,0.6l-0.1,0.6l-0.1,0.6l-0.1,0.6l0,0.4l0,0.3l-0.1,0.6L565,427l-0.1,0.6l-0.1,0.6l-0.1,0.6
				l-0.1,0.6l-0.1,0.6l-0.1,0.6l-0.1,0.6l-0.1,0.6l-0.1,0.6l-0.1,0.6l-0.1,0.6l-0.1,0.6l-0.1,0.6l-0.1,0.6l-0.1,0.5l-0.1,0.5
				l-0.1,0.5l-0.1,0.5l-0.1,0.5l-0.1,0.4l0,0.1l-0.1,0.5l-0.1,0.5l-0.1,0.5l-0.1,0.5l-0.1,0.5l-0.1,0.5l-0.1,0.5l-0.1,0.4l-0.1,0.4
				l-0.1,0.4l-0.1,0.4l-0.1,0.4l-0.1,0.4l-0.1,0.4l-0.1,0.4l-0.1,0.2l-0.1,0.2l-0.1,0.2l-0.1,0.2l-0.1,0.2l-0.1,0.2l-0.1,0.2l0,0
				l-0.1,0.2l-0.1,0.2l-0.1,0.2l-0.1,0.2l-0.1,0.2l0,0.2l0,0.2l0,0.2l0,0.2l0,0.2l0,0.2l0,0.2l0,0.2l0,0.2l0,0.2l-0.1,0.5l-0.1,0.5
				l-0.1,0.5l-0.1,0.5l-0.1,0.5l-0.1,0.5l0,0.5l0,0.5l0,0.1l0,0.4l-0.1,1l-0.1,1l-0.1,0.5l-0.1,0.5l-0.1,0.5l-0.1,0.5l-0.1,0.5
				l-0.1,0.5l-0.1,0.5l-0.1,0.5l-0.1,0.1l-0.1-0.1l0-0.5l0-0.5l0-0.5l0-0.5l0-0.5l0-0.5l0-0.5l0-0.5l0-1l0-1l0-0.4l0-0.1l0-0.5
				l0-0.5l0-0.5l0-0.5l0-0.5l0-0.5l0-0.5l0.1-0.5l0-0.3l0-0.3l0-0.3l0-0.3l0-0.3l0-0.3l0-0.3l0-0.2l0-0.2l0-0.2l0-0.2l0-0.2l0-0.2
				l0-0.2l0-0.2l0,0l0.1-0.2l0.1-0.2l0.1-0.2l0.1-0.2l0.1-0.2l0.1-0.2l0.1-0.2l0.1-0.4l0.1-0.4l0.1-0.4l0.1-0.4l0.1-0.4l0.1-0.4
				l0.1-0.4l0.1-0.4l0.1-0.5l0.1-0.5l0.1-0.5l0.1-0.5l0.1-0.5l0.1-0.5l0.1-0.5l0-0.1l0.1-0.4l0.1-0.5l0.1-0.5l0.1-0.5l0.1-0.5
				l0.1-0.5l0.1-0.6l0.1-0.6l0.1-0.6l0.1-0.6l0.1-0.6l0.1-0.6l0.1-0.6l0.1-0.6l0.1-0.6l0.1-0.6l0.1-0.6l0.1-0.6l0.1-0.6l0.1-0.6
				l0.1-0.6l0.1-0.6l0-0.3l0-0.4l0.1-0.6l0.1-0.6l0.1-0.6l0.1-0.6l0.1-0.6l0.1-0.6l0-0.7l0-0.7l0-0.7l0-0.7l0-0.7l0-0.7l0-0.7l0-0.7
				l0-0.7l0-0.7l0-0.7l0-0.7l0-0.7l0-0.7l0-0.7l0-0.7l0-0.7l0-0.7l0-0.7l0-0.7l0-0.7l0-0.7l0-0.7l0-0.7l0-1.3l0-1.3l0-0.6l0-0.6
				l0-0.6l0-0.3l0-0.3l0-0.6l0-0.6l0-0.6l0-0.6V397v-0.6l0-0.6l0-0.6l0-0.6l0-0.6l0-0.6l0-0.6l0-0.6l0-0.6l0-0.6l0-0.6l0-0.6l0-0.5
				l0-0.5l0-0.5l0-0.5l0-0.5l0-0.5l0-0.5l0-0.5l0-0.5l0-0.5l0-0.5l0-0.5l0-0.5l0-0.5l0-0.4l0-0.4l0-0.4l0-0.4l0-0.4l0-0.4l0-0.4
				l0-0.4l0-0.4l0-0.4l0-0.3l0-0.3l0-0.1l0-0.2l-0.1-0.3l-0.1-0.3l-0.1-0.3l-0.1-0.3l-0.1-0.3l-0.1-0.2l-0.1-0.2l-0.1-0.2l-0.1-0.4
				l-0.1-0.4l-0.1-0.5l-0.1-0.5l-0.1-0.5l-0.1-0.5l-0.1-0.5l-0.1-0.5l-0.1-0.5l-0.1-0.5l-0.1-0.5l-0.1-0.5l-0.1-0.5l-0.1-0.5
				l-0.1-0.5l-0.1-0.6l-0.1-0.6l-0.1-0.6l-0.1-0.6l-0.1-0.6l-0.1-0.6l-0.1-0.6l-0.1-0.6l-0.1-0.6l-0.1-0.6l-0.1-0.6l-0.1-0.6
				l-0.1-0.6l-0.1-0.6l-0.1-0.6l-0.1-0.6l-0.1-0.6l-0.1-0.6l0-0.1l-0.1-0.5l-0.1-0.6l-0.1-0.6l-0.1-0.6l-0.1-0.6l-0.1-0.6l-0.1-0.6
				l-0.1-0.6l-0.1-0.6l-0.1-0.6l-0.1-0.6l-0.1-0.6l-0.1-0.6l-0.1-0.6l-0.1-0.6l-0.1-0.6l-0.1-0.6l-0.1-0.5l-0.1-0.5l0-0.5l0-0.5
				l0-0.5l0-0.5l0-0.5l0-0.5l0-0.4l0-0.1l0-0.5l0-0.5l0-0.5l0-0.5l0-0.4l0-0.6l0-0.6l0-0.6l0-0.6l0-0.6l0-0.6l0-0.6l0-0.6l0-0.6
				l0-0.6l0-1.2l0-1.2l0-1.2l0.1-1.2l0-0.4l0-0.9l0.1-1.2l0.1-1.2l0.1-1.2l0.1-1.2l0.1-2.5l0.1-2.5l0.1-1.2l0.1-1.2l0.1-1.2l0.1-1.2
				l0.1-1.2l0.1-1.2l0.1-1.2l0-1.2l0-1.2l0-0.6l0-0.1l0-0.5l0-0.6l0-0.6l0-0.6l0-0.6l0-0.6l0-0.6l0-0.6l0-0.6v-0.4l0-0.4l0-0.4
				l0-0.4l0-0.4l0-0.4l0-0.4l0-0.4l0-0.4l0-0.4l0-0.4l0-0.4l0-0.4l0-0.4l0-0.4l-0.1-0.4l-0.1-0.4l-0.1-0.4l-0.1-0.4l-0.1-0.4
				l-0.1-0.4l-0.1-0.4l-0.1-0.4l-0.1-0.4l-0.1-0.8l-0.1-0.8l-0.1-0.8l-0.1-0.8l0-0.1l0-0.1l0-0.1l0-0.1l0-0.1l0-0.1l0-0.1l0-0.1
				l0-0.1l-0.1-0.1l-0.1-0.1l-0.1-0.1l-0.1-0.1l-0.1-0.1l-0.1-0.2l-0.1-0.2l0-0.1l-0.1-0.2l-0.1-0.2l-0.1-0.2l-0.1-0.2l-0.1-0.2
				l-0.1-0.1l-0.1-0.1l-0.1-0.1l0-0.1l0-0.1l0-0.1l-0.1-0.2l-0.1-0.3l-0.1-0.2l-0.1-0.2l-0.1-0.2l0,0l0-0.1l0-0.1l0-0.1l0-0.1l0-0.1
				l0-0.1l0-0.1l0,0l0,0l0,0l0,0l0,0l0,0l0,0l0,0l0,0l0,0l0,0l0,0l0,0l0,0l0,0l0,0l0,0L556.2,283L556.2,283z"/>
		</g>
		<g transform="matrix(0.753558,0.0898139,-0.0913687,0.774408,54.2684,15.874)">
			<path class="st16" d="M534.7,275.7l0.1,0.2l0,0l0,0.1l0,0.2l0,0.1l0,0l0,0.2l0,0.2l0,0.2l0,0.2l0,0.2l0,0.2l0,0.2l0,0.2l0,0.2
				l0,0.2l0,0.3l0,0.3l0,0.3l-0.1,0.3l-0.1,0.3l-0.1,0.3l-0.1,0.3l-0.1,0.3l-0.1,0.3l0,0l-0.1,0.3l-0.1,0.3l-0.2,0.7l-0.2,0.7
				l-0.2,0.7l-0.1,0.3l-0.1,0.3l-0.1,0.3l-0.1,0.3l-0.1,0.3l-0.1,0.3l-0.1,0.3l-0.1,0.3l-0.1,0.8l-0.1,0.8l-0.1,0.8l-0.1,0.8
				l-0.1,0.8l-0.1,0.8l-0.2,0.8l-0.2,0.8l-0.2,0.8l-0.2,0.8l-0.3,1.7l-0.3,1.7l-0.3,1.4l-0.1,0.3l-0.3,1.7l-0.3,1.7l-0.3,1.7
				l-0.2,0.8l-0.2,0.8l-0.2,0.8l-0.2,0.8l-0.2,0.8l-0.1,0.8l-0.1,0.8l-0.1,0.8l0,0.3l-0.1,0.6l-0.1,0.8l-0.1,0.4l-0.1,0.4l-0.1,0.4
				l-0.1,0.4l-0.1,0.4l-0.1,0.4l-0.1,0.4l-0.1,0.4l0,0.4l0,0.4l0,0.4l0,0.4v0l0,0.4l0,0.4l0,0.4l0,0.4l0,0.4l0,0.4l-0.1,0.8
				l-0.1,0.8l-0.1,0.8l-0.1,0.8l0,0.3l0,0.5l-0.1,0.8l0,0.8l0,0.8l0,0.8l0,0.8l0,0.8l0,0.8l0,0.8l0,0.8l0,0.8l0,0.8l0,0.8l0,0.8
				l0,0.8l0,1.6l0,1.6l-0.1,3.1l0,1.6l0,0.3l0,1.3l0,0.8l0,0.8l0,0.8l0,0.8l0,0.8l0,0.8l0,0.8l0,0.8l0,0.8l0,0.8l0,0.8l0,0.8
				l-0.1,0.8l-0.1,0.8l-0.1,0.8l-0.1,0.8l-0.1,0.8l-0.1,0.8l0,0.4l0,0.4l0,0.4l0,0.4l0,0.4l0,0.4l0,0.4l0,0.4l-0.1,0.4l-0.1,0.4
				l-0.1,0.4l-0.1,0.4l0,0.3l0,0.3l0,0.3l0,0.3l0,0.3l0,0.3l-0.1,0.3l-0.1,0.3l-0.1,0.3l-0.1,0.3l-0.1,0.3l-0.1,0.3l-0.1,0.3l0,0.1
				l0,0.2l-0.1,0.6l-0.1,0.6l-0.1,0.6l-0.1,0.6l-0.1,0.6l-0.2,0.6l-0.2,0.6l-0.2,0.6l-0.2,0.6l-0.2,0.6l-0.2,0.6l-0.2,0.6l-0.2,0.6
				l-0.2,0.6l-0.2,0.6l-0.2,0.6l-0.2,0.6l-0.2,0.6l-0.2,0.6l-0.4,1.1l-0.4,1.1l-0.4,1.1l-0.2,0.5l-0.2,0.5l-0.2,0.5l-0.2,0.5
				l-0.2,0.5l-0.2,0.5l-0.2,0.5l-0.2,0.6l-0.2,0.6l-0.2,0.6l-0.2,0.6l-0.1,0.6l-0.1,0.6l-0.1,0.6l0,0.2l-0.1,0.4l-0.1,0.6l-0.1,0.6
				l-0.1,0.6l-0.1,0.6l-0.1,0.6l-0.1,0.6l-0.1,0.6l-0.1,0.6l-0.1,0.6l-0.1,0.6l-0.1,0.6l-0.1,0.6l-0.1,0.6l-0.1,0.6l-0.1,0.6
				l-0.1,0.6l-0.1,0.6l-0.1,0.6l-0.1,0.6l-0.1,0.6l-0.1,0.6l-0.1,0.6l-0.1,0.6l-0.1,0.6l-0.1,0.6l-0.1,0.6l-0.1,0.6l0,0l-0.1,0.6
				l-0.1,0.6l-0.1,0.6l-0.1,0.6l-0.1,0.6l-0.1,0.6l-0.1,0.6l-0.1,0.6l0,0.6l0,0.6l0,0.6l0,0.5l0,0.1l0,0.6l0,0.6l0,0.6l0,0.6l0,0.6
				l0,0.6l0,0.6l0,0.6l0,0.5l0,0.5l-0.2,0.2l-0.2-0.2l0-0.5l0-0.5l0-0.6l0-0.6l0-0.6l0-0.6l0-0.6l0-0.6l0-0.6l0-0.6l0-0.1l0-0.5
				l0-0.6l0-0.6l0-0.6l0-0.6l0-0.6l0-0.6l0-0.6l0.1-0.6l0.1-0.6l0.1-0.6l0.1-0.6v0l0.1-0.6l0.1-0.6l0.1-0.6l0.1-0.6l0.1-0.6l0.1-0.6
				l0.1-0.6l0.1-0.6l0.1-0.6l0.1-0.6l0.1-0.6l0.1-0.6l0.1-0.6l0.1-0.6l0.1-0.6l0.1-0.6l0.1-0.6l0.1-0.6l0.1-0.6l0.1-0.6l0.1-0.6
				l0.1-0.6l0.1-0.6l0.1-0.6l0.1-0.6l0.1-0.6l0.1-0.6l0.1-0.4l0-0.2l0.1-0.6l0.1-0.6l0.1-0.6l0.1-0.6l0.2-0.6l0.2-0.6l0.2-0.6
				l0.2-0.6l0.2-0.5l0.2-0.5l0.2-0.5l0.2-0.5l0.2-0.5l0.2-0.5l0.4-1.1l0.4-1.1l0.4-1.1l0.2-0.6l0.2-0.6l0.2-0.6l0.2-0.6l0.2-0.6
				l0.2-0.6l0.2-0.6l0.2-0.6l0.2-0.6l0.2-0.6l0.2-0.6l0.2-0.6l0.2-0.6l0.1-0.6l0.1-0.6l0.1-0.6l0.1-0.6l0.1-0.6l0.1-0.6l0-0.1l0-0.1
				l0.1-0.3l0.1-0.3l0.1-0.3l0.1-0.3l0.1-0.3l0.1-0.3l0.1-0.3l0-0.3l0-0.3l0-0.3l0-0.3l0-0.3l0-0.3l0.1-0.4l0.1-0.4l0-0.4l0-0.4
				l0-0.4l0-0.4l0-0.4l0-0.4l0-0.4l0-0.4l0-0.4l0-0.4l0.1-0.8l0.1-0.8l0.1-0.8l0.1-0.8l0.1-0.8l0-0.8l0-0.8l0-0.8l0-0.8l0-0.8l0-0.8
				l0-0.8l0-0.8l0-0.8l0-0.8l0-0.8l0-0.8l0-0.8l0-1.3l0-0.3l0-1.6l0.1-3.1l0-1.6l0-1.6l0-0.8l0-0.8l0-0.8l0-0.8l0-0.8l0-0.8l0-0.8
				l0-0.8l0-0.8l0-0.8l0-0.8l0-0.8l0-0.8l0-0.8l0-0.5l0-0.3l0.1-0.8l0.1-0.8l0.1-0.8l0.1-0.8l0-0.4l0-0.4l0-0.4l0-0.4l0-0.4l0-0.4v0
				l0-0.4l0-0.4l0.1-0.4l0.1-0.4l0.1-0.4l0.1-0.4l0.1-0.4l0.1-0.4l0.1-0.4l0.1-0.4l0.1-0.4l0.1-0.4l0.1-0.8l0.1-0.6l0-0.3l0.2-0.8
				l0.2-0.8l0.2-0.8l0.2-0.8l0.2-0.8l0.2-0.8l0.2-0.8l0.2-0.8l0.3-1.7l0.3-1.7l0.3-1.7l0.1-0.3l0.3-1.4l0.3-1.7l0.3-1.7l0.2-0.8
				l0.2-0.8l0.2-0.8l0.2-0.8l0.2-0.8l0.2-0.8l0.2-0.8l0.2-0.8l0.2-0.8l0.1-0.8l0.1-0.3l0.1-0.3l0.1-0.3l0.1-0.3l0.1-0.3l0.1-0.3
				l0.1-0.3l0.1-0.3l0.2-0.7l0.2-0.7l0.2-0.7l0.1-0.3l0.1-0.3l0,0l0.1-0.3l0.1-0.3l0.1-0.3l0.1-0.3l0.1-0.3l0.1-0.3l0.1-0.3l0.1-0.3
				l0.1-0.3l0-0.2l0-0.2l0-0.2l0-0.2l0-0.2l0-0.2l0-0.2l0-0.2l0-0.2l0-0.2l0,0l0-0.1l0-0.2l0-0.1l0,0l0.1-0.2H534.7L534.7,275.7z"/>
		</g>
		<g transform="matrix(0.474327,0.212993,-0.209855,0.488265,298.862,236.852)">
			<path class="st17" d="M197.8-219.2c0,0-2.4,12.5,7.7,12.4c24.1-0.2,17.4-26.1,17.4-26.1c5.5-0.6,15.9-0.8,19.3,0
				c6.5,1.5,12.6,5,15.8,11c1.4,2.6,2,5.5,2.6,8.3c3,13.2,4.8,41.7,22.7,77.6c5,10,19.3,39.4,18,40.7C270.8-64,236.5-54.9,220-55.8
				c-1.8-8.3-28.2-98.5-32.7-119.7C180.1-210.4,197.8-219.2,197.8-219.2z"/>
		</g>
		<g transform="matrix(0.502694,0.128534,-0.127766,0.51696,328.356,180.962)">
			<path class="st11" d="M215.6-58.1c13.5-4.6,13.1-17.9,13.1-17.9l-6-20.4c-1.8-5.5-11.2-5.2-17.7-2.1c-6.5,3.1-6.9,10.8-5.1,16.3
				l4.9,20.5C206.5-56.1,212-56.9,215.6-58.1z"/>
		</g>
		<g transform="matrix(0.506996,0.131874,-0.0794666,0.533856,318.408,161.758)">
			<path class="st11" d="M215.9-52.7c3.8,14.5,25.1,5.4,32.9,2c11.7-5.1,37-36.9,25.6-52.4c-11.4-15.5-37.5-12.8-48-5.9
				C216-102,213.3-62.8,215.9-52.7z"/>
		</g>
		<g transform="matrix(0.506996,0.131874,-0.0794666,0.533856,329.838,183.332)">
			<path class="st11" d="M229.7-107.1c-3.7,4.2-4.8,8.7-2.8,10.1c6.7,4.7,11.3,4.6,14.9,0.5c3.7-4.2,3-8.6-0.4-11.6
				S233.3-111.3,229.7-107.1"/>
		</g>
		<g transform="matrix(0.588782,1.82782,1.66307,-0.545645,-210.466,25.4851)">
			<path class="st10" d="M209.1,338c-9.2-1-19.3-5.6-20.8-2.9c-2.4,4.2-4.5,5.6,6.2,8.6c22.1,6.2,31.9-5.7,34.6-10.9
				c0,0,0.6-2.8-0.7-3.6C225.9,327.5,220.7,339.3,209.1,338z"/>
		</g>
		<g transform="matrix(-0.537251,0.119877,0.187299,0.57643,365.475,94.0882)">
			<path class="st18" d="M-109.4,231.6c0,0,11.3-20.7,13-29.9c4.9-26.9-25.5-37.6-25.5-37.6s-9.4,5.4-12.1,10.7
				c-5.3,10.5-8.7,36.9-9.8,43.3C-132.9,226.7-109.4,231.6-109.4,231.6z"/>
		</g>
		<g transform="matrix(0.0617583,-1.11748,1.0842,0.0154867,100.207,319.813)">
			<path class="st10" d="M55.7,336.1L55.7,336.1c0.1-1.3,0.5-3,0.5-3c0.2-0.4,0.5-1.1,0.5-1.1c0.3-0.9,0.5-0.6,0.6-0.6
				c1.2,0.1,0.6,2.2,1.4,4.6c0.2,0.5,0.4,1,0.7,1.5c0.4,0.2,2.8,2.1,3.9,3.4c1.8,2.3,0.4,7.3-1.7,6.3c-5.4-2.7-8-4.3-9.1-4.4
				c-1.7-0.2-3.4,0-5.1,0.1c-1.5,0.2-5.6,1.1-5.5,0.7c0.1-0.4,0.6-0.7,0.9-0.8c1.4-0.6,2.7-1.2,4.2-1.6c0.5-0.1,1-0.2,1.5-0.3
				c0.3-0.1,0.7-0.2,0.7-0.2s-0.5,0-0.8,0c-0.5,0-1,0.1-1.5,0.1c-1.5,0-5.7,0.8-6.3,0.6c-0.2,0-0.6,0-0.5-0.4
				c0.1-0.5,3.1-1.3,3.9-1.5c1.7-0.3,3.6-0.8,4.1-0.9c0.1,0,0.5-0.1,0.5-0.1c0.1-0.1-0.4-0.1-0.4-0.1c-0.4-0.1-8.3-0.2-8.2-0.4
				c0.3-0.5,1.2-0.7,1.8-0.9c1.7-0.4,3.4-0.4,5.2-0.4c0.6,0,1.2,0,1.8,0c0.1,0,0.6,0.1,0.7,0c0-0.1-0.4,0-0.4,0
				c-0.3-0.1-0.8-0.1-1.2-0.1c-1.3-0.3-2.9-0.4-4.2-0.5c-0.5,0-2.1,0-2.1-0.3c-0.1-0.7,5.7-0.8,6.8-0.7
				C50.8,335.2,53.2,335.5,55.7,336.1z M57.2,331.7"/>
		</g>
		<g transform="matrix(0.952144,0,0,0.952144,43.3288,-0.984591)">
			<path class="st19" d="M429.1,154.7c0,0,5.5,4.1,4.5,8.1l-0.9,3.1l0.2,3.4l3.6-2.9c0,0,2.6-0.4,2.5,2.6c-0.1,3-6.4,4.2-6.4,4.2
				l-2.8,2l0.3,4.7c0,0,4.4,1.3,6.3-1.2c1.9-2.5,1.5-4.3,4.2-5.1c3-0.9,4.7-6.1,2.9-10.6c-0.6-1.6-0.2-5.3-0.3-7.7
				c-0.1-2.4-1.2-2.9-1.2-2.9L429.1,154.7z"/>
		</g>
		<g transform="matrix(0.952144,0,0,0.952144,43.3288,-0.984591)">
			<path class="st19" d="M415.7,148.3l-6.8,16.7c0,0-2.3-3.9,1-10.4c1.7-3.5,3.4-3.1,5.8-8.3C418.3,140.9,415.7,148.3,415.7,148.3z"
				/>
		</g>
		<g transform="matrix(0.952144,0,0,0.753296,43.3288,36.0282)">
			<path class="st3" d="M410.7,144.1c0,0,3.3-11.4,5-13.1c3.7-3.8,9.7-7.1,14.6-6.3c2.6,0.4,13.5,10.1,14,14.2
				c1.1,9.3-0.7,16.2-0.7,16.2s-0.2,1.1-0.7,0.8C439.2,153.7,424.5,143.2,410.7,144.1z"/>
		</g>
	</g>
	<g transform="matrix(1.05021,-0.0103424,0.0103424,1.05021,-40.5495,5.34313)">
		<g transform="matrix(1,-1.38778e-17,0,1,0.839017,3.21431)">
			<path class="st19" d="M585.2,143.4c0,0-8.7-2.8-13.9,4.3c-6.6,9-3.8,16.6-9.2,25.3c-5.4,8.7-13.9,9.9-10.4,21.5
				c0,0-6.5,19.6,15.3,22.4c0,0,24.4,7.7,31.8-10.5c0,0,14.6-6.2,8.2-19.3C600.5,174.2,614,142.9,585.2,143.4z"/>
		</g>
		<g transform="matrix(-1.16878,-0.206474,-0.254767,1.64243,866.327,-163.741)">
			<path class="st20" d="M191.5,234.5c-4.2,0.1-5.2-2.4-5.2-2.4s-2.1,1.1-4-1c-1.2-1.2,0-2.1,0.7-2.4c1.9-0.8,4.9,2.2,5.3,1.6
				c1.9-2.5-0.2-3.5-1.4-4.5c-1.1-0.9-0.6-3,1.7-3.2c9.5-0.9,7.1-5.5,9-4.3c3.1,1.9,5.7,10.8,4.5,14.3
				C201.6,233.7,194.2,234.4,191.5,234.5z"/>
		</g>
		<g transform="matrix(1.00438,-0.0312853,0.117276,0.904985,243.624,129.728)">
			<path class="st20" d="M324.2-5.7c3.6,0-10.5,36.6-8.8,55.5c2.3,26.2,4.9,27.9,7.2,37c5.8,23.7-15.7,12.4-16.3,5.2
				c-1.1-11.6-4.1-32.5-2-47.2c3.7-25.6,15.6-49.6,19.4-50.4C323.8-5.7,323.8-5.7,324.2-5.7z"/>
		</g>
		<g transform="matrix(-0.9101,0.425992,-0.465658,-0.784802,613.316,211.722)">
			<path class="st20" d="M24.2-70.3c3.6,0-10.5,36.6-8.8,55.5c2.3,26.2,4.9,27.9,7.2,37c5.8,23.7-15.7,12.4-16.3,5.2
				C5.1,15.7,2-5.2,4.2-19.9c3.7-25.6,15.6-49.6,19.4-50.4C23.7-70.3,23.7-70.3,24.2-70.3z"/>
		</g>
		<g transform="matrix(0.624777,-0.917916,1.07961,0.636501,137.058,441.456)">
			<path class="st20" d="M444,137.5c0,0,6.9-5.9,11.4-11c0,0,1.3-0.9-0.2,1.3s-3.4,4.9-3.4,4.9s4.8-4.6,6.2-6.1
				c1.4-1.5-0.9,3-4.9,6.6c0,0,4.7-4.2,6.7-5.6c1.2-0.9-0.9,2.5-5.7,6.6c0,0,3.8-2.9,6.2-4.3c1.3-0.8,2.3-0.1-5.4,5.4
				c-0.8,0.6-1.6,1-2.2,1.9c0,0,2-0.9,3.5,0.1c0,0,0,0.7-1,0.8c-0.9,0.1-2.3,0.5-3.9,1.8c-1.6,1.3-2.7,1.9-5.1,2.5
				C443.9,143,444,137.5,444,137.5z"/>
		</g>
		<g transform="matrix(-0.210768,1.09018,-1.24333,-0.157581,587.895,-116.735)">
			<path class="st20" d="M340.6-88.8c0,0,6.9-5.9,11.4-11c0,0,1.3-0.9-0.2,1.3s-3.4,4.9-3.4,4.9s4.8-4.6,6.2-6.1
				c1.4-1.5-0.9,3-4.9,6.6c0,0,4.7-4.2,6.7-5.6c1.2-0.9-0.9,2.5-5.7,6.6c0,0,3.8-2.9,6.2-4.3c1.3-0.8,2.3-0.1-5.4,5.4
				c-0.8,0.6-1.6,1-2.2,1.9c0,0,2-0.9,3.5,0.1c0,0,0,0.7-1,0.8c-0.9,0.1-2.3,0.5-3.9,1.8c-1.6,1.3-2.7,1.9-5.1,2.5
				C340.5-83.3,340.6-88.8,340.6-88.8z"/>
		</g>
		<g transform="matrix(1.02211,0,0,0.994663,251.818,122.027)">
			<path class="st21" d="M327,114c-10.8-4.3-23.2-6.7-26.7,29.4c-0.7,7.6-6.6,37.6-7.9,45c-1.4,8.3-19,64.5-24.5,79
				c-3.4,9,3.2,4,4.2,5c0.1,0.1,27-41.1,32.9-53.8c3.2-6.9,1.8-21.9,2.2-22.6c4.4-8.9,10.4-23.5,15.8-32.6c5.8-9.7,8-21.2,10.2-32.5
				C334.3,125.6,332.5,116.3,327,114z"/>
			<g>
				<defs>
					<path id="SVGID_9_" d="M327,114c-10.8-4.3-23.2-6.7-26.7,29.4c-0.7,7.6-6.6,37.6-7.9,45c-1.4,8.3-19,64.5-24.5,79
						c-3.4,9,3.2,4,4.2,5c0.1,0.1,27-41.1,32.9-53.8c3.2-6.9,1.8-21.9,2.2-22.6c4.4-8.9,10.4-23.5,15.8-32.6
						c5.8-9.7,8-21.2,10.2-32.5C334.3,125.6,332.5,116.3,327,114z"/>
				</defs>
				<clipPath id="SVGID_10_">
					<use xlink:href="#SVGID_9_"  style="overflow:visible;"/>
				</clipPath>
				<g class="st22">
					<path class="st1" d="M270.7,254.5c0-0.3,0.6,0.5,1.1,0.6c0.9,0,2.1,0.4,3.1,0.7c2.6,0.6,7.8,2.8,9.9,2.1c1-0.3,3.2-4.7,3.8-5.6
						c3.6-5.1,25.2-25.9,19.7-58.9c-0.1-0.6,18.6-24.8,17.7-33.3c-0.7-6.5,1.5-28.3-1.2-34.3c-1.8-4.1-21.3-3.1-23.8-6.5
						c-3.6-4.9-10.5,65.2-12.3,77.3c-0.9,5.6-17.5,57.2-18.2,58.4"/>
				</g>
			</g>
		</g>
		<g transform="matrix(1.02211,0,0,0.994663,251.818,122.027)">
			<path class="st21" d="M314.9,137.9c0,0,18.4,45,20.7,54.4c1.3,5,3.9,10,4.4,15.2c1.5,13.4,3.3,26.3,3.3,39.9
				c0,7.5-0.7,16.5,0.7,23.8c0.1,0.7,1,6.4,2.8,5.5c2.6-1.3,2.7-5.6,3.1-7.9c1.5-7.3,8.2-32.7,9-37.4c1.9-11.7-2.6-23.1-7.5-33.1
				c-1-2,1.7-24.1,1.6-31.9c-0.2-21.8-1.3-44.7-23.8-54.8c-1-0.4-12.8-2.4-16.1,13.9C312.4,129.6,314.7,137.1,314.9,137.9z"/>
			<g>
				<defs>
					<path id="SVGID_11_" d="M314.9,137.9c0,0,18.4,45,20.7,54.4c1.3,5,3.9,10,4.4,15.2c1.5,13.4,3.3,26.3,3.3,39.9
						c0,7.5-0.7,16.5,0.7,23.8c0.1,0.7,1,6.4,2.8,5.5c2.6-1.3,2.7-5.6,3.1-7.9c1.5-7.3,8.2-32.7,9-37.4c1.9-11.7-2.6-23.1-7.5-33.1
						c-1-2,1.7-24.1,1.6-31.9c-0.2-21.8-1.3-44.7-23.8-54.8c-1-0.4-12.8-2.4-16.1,13.9C312.4,129.6,314.7,137.1,314.9,137.9z"/>
				</defs>
				<clipPath id="SVGID_12_">
					<use xlink:href="#SVGID_11_"  style="overflow:visible;"/>
				</clipPath>
				<g class="st23">
					<path class="st1" d="M307.2,125.7c0,0,28.3,68.9,30,78.4c1,5.7,3.5,43.3,4.6,48.9c0.2,0.9-0.3,4.4,0.3,5.1
						c0.6,0.6,3-0.3,3.8-0.5c2.9-0.6,5.9-2.4,8.6-3.5c1.1-0.5,14.2-33.5-0.1-58.5c-1.3-2.2,4.4-40.1,1.1-59.8
						c-1.6-9.8-17-23.1-18.3-22.7C334.7,114.1,309.2,123.8,307.2,125.7z"/>
				</g>
			</g>
		</g>
		<g transform="matrix(1.02211,0,0,0.994663,251.818,122.027)">
			<path class="st21" d="M317.3,57.5c-1.1-6.9,11.8-6.4,11.6,1.2c-0.2,5.3-1.4,9.4,1.5,14.1c2.2,3.6-17.1,2.5-17.3,0.1
				C313.1,73,317.3,57.7,317.3,57.5z"/>
		</g>
		<g transform="matrix(1.02211,0,0,0.994663,251.818,122.027)">
			<path class="st21" d="M335.9,114.1c0.4,18.1-31.6,15.5-30.5,6.7c1.4-11,2.7-29.7,1.9-30.6c-5.4-6.3-0.5-12.7,9.6-24.3
				c1.5-1.7,7.1,2.1,11.2,2.1c3.3,0,10.3,2.1,8.3,18.7c-0.2,1.4-2.5,13.8-2.8,16.9C333.3,107.3,335.8,110.7,335.9,114.1z"/>
		</g>
		<g transform="matrix(0.657171,-0.662749,0.705767,0.553387,78.0399,366.061)">
			<path class="st1" d="M276.9,377.2c0.5-0.3,3.6-2-0.3-2.4c-2-0.2-7.6-2.2-11.1-8.3c-1.6-2.8-2-3.2-3.9-3.8c-1.3-0.4-2.1,1.1-3,1.4
				c10.4,17.1,18.7,20.7,19.7,21c2.1-2.4,1.2-3.3,2.6-3.8C281.1,380.4,278.1,377.9,276.9,377.2z"/>
			<g>
				<defs>
					<path id="SVGID_13_" d="M276.9,377.2c0.5-0.3,3.6-2-0.3-2.4c-2-0.2-7.6-2.2-11.1-8.3c-1.6-2.8-2-3.2-3.9-3.8
						c-1.3-0.4-2.1,1.1-3,1.4c10.4,17.1,18.7,20.7,19.7,21c2.1-2.4,1.2-3.3,2.6-3.8C281.1,380.4,278.1,377.9,276.9,377.2z"/>
				</defs>
				<clipPath id="SVGID_14_">
					<use xlink:href="#SVGID_13_"  style="overflow:visible;"/>
				</clipPath>
				<g class="st24">
					<g transform="matrix(1.00164,-0.157258,0.158597,0.973461,-35.845,38.8208)">
						<path class="st6" d="M248.3,391.1c0.5,0.4,1,0.7,1.5,1.1c1.6,1.2,4.1,2.8,4.2,2.9c1.8,1.1,2.2,5.8-4.7,0.6
							c-9.5-5.7-14-16-16.8-26.9l-0.7-3.9l0.3-0.6l0.9,1.2c0.5,1.6,1.1,3.2,1.5,4.9l0-2.5c0.2-0.8,0.5-0.9,1.3-0.7
							c1.3,0.6,0.7,1.6,0.7,1.6c0.3,2.1,0.8,4.3,1.5,6.4c1.3,1.4,7.2,5.6,8.6,10.5c0,0,1,2.5,1.4,3.9
							C248,390.1,248.2,390.6,248.3,391.1z M238.8,377.7c1.8,4.5,4.3,8.7,7.8,12c-0.4-1.8-0.9-3.5-1.4-5.2c-0.7-2.1-2.1-3.3-2.7-3.7
							c-1-0.9-1.6-1.2-2.2-1.7C239.9,378.6,239.3,378.2,238.8,377.7z M246.9,387.6l0.5,1.3C247.4,388.9,246.8,387.4,246.9,387.6z"/>
					</g>
				</g>
			</g>
		</g>
		<g transform="matrix(0.657171,-0.662749,0.705767,0.553387,135.839,369.002)">
			<path class="st1" d="M291.3,396.3c0.5-0.3,1.8-5.8-3.5-3.8c-2,0.7-5-3-6.9-3.6c-1.3-0.4-2.1,1.1-3,1.4c7.5,10.2,12,11.3,13,11.6
				c2.1-2.4,1.2-3.3,2.6-3.8C293.6,397.3,292.5,397.1,291.3,396.3z"/>
			<g>
				<defs>
					<path id="SVGID_15_" d="M291.3,396.3c0.5-0.3,1.8-5.8-3.5-3.8c-2,0.7-5-3-6.9-3.6c-1.3-0.4-2.1,1.1-3,1.4
						c7.5,10.2,12,11.3,13,11.6c2.1-2.4,1.2-3.3,2.6-3.8C293.6,397.3,292.5,397.1,291.3,396.3z"/>
				</defs>
				<clipPath id="SVGID_16_">
					<use xlink:href="#SVGID_15_"  style="overflow:visible;"/>
				</clipPath>
				<g class="st25">
					<g transform="matrix(0.954999,-0.409602,0.389592,0.880024,-70.724,119.154)">
						<path class="st6" d="M214.3,423.7c0.5,0.4,1,0.7,1.5,1.1c1.6,1.2,4.1,2.8,4.2,2.9c1.8,1.1,2.2,5.8-4.7,0.6
							c-9.5-5.7-14-16-16.8-26.9l-0.7-3.9l0.3-0.6l0.9,1.2c0.5,1.6,1.1,3.2,1.5,4.9l0-2.5c0.2-0.8,0.5-0.9,1.3-0.7
							c1.3,0.6,0.7,1.6,0.7,1.6c0.3,2.1,0.8,4.3,1.5,6.4c1.3,1.4,7.2,5.6,8.6,10.5c0,0,1,2.5,1.4,3.9
							C214.1,422.7,214.2,423.2,214.3,423.7z M204.9,410.3c1.8,4.5,4.3,8.7,7.8,12c-0.4-1.8-0.9-3.5-1.4-5.2
							c-0.7-2.1-2.1-3.3-2.7-3.7c-1-0.9-1.6-1.2-2.2-1.7C205.9,411.2,205.4,410.8,204.9,410.3z M212.9,420.2l0.5,1.3
							C213.4,421.5,212.9,419.9,212.9,420.2z"/>
					</g>
				</g>
			</g>
		</g>
		<path class="st26" d="M569.6,264.9l0.1,0l0.1,0l0.1,0l0.1,0l0.1,0l0.1,0l0.1,0l0.1,0l0.1,0l0,0l0.1,0l0.1,0l0.1,0l0.1,0l0.1,0
			l0.1,0l0.1,0l0.1,0l0.1,0l0.1,0l0.1,0l0.1,0l0.1,0l0.1,0l0.2,0.1l0.2,0.1l0.2,0.1l0.2,0.1l0.2,0.1l0.2,0.1l0.2,0.1l0.2,0.1
			l0.2,0.1l0.2,0.1l0.2,0.1l0.2,0.1l0.2,0.1l0.2,0.1l0.2,0.1l0.2,0.1l0.1,0.1l0,0l0.2,0.1l0.2,0.1l0.1,0.1l0.1,0.1l0.1,0.1l0.1,0.1
			l0.1,0.1l0.1,0.1l0.1,0.1l0.1,0.1l0.1,0.1l0.1,0.1l0.1,0.1l0.1,0.1l0.1,0.1l0.1,0.1l0.1,0.2l0.1,0.2l0.1,0.2l0.1,0.2l0.1,0.2
			l0.1,0.2l0.1,0.2l0.1,0.2l0.1,0.2l0.1,0.2l0.1,0.2l0,0.1l0.1,0.1l0.1,0.2l0.1,0.2l0.1,0.2l0.1,0.2l0.1,0.2l0.1,0.2l0.1,0.2
			l0.1,0.2l0.1,0.2l0.1,0.2l0.1,0.2l0.1,0.2l0.1,0.2l0.1,0.2l0.1,0.2l0.1,0.2l0.1,0.2l0.1,0.2l0.1,0.2l0.1,0.2l0.2,0.4l0.2,0.4
			l0.2,0.4l0.2,0.4l0.2,0.4l0.1,0.3l0,0.1l0.2,0.4l0.2,0.4l0.1,0.4l0.1,0.4l0.1,0.4l0.1,0.4l0.2,0.6l0.1,0.2l0.3,0.7l0.3,0.7
			l0.1,0.4l0,0.1l-0.1,0.3l-0.1,0.2L583,282l-0.3-0.2l0-0.1l-0.1-0.3l-0.3-0.7l-0.3-0.7l-0.1-0.2l-0.2-0.6l-0.2-0.4l-0.2-0.4
			l-0.2-0.4l-0.2-0.4l-0.2-0.4l-0.2-0.4l0-0.1l-0.1-0.3l-0.2-0.4l-0.2-0.4l-0.2-0.4l-0.2-0.4l-0.2-0.4l-0.1-0.2l-0.1-0.2l-0.1-0.2
			l-0.1-0.2l-0.1-0.2l-0.1-0.2l-0.1-0.2l-0.1-0.2l-0.1-0.2l-0.1-0.2l-0.1-0.2l-0.1-0.2l-0.1-0.2l-0.1-0.2l-0.1-0.2l-0.1-0.2
			l-0.1-0.2l-0.1-0.2l-0.1-0.2l-0.1-0.2l-0.1-0.1l0-0.1l-0.1-0.2l-0.1-0.2l-0.1-0.2l-0.1-0.2l-0.1-0.2l-0.1-0.2l-0.1-0.1l-0.1-0.1
			l-0.1-0.1l-0.1-0.1l-0.1-0.1l-0.1-0.1l-0.1-0.1L576,269l-0.1-0.1l-0.1-0.1l-0.1-0.1l-0.1-0.1l-0.1-0.1l-0.1-0.1l-0.1-0.1L575,268
			l-0.1-0.1l-0.1-0.1l-0.1-0.1l-0.1-0.1l-0.1-0.1l0,0l-0.1-0.1l-0.1-0.1l-0.1-0.1l-0.1-0.1l-0.1-0.1l-0.1-0.1l-0.2-0.1l-0.2-0.1
			l-0.2-0.1l-0.2-0.1l-0.2-0.1l-0.2-0.1l-0.2-0.1l-0.2-0.1l-0.2-0.1l-0.2-0.1l-0.2-0.1l-0.1,0l-0.1,0l-0.1,0l-0.1,0l-0.1,0l-0.1,0
			l-0.1,0l-0.1,0l-0.1,0l-0.1,0l-0.1,0l-0.1,0l-0.1,0l-0.1,0l0,0l0,0l-0.1,0l-0.1,0l-0.1,0l-0.1,0l-0.1,0l-0.1,0l-0.1,0l-0.1,0
			l-0.1,0l-0.1,0l-0.1,0l-0.1,0l-0.1,0l-0.1,0l-0.1,0l-0.1,0l-0.1,0l-0.1,0l0,0l-0.1,0l-0.1,0l-0.1,0h-0.1l-0.1,0l-0.1,0l-0.1,0
			l-0.1,0l-0.1,0l-0.1,0l-0.1,0l-0.1,0l-0.1,0l-0.3-0.2l0.2-0.3l0.1,0l0.1,0l0.1,0l0.1,0l0.1,0l0.1,0l0.1,0l0.1,0l0.1,0l0.1,0l0.1,0
			l0.1,0l0.1,0l0,0l0.1,0l0.1,0l0.1,0l0.1,0l0.1,0l0.1,0l0.1,0h0.1l0.1,0L569.6,264.9z"/>
		<path class="st26" d="M568.2,247.3l0,0.3l0,0.3l0,0.3l0,0.3l0,0.3l0,0.3l0,0.1l0,0.2l0,0.3l0,0.3l0,0.3l0,0.3l0,0.3l0,0.3l0,0.3
			l0,0.2l0,0.1l0,0.3l0,0.3l0,0.3l0,0.3l0,0.3l0,0.3l0,0.1l0,0.2l0,0.3l0,0.3l0,0.3l0,0.3l0,0.3l0,0.3l0,0.1l0,0.2l0,0.3l0,0.3
			l0,0.3l0,0.3l0,0.3l0,0.3l0,0.3l0,0.3l0,0.3l0,0.3l0,0.3l0,0.3l0.1,0.3l0.1,0.3l0.1,0.3l0.1,0.3l0.1,0.3l0,0l0.1,0.3l0.1,0.3
			l0.1,0.3l0.1,0.3l0.1,0.3l0.1,0.3l0.1,0.3l0.1,0.3l0.1,0.3l0.1,0.2l0,0.1l0.1,0.3l0.1,0.3l0.1,0.3l0.1,0.3l0.1,0.3l0.1,0.3
			l0.1,0.2l0,0l-0.1,0.3l-0.1,0.2l-0.2-0.1l-0.3-0.2l0,0l-0.1-0.2l-0.1-0.3l-0.1-0.3l-0.1-0.3l-0.1-0.3l-0.1-0.3l-0.1-0.3l0-0.1
			l-0.1-0.2l-0.1-0.3l-0.1-0.3l-0.1-0.3l-0.1-0.3l-0.1-0.3l-0.1-0.3l-0.1-0.3l-0.1-0.3l-0.1-0.3l0,0l-0.1-0.3l-0.1-0.3l-0.1-0.3
			l-0.1-0.3l-0.1-0.3l-0.1-0.3l0-0.3l0-0.3l0-0.3l0-0.3l0-0.3l0-0.3l0-0.3l0-0.3l0-0.3l0-0.3l0-0.3l0-0.2l0-0.1l0-0.3l0-0.3l0-0.3
			l0-0.3l0-0.3l0-0.3l0-0.2l0-0.1l0-0.3l0-0.3l0-0.3l0-0.3l0-0.3l0-0.3l0-0.1l0-0.2l0-0.3l0-0.3l0-0.3l0-0.3l0-0.3l0-0.3l0.1-0.3
			l0-0.2l0-0.1l0.1-0.3l0.1-0.3l0.1-0.3l0.1-0.3l0.1-0.3l0.1-0.3l0.2-0.1L568.2,247.3z"/>
		<path class="st26" d="M572.9,246.8l0.1,0.2l0,0.3l0,0.3l0,0.3l0,0.3v0l0,0.3l0,0.3l0,0.3l0,0.3l0,0.3l0,0l0,0.3l0,0.3l0,0.3l0,0.3
			l0,0.3l0,0.3l0,0.3l0,0.3l0,0.3l0,0.3l0,0.3l0,0.3l0,0l0,0.2l0,0.3l0,0.3l0,0.3l0,0.3l0,0.3l0,0.3l0,0.3l0,0.3l0,0.3l0,0.3l0,0.3
			l0,0.3l0,0.3l0,0.1l0,0.2l0,0.3l0,0.3l0,0.3l0,0.3l0,0.3l0,0.3l0,0.3l0,0.3l0,0.3l0,0.3l0,0.3l0,0.3l0,0.3l0,0.2l0,0.1l0,0.3
			l0,0.3l0,0.3l0,0.3l0,0.3l0,0.3l0,0.1l0,0.2l0,0.3l0,0.3l0,0.3l0,0.3l0,0.1l0,0.2l0,0.3l0,0.3l-0.1,0.2l-0.2-0.1l-0.1-0.3
			l-0.1-0.3l-0.1-0.2l0-0.1l0-0.3l0-0.3l0-0.3l0-0.3l0-0.2l0-0.1l0-0.3l0-0.3l0-0.3l0-0.3l0-0.3l0-0.3l0-0.1l0-0.2l0-0.3l0-0.3
			l0-0.3l0-0.3l0-0.3l0-0.3l0-0.3l0-0.3l0-0.3l0-0.3l0-0.3l0-0.3l0-0.3l0-0.2l0-0.1l0-0.3l0-0.3l0-0.3l0-0.3l0-0.3l0-0.3l0-0.3
			l0-0.3l0-0.3l0-0.3l0-0.3l0-0.3l0-0.3l0-0.2l0,0l0-0.3l0-0.3l0-0.3l0-0.3l0-0.3l0-0.3l0-0.3l0-0.3l0-0.3l0-0.3l0.1-0.3l0-0.3l0,0
			l0.1-0.3l0.1-0.3l0.1-0.3l0.1-0.3l0.1-0.3l0,0l0.1-0.3l0.1-0.3l0.1-0.3l0.1-0.3L572.9,246.8z"/>
		<path class="st26" d="M578.2,247.6l0,0.3l0,0.3l0.1,0.5l0,0.1l0,0.3l0,0.3l0,0.1l0,0.2l0,0.2l0,0.2l0,0l0,0.7l0,0.3v0.2l0,0.2
			l0,0.1l0,0.1l0,0.3l0,0.2l0,0.2l0,0.2l0,0.1l0,0.2l0,0.1l0,0.1l0,0.1v0.1l0,0.1l0,0.1l0,0.1l0,0l0,0l0-0.1l0-0.1l0-0.1l0-0.1l0,0
			l0-0.1l0-0.1l0-0.1l0-0.1l0-0.1l0-0.1l0.1-0.2l0,0l0.1-0.2l0.1-0.2l0-0.1l0-0.1l0,0l0,0l0,0l0,0l0-0.2l0-0.2v0l0-0.2l0-0.2l0-0.2
			l0-0.2l0-0.2l0-0.2l0-0.2l0-0.2l0-0.2l0-0.2l0-0.1l0,0l0-0.2l0-0.2V249l0-0.2l0-0.2l0-0.2l0-0.2l0-0.3l0-0.3l0-0.1l0-0.2l0-0.3
			l0-0.3l0-0.2l0-0.2l0.1-0.1l0.1,0.1l0,0.2l0,0.2l0.1,0.3l0.1,0.3l0,0.2l0,0.1l0,0.3l0,0.3l0,0.2l0,0.2l0,0.2l0,0.2l0,0.2l0,0.2
			l0,0.2l0,0.1v0.1l0,0.2l0,0.2l0,0.2l0,0.2l0,0.2l0,0.2l0,0.2l0,0.2l0,0.2l0,0.2v0l0,0.2l0,0.2l0,0l0,0.1l0,0.1l0,0.2l-0.1,0.2
			l-0.1,0.2v0l-0.1,0.2l0,0.1l0,0.1l0,0.1l0,0.1l0,0.1l0,0.1l0,0l0,0.1l0,0.1l0,0.1l0,0.1l0,0.1l0,0.1l0,0.1l0,0l0,0l0,0l0,0l0,0
			l0,0l0,0l0,0l0,0l-0.1,0l-0.1,0l-0.1,0l-0.1,0l-0.1,0l-0.1,0l-0.1,0l0,0l0,0l0,0l0,0l0,0l0,0l0,0l0,0l0,0l0,0l0,0l0-0.1l0-0.1
			l0-0.1l0-0.1l0-0.1l0-0.1l0-0.1l0-0.1l0-0.1l0-0.1l0-0.2v-0.1l0-0.2l0-0.2l0-0.2l0-0.3l0-0.1l0-0.1v0l0-0.2v-0.2l0-0.3l0-0.7l0,0
			l0-0.2l0-0.2l0-0.2l0-0.1l0-0.3l0-0.3l0-0.1l0-0.5l0-0.3l0-0.3l0-0.1l0.1-0.2L578.2,247.6L578.2,247.6z"/>
		<path class="st26" d="M585.4,244.6l0,0.2l0.1,0.3l0.1,0.3l0.1,0.3l0,0.1l0,0.3l0.1,0.3l0.1,0.3l0.1,0.3l0.1,0.7l0,0l0.1,0.6
			l0.1,0.3l0.1,0.3l0.1,0.3l0.1,0.3l0,0.1l0,0l0,0l0,0.1l0.1,0.4l0.1,0.5l0,0.1l0-0.1l0-0.1l0-0.2l0-0.2l0-0.2l0-0.1l0-0.2l0-0.2
			l0-0.2l0-0.2l0-0.2l0-0.2l0-0.2l0-0.2l0,0l0-0.2l0-0.2l0-0.2l0-0.2l-0.1-0.4l-0.1-0.3l0-0.2l-0.1-0.4l-0.1-0.4l0-0.2l0-0.2
			l-0.1-0.4l0-0.2l0-0.2l0,0l0-0.2l0-0.2l0-0.2l0-0.2l0.1-0.2l0.1,0.1l0.1,0.2l0.1,0.2l0.1,0.2l0.1,0.2l0,0l0.1,0.2l0.1,0.2l0.1,0.4
			l0.1,0.2l0.1,0.2l0.1,0.4l0.1,0.4l0,0.2l0.1,0.3l0.1,0.4l0,0.2l0,0.2l0,0.2l0,0.2l0,0l0,0.2l0,0.2l0,0.2l0,0.2l0,0.2l0,0.2l0,0.2
			l0,0.2l0,0.1l0,0.2l0,0.2l0,0.2l0,0.1l0,0.2l0,0.2l0,0.2v0l0,0.1l0,0.1l0,0.1l0,0.1l0,0.1v0.1l0,0.1l0,0.1l0,0.1l0,0.1l0,0.1
			l0,0.1l0,0.1l0,0l0,0l0,0l0,0l0,0l0,0l0,0l0,0l0,0l0,0l0,0l0,0l0,0l0,0l0,0l0,0l0,0l0,0l0,0l-0.1,0l-0.1,0l0,0h-0.1h0l-0.1,0l0,0
			l-0.1,0l-0.1,0l0,0l0,0l0,0l0,0l0,0l0-0.1l0-0.1l0-0.1l0-0.1l0-0.1l0-0.1l0-0.1l-0.1-0.2l0,0l-0.1-0.2l-0.1-0.3l0-0.1l0-0.2
			l-0.1-0.3l-0.1-0.3l-0.1-0.5l-0.1-0.4l0-0.1l0-0.1l0-0.1l0-0.3l0-0.3l0-0.3l0-0.3l-0.1-0.6l0,0l-0.1-0.7l0-0.3l0-0.3l0-0.3l0-0.3
			l0-0.1l0-0.3l0-0.3l0-0.3l0-0.2l0-0.1l0.1,0l0.3,0l0.2,0L585.4,244.6z M586.4,252.4L586.4,252.4L586.4,252.4L586.4,252.4
			L586.4,252.4L586.4,252.4L586.4,252.4L586.4,252.4L586.4,252.4L586.4,252.4z M586.4,252.4L586.4,252.4L586.4,252.4L586.4,252.4z
			 M586.4,252.4L586.4,252.4L586.4,252.4L586.4,252.4L586.4,252.4z M586.4,252.4L586.4,252.4L586.4,252.4L586.4,252.4z"/>
		<path class="st26" d="M590.7,242.7l0.2,0.3l0.2,0.3l0.3,0.5l0.1,0.2l0.1,0.1l0.2,0.3l0.2,0.3l0.2,0.3l0.1,0.1l0.1,0.1l0,0l0.1,0.1
			l0.1,0.1l0.1,0.1l0.1,0.1l0.1,0.1l0.1,0.1l0.1,0.1l0.1,0.1l0,0.1l0.1,0.1l0.1,0.1l0.2,0.2l0.2,0.2l0,0l0-0.1l0-0.1l0-0.1l0-0.1
			l0-0.1l0-0.1L593,246l-0.1-0.2l-0.1-0.2l0-0.1l0-0.1l-0.1-0.2l-0.1-0.2l-0.1-0.2l-0.1-0.2l-0.1-0.2l-0.1-0.2l-0.1-0.2l-0.1-0.2
			l-0.1-0.2l-0.1-0.2l-0.1-0.2l-0.1-0.2l-0.2-0.3l-0.2-0.3l-0.4-0.7l-0.1-0.2l-0.1-0.1l-0.2-0.3l-0.2-0.3l-0.2-0.3l0.1-0.2l0.2,0.1
			l0.2,0.3l0.2,0.3l0.2,0.3l0.1,0.1l0.1,0.2l0.4,0.7l0.2,0.3l0.2,0.3l0.1,0.2l0.1,0.2l0.1,0.2l0.1,0.2l0.1,0.2l0.1,0.2l0.1,0.2
			l0.1,0.2l0.1,0.2l0.1,0.2l0.1,0.2l0.1,0.2l0,0.1l0,0.1l0.1,0.2l0.1,0.2l0.1,0.2l0,0.1l0,0.1l0,0.1l0,0.1l0,0.1l0,0.1l0,0.1l0,0.1
			l0,0.1l0,0.1l0,0.1l0,0.1l0,0.1l0,0.1l0,0.1l0,0.1l0,0.1v0.1l0,0.1l0,0.1l0,0.1l0,0l0,0l0,0l0,0l0,0l0,0l0,0l0,0l0,0l0,0l0,0l0,0
			l0,0l-0.1,0l-0.1,0l-0.1,0l0,0h0l0,0l0,0l0,0l0,0l0,0l0,0l0,0l0-0.1l-0.1-0.1l-0.1-0.1l-0.2-0.2l-0.2-0.2l-0.3-0.4l-0.2-0.2
			l-0.1-0.1l-0.1-0.1l0-0.1l-0.1-0.1l-0.1-0.1l-0.1-0.1l-0.1-0.1l-0.1-0.1l-0.1-0.1l-0.1-0.1l-0.1-0.1l0,0l-0.1-0.1l-0.1-0.1
			l-0.1-0.3l-0.1-0.3l-0.1-0.3l-0.1-0.1l-0.1-0.2l-0.3-0.6l-0.1-0.3l-0.1-0.3l-0.1-0.3l-0.1-0.2l0.1-0.1l0.3-0.1l0.1,0l0.1,0.2
			L590.7,242.7z"/>
		<path class="st26" d="M567,242L567,242l-0.1,0.1l-0.1,0.1l-0.1,0.1l-0.1,0.1l-0.1,0.1l-0.1,0.1l-0.1,0.1l-0.1,0.1l-0.1,0.1
			l-0.1,0.1l-0.1,0.1l-0.1,0.1l-0.1,0.1l-0.1,0.2l-0.1,0.1l-0.1,0.2l0,0l-0.1,0.1l-0.1,0.2l-0.1,0.2l-0.1,0.2l-0.1,0.2l-0.1,0.2
			l-0.1,0.2l-0.1,0.2l-0.1,0.2l-0.1,0.2l0,0.1l0,0.1l-0.1,0.2l-0.1,0.2l-0.1,0.2l-0.1,0.2l-0.1,0.2l-0.1,0.2l-0.1,0.2l-0.1,0.2
			l0,0.1l0,0l0,0.1l0,0.1l0,0.1l0,0.1l0,0.1l0,0.1l0,0.1l0,0.1l0,0.1l0,0.1l0,0l0,0l0,0l0,0l0,0l0,0l0,0l0,0l0.1-0.1l0.1-0.1l0,0
			l0.1-0.1l0.1-0.1l0.1-0.1l0.1-0.1l0.1-0.1l0.1-0.1l0.1-0.1l0.1-0.1l0.1-0.1l0.1-0.1l0.1-0.1l0.1-0.1l0.1-0.1l0.1-0.1l0.1-0.1
			l0.1-0.1l0.1-0.1l0.1-0.1l0.1-0.1l0.1-0.1l0.1-0.1l0.1-0.1l0.1-0.1l0-0.1l0,0l0.1-0.1l0.1-0.1l0.1-0.1l0.1-0.1l0.1-0.3l0.1-0.3
			l0.1-0.3l0.1-0.3l0.1-0.3l0.2-0.5l0.2-0.5l0.1-0.2l0.1-0.2l0.1-0.2l0.1-0.2l0.2-0.1l0.1,0.2l-0.1,0.2l-0.1,0.2l-0.1,0.2l-0.1,0.2
			l-0.2,0.5l-0.2,0.5l-0.1,0.3l-0.1,0.3l-0.1,0.3l-0.1,0.3l-0.1,0.3l-0.1,0.1l-0.1,0.1l-0.1,0.1l-0.1,0.1l0,0l0,0.1l-0.1,0.1
			l-0.1,0.1l-0.1,0.1l-0.1,0.1l-0.1,0.1l-0.1,0.1l-0.1,0.1l-0.1,0.1l-0.1,0.1l-0.1,0.1l-0.1,0.1l-0.1,0.1l-0.1,0.1l-0.1,0.1
			l-0.1,0.1l-0.1,0.1l-0.1,0.1l-0.1,0.1l-0.1,0.1l-0.1,0.1l-0.1,0.1l-0.1,0.1l-0.1,0.1l0,0l-0.1,0.1l-0.1,0.1l-0.1,0l0,0l-0.1,0
			l-0.1,0l-0.1,0l-0.1,0l-0.1,0l-0.1,0l-0.1,0l-0.1,0l-0.1,0l-0.1,0l-0.1,0l-0.1,0l-0.1,0l-0.1,0l-0.1,0l-0.1,0l-0.1,0l-0.1,0l0,0
			l0,0l0,0l0,0l0,0l0,0l0,0l0,0l0-0.1l0,0l0,0l0,0l0,0l0,0l0,0l0-0.1l0-0.1l0-0.1l0-0.1l0-0.1l0-0.1l0,0l0,0l0-0.1l0-0.1l0-0.1
			l0-0.1l0-0.1l0-0.1l0-0.1l0,0l0-0.1l0.1-0.2l0.1-0.2l0.1-0.2l0.1-0.2l0.1-0.2l0.1-0.2l0.1-0.2l0.1-0.2l0-0.1l0-0.1l0.1-0.2
			l0.1-0.2l0.1-0.2l0.1-0.2l0.1-0.2l0.1-0.2l0.1-0.2l0.1-0.2l0.1-0.2l0.1-0.1l0,0l0.1-0.2l0.1-0.2l0.1-0.1l0.1-0.1l0.1-0.1l0.1-0.1
			l0.1-0.1l0.1-0.1l0.1-0.1l0.1-0.1l0.1-0.1l0.1-0.1l0.1-0.1l0.1-0.1l0.1-0.1l0.1-0.1l0,0l0.2-0.1l0.2,0l0,0.2L567,242z"/>
		<path class="st26" d="M578.8,272.2l-0.3,0.6l-0.3,0.6l-0.3,0.6l-0.3,0.6l-0.3,0.6l-0.1,0.1l-0.2,0.5l-0.3,0.6l-0.3,0.6l-0.6,1.2
			l-0.6,1.2l-1.3,2.4l0,0.1l-0.6,1.1l-0.6,1.2l-0.3,0.6l-0.3,0.6l-0.3,0.6l-0.3,0.6l-0.3,0.6l-0.3,0.6l-0.3,0.6l-0.3,0.6l-0.3,0.6
			l-0.3,0.6l-0.3,0.6l0,0.1l-0.3,0.5l-0.3,0.6l-0.3,0.6l-0.3,0.6l-0.3,0.6l-0.3,0.6l-0.3,0.6l-0.3,0.6l-0.3,0.6l-0.3,0.6l-0.3,0.6
			l-0.1,0.3l-0.1,0.3l-0.1,0.3l-0.1,0.3l-0.1,0.3l-0.1,0.3l-0.1,0.3l-0.1,0.3l-0.1,0.3l-0.1,0.3l-0.1,0.3l-0.1,0.3l0,0l-0.1,0.3
			l-0.1,0.3l-0.1,0.3l-0.1,0.3l-0.1,0.3l-0.1,0.3l-0.1,0.3l-0.1,0.3l-0.1,0.3l-0.1,0.3l-0.1,0.3l-0.1,0.3l-0.1,0.3l-0.1,0.3
			l-0.1,0.3l-0.1,0.3l-0.1,0.3l-0.1,0.3l-0.1,0.3l-0.1,0.3l-0.1,0.3l-0.1,0.3l-0.1,0.3l-0.1,0.3l-0.1,0.3l-0.1,0.3l-0.1,0.3
			l-0.1,0.3l-0.1,0.3l-0.1,0.3l-0.1,0.3l-0.1,0.3l0,0.2l0,0.2v0l0,0.2l0,0.2l0,0.2l0,0.2l0,0.2l0,0.2l0,0.2l0,0.2l0,0.2l0,0.2l0,0.2
			l0,0.2l0,0.2l0,0.2l0,0.2l0,0.2l0,0.2l0,0.2l0,0.2l0,0.2l0,0.2l0,0.2l0,0.3l0,0.3v0.3l0,0.3l0,0.3l0,0.3l0,0.3l0,0.3l0,0.7l0,0.7
			l0,0.3l0,0.3l0,0.3l0,0.3l0,0.4l0,0.3l0,0.3l0,0.2l0,0.2l0,0.2l0,0.2l0,0.2l0,0.2l0,0.2l0,0.2l0,0.2l0,0.2l0,0.2l0,0.2l0,0.2
			l0,0.2l0,0.2l0,0.2l0,0.2l0,0.2l0,0.2l0,0.2l0,0.2l0,0.2l0,0.2l0,0.2l0,0.2l0,0.2l0,0l0,0.2l0,0.2l0,0.2l0,0.2l0,0.2l0,0.2l0,0.2
			l0,0.2l0,0.2l0,0.2l0,0.2l0,0.2l0,0.2l0,0.2l-0.1,0.4l-0.1,0.4l-0.1,0.4l-0.1,0.4l-0.1,0.4l-0.1,0.4l-0.1,0.4l-0.1,0.4L559,335
			l-0.1,0.4l-0.1,0.4l-0.1,0.4l-0.1,0.4l-0.1,0.3l-0.1,0.3l-0.1,0.3L558,338l-0.1,0.3l-0.1,0.3l-0.1,0.3l-0.1,0.3l-0.1,0.3l-0.1,0.3
			l-0.1,0.3l-0.1,0.3l-0.1,0.3l-0.1,0.3l-0.1,0.3l-0.1,0.3l-0.1,0.3l-0.1,0.3l-0.1,0.3l-0.1,0.3l-0.1,0.3l-0.1,0.3l-0.1,0.3
			l-0.1,0.3l-0.1,0.3l-0.1,0.3l-0.1,0.3l-0.1,0.3l-0.3,0.6l-0.1,0.2l-0.2,0.4l-0.3,0.6l-0.3,0.6l-0.3,0.6l-0.3,0.6l-0.3,0.6
			l-0.3,0.6l-0.6,1.2l-0.6,1.2l-0.3,0.6l-0.3,0.6l-0.3,0.6l-0.3,0.6l-0.3,0.6l-0.3,0.6L549,356l-0.2,0.3l-0.2,0.3l-0.2,0.3l-0.3,0.7
			l-0.3,0.7l-0.3,0.7l-0.3,0.7l-0.3,0.7l-0.3,0.7l-0.3,0.7l-0.3,0.7l-0.3,0.7l-0.3,0.7l-0.3,0.7l-0.3,0.7l-0.6,1.3l-0.6,1.3
			l-0.6,1.3l-0.6,1.3l-0.3,0.7l-0.3,0.7l-0.3,0.7l-0.3,0.7l-0.3,0.6l-0.1,0.1l-0.3,0.7l-0.3,0.7l-0.3,0.7l-0.3,0.7l-0.3,0.7
			l-0.4,0.2l-0.1-0.4l0.3-0.7l0.3-0.7l0.3-0.7l0.3-0.7l0.3-0.7l0-0.1l0.3-0.6l0.3-0.7l0.3-0.7l0.3-0.7l0.3-0.7l0.6-1.3l0.6-1.3
			l0.6-1.3l0.6-1.3l0.3-0.7l0.3-0.7l0.3-0.7l0.3-0.7l0.3-0.7l0.3-0.7l0.3-0.7l0.3-0.7l0.3-0.7l0.3-0.7l0.3-0.7l0.3-0.7l0.2-0.3
			l0.2-0.3l0.2-0.3l0.2-0.3l0.3-0.6l0.3-0.6l0.3-0.6l0.3-0.6l0.3-0.6l0.3-0.6l0.6-1.2l0.6-1.2l0.3-0.6l0.3-0.6l0.3-0.6l0.3-0.6
			l0.3-0.6l0.3-0.6l0.2-0.4l0.1-0.2l0.3-0.6l0.1-0.3l0.1-0.3l0.1-0.3l0.1-0.3l0.1-0.3l0.1-0.3l0.1-0.3l0.1-0.3l0.1-0.3l0.1-0.3
			l0.1-0.3l0.1-0.3l0.1-0.3l0.1-0.3l0.1-0.3l0.1-0.3l0.1-0.3l0.1-0.3l0.1-0.3l0.1-0.3l0.1-0.3l0.1-0.3l0.1-0.3l0.1-0.3l0.1-0.3
			l0.1-0.3l0.1-0.3l0.1-0.3l0.1-0.4l0.1-0.4l0.1-0.4l0.1-0.4l0.1-0.4l0.1-0.4l0.1-0.4l0.1-0.4l0.1-0.4l0.1-0.4l0.1-0.4l0.1-0.4
			l0.1-0.4l0-0.2l0-0.2l0-0.2l0-0.2l0-0.2l0-0.2l0-0.2l0-0.2l0-0.2l0-0.2l0-0.2l0-0.2l0-0.2l0-0.2v0l0-0.2l0-0.2l0-0.2l0-0.2l0-0.2
			l0-0.2l0-0.2l0-0.2l0-0.2l0-0.2l0-0.2l0-0.2l0-0.2l0-0.2l0-0.2l0-0.2l0-0.2l0-0.2l0-0.2l0-0.2l0-0.2l0-0.2l0-0.2l0-0.2l0-0.2
			l0-0.2l0-0.3l0-0.3V321l0-0.3l0-0.3l0-0.3l0-0.3l0-0.7l0-0.7l0-0.3l0-0.3l0-0.3l0-0.3l0-0.3v-0.3l0-0.3l0-0.3l0-0.2l0-0.2l0-0.2
			l0-0.2l0-0.2l0-0.2l0-0.2l0-0.2l0-0.2l0-0.2l0-0.2l0-0.2l0-0.2l0-0.2l0-0.2l0-0.2l0-0.2l0-0.2l0-0.2l0-0.2l0-0.2l0-0.2l0,0l0-0.2
			l0-0.2l0.1-0.3l0.1-0.3l0.1-0.3l0.1-0.3l0.1-0.3l0.1-0.3l0.1-0.3l0.1-0.3l0.1-0.3l0.1-0.3l0.1-0.3l0.1-0.3l0.1-0.3l0.1-0.3
			l0.1-0.3l0.1-0.3l0.1-0.3l0.1-0.3l0.1-0.3l0.1-0.3l0.1-0.3l0.1-0.3l0.1-0.3l0.1-0.3l0.1-0.3l0.1-0.3l0.1-0.3l0.1-0.3l0.1-0.3
			l0.1-0.3l0.1-0.3l0.1-0.3l0,0l0.1-0.3l0.1-0.3l0.1-0.3l0.1-0.3l0.1-0.3l0.1-0.3l0.1-0.3l0.1-0.3l0.1-0.3l0.1-0.3l0.1-0.3l0.1-0.3
			l0.3-0.6l0.3-0.6l0.3-0.6l0.3-0.6l0.3-0.6l0.3-0.6l0.3-0.6l0.3-0.6l0.3-0.6l0.3-0.6l0.3-0.5l0-0.1l0.3-0.6l0.3-0.6l0.3-0.6
			l0.3-0.6l0.3-0.6l0.3-0.6l0.3-0.6l0.3-0.6l0.3-0.6l0.3-0.6l0.3-0.6l0.6-1.2l0.6-1.1l0.1-0.1l1.3-2.4l0.6-1.2l0.6-1.2l0.3-0.6
			l0.3-0.6l0.2-0.4l0.1-0.1l0.3-0.6l0.3-0.6l0.3-0.6l0.3-0.6l0.3-0.6l0.2-0.1L578.8,272.2z"/>
		<path class="st26" d="M595.9,244.5l0.1,0.1l0.3,0.3l0.3,0.3l0.3,0.3l0.2,0.3l0.2,0.3l0.2,0.3l0.2,0.3l0.2,0.3l0.2,0.3l0.2,0.3
			l0.2,0.3l0.2,0.3l0.2,0.3l0.2,0.3l0.2,0.3l0.2,0.3l0.2,0.3l0.2,0.3l0.2,0.4l0.2,0.4l0.2,0.4l0.2,0.4l0.2,0.4l0.2,0.4l0.2,0.4
			l0.2,0.4l0.2,0.4l0.2,0.4l0.2,0.4l0.2,0.4l0.2,0.4l0.2,0.4l0.2,0.4l0.2,0.4l0.2,0.4l0.2,0.4l0.2,0.4l0.2,0.4l0.2,0.4l0.1,0.4
			l0.1,0.4l0.1,0.4l0.1,0.4l0.1,0.4l0.1,0.4l0.1,0.4l0.1,0.4l0.1,0.4l0.1,0.3l0,0.1l0.1,0.4l0.1,0.4l0.1,0.4l0.1,0.4l0.1,0.4
			l0.1,0.4l0.1,0.4l0.1,0.4l0.1,0.4l0.1,0.4l0.1,0.4l0.1,0.4l0.1,0.4l0.1,0.4l0.1,0.2l0,0.2l0.1,0.4l0.1,0.4l0.1,0.4l0.1,0.4
			l0.1,0.4l0.1,0.4l0.1,0.4l0.1,0.4l0.1,0.4l0.1,0.4l0.1,0.4l0.1,0.4l0.1,0.4l0.1,0.4l0.1,0.4l0.1,0.4l0.1,0.4l0,0.4l0,0.4l0,0.4
			l0,0.4l0,0.4l0,0.4l0,0.4l0,0.4l0,0.4l0,0.4l0,0.4l0,0.4l0,0.4l0,0.4l0,0.4l0,0.4l0,0.4l0,0.4l0,0.4l0,0.4l0,0.4l0,0.4l0,0.4
			l0,0.4l0,0.4l0,0.4l0,0.4l0,0.4l0,0.4l0,0.4l0,0.4l0,0.4l0,0.4l0,0.4l0,0.4l0,0.4l0,0.4l0,0.4l0,0.4l0,0.4l0,0l0,0.4l0,0.4l0,0.4
			l0,0.4l0,0.4l0,0.4l0,0.4l0,0.4l0,0.4l0,0.4l0,0.4l0,0.4l0,0.4l0,0.4l0,0.4l0,0.4l0,0.4l0,0.4l-0.1,0.8l-0.1,0.8l-0.1,0.8
			l-0.1,0.8l-0.2,1.5l-0.1,0.8l-0.1,0.8l-0.1,0.8l-0.1,0.8l0,0.4l0,0.4l0,0.4l0,0.4l0,0.4l0,0.4l0,0.4l0,0.4l0,0.4l0,0.4l0,0.4
			l0,0.4l0,0.4l0,0.4l0,0.4l0,0.4l0,0.4l0,0.4l0,0.4l0,0.4l0,0.4l0,0.4l0,0.4v0.4l0,0.4l0,0.4l0,0.4l0,0.4l0,0.4l0,0.4l0,0.4l0,0.2
			l0,0.2l0,0.3l0,0.3l0,0.3l0,0.3l0,0.3l0,0.3l0,0.3l0,0.3l0,0.3l0.1,0.3l0.1,0.3l0.1,0.3l0.1,0.3l0.1,0.3l0.1,0.3l0.1,0.3l0,0.1
			l0,0.1l0.1,0.3l0.1,0.3l0.1,0.3l0.1,0.3l0.1,0.3l0.1,0.3l0.1,0.3l0.1,0.3l0.1,0.3l0.2,0.6l0.2,0.6l0.2,0.6l0.2,0.6l0.2,0.6
			l0.3,1.1l0.2,0.6l0.2,0.6l0.2,0.6l0.1,0.3l0.1,0.3l0.1,0.3l0.1,0.3l0.1,0.3l0.1,0.3l0.1,0.3l0.1,0.3l0.1,0.3l0.1,0.3l0.1,0.3
			l0.1,0.3l0.1,0.3l0.1,0.3l0.1,0.3l0.1,0.3l0.1,0.3l0.1,0.3l0.1,0.6l0.1,0.6l0.1,0.6l0.1,0.6l0.1,0.6l0.1,0.6l0.1,0.6l0.1,0.6
			l0.1,0.6l0.1,0.6l0.1,0.6l0.1,0.6l0.1,0.6l0.1,0.6l0.1,0.6l0.1,0.6l0.1,0.6l0.1,0.6l0.1,0.6l0.1,0.6l0.1,0.6l0.1,0.6l0.1,0.6
			l0,0.6l0,0.6l0,0.6l0,0.6l0,0.6l0,0.6l0,0.6l0,0.6l0,0.6l0,0.6l0,0.6l0,0.6l0,0.6l0,0.6l0,0.6l0,0.6l0,0.6l0,0.6l0,0.6l0,0.6
			l0,0.6l0,0.6l0,0.6l0,0.6l0,0.6l0,0.6l0,0.6l0,0.6l0,0.6l0,0.6l0,0.6l0,0.6l0,0.6l0,0.6l0,0.6l0,0.6l0,0.6l0,0.6l0,0.6l0,0.1
			l-0.1,0.5l0,0.2l-0.2,0.4l-0.3,0.3l-0.2-0.4l-0.1-0.4l0-0.2l0-0.5l0-0.1l0-0.6l0-0.6l0-0.6l0-0.6l0-0.6l0-0.6l0-0.6l0-0.6l0-0.6
			l0-0.6l0-0.6l0-0.6l0-0.6l0-0.6l0-0.6l0-0.6l0-0.6v-0.6l0-0.6l0-0.6l0-0.6l0-0.6l0-0.6l0-0.6l0-0.6l0-0.6l0-0.6l0-0.6l0-0.6l0-0.6
			l0-0.6l0-0.6l0-0.6l0-0.6l0-0.6l0-0.6l0-0.6l0-0.6l-0.1-0.6l-0.1-0.6l-0.1-0.6l-0.1-0.6l-0.1-0.6l-0.1-0.6l-0.1-0.6l-0.1-0.6
			l-0.1-0.6l-0.1-0.6l-0.1-0.6l-0.1-0.6l-0.1-0.6l-0.1-0.6l-0.1-0.6l-0.1-0.6l-0.1-0.6l-0.1-0.6l-0.1-0.6l-0.1-0.6l-0.1-0.6
			l-0.1-0.6l-0.1-0.6l-0.1-0.6l-0.1-0.3l-0.1-0.3l-0.1-0.3l-0.1-0.3l-0.1-0.3l-0.1-0.3l-0.1-0.3l-0.1-0.3l-0.1-0.3l-0.1-0.3
			l-0.1-0.3l-0.1-0.3l-0.1-0.3l-0.1-0.3l-0.1-0.3l-0.1-0.3l-0.1-0.3l-0.1-0.3l-0.2-0.6l-0.2-0.6l-0.2-0.6l-0.3-1.1l-0.2-0.6
			l-0.2-0.6l-0.2-0.6l-0.2-0.6l-0.2-0.6l-0.1-0.3l-0.1-0.3l-0.1-0.3l-0.1-0.3l-0.1-0.3l-0.1-0.3l-0.1-0.3l-0.1-0.3l-0.1-0.3l0-0.1
			l0-0.1l-0.1-0.3l-0.1-0.3l-0.1-0.3l-0.1-0.3l-0.1-0.3l-0.1-0.3l-0.1-0.3l-0.1-0.3l0-0.3l0-0.3l0-0.3l0-0.3l0-0.3l0-0.3l0-0.3
			l0-0.3l0-0.2l0-0.2l0-0.4l0-0.4l0-0.4l0-0.4l0-0.4l0-0.4l0-0.4l0-0.4l0-0.4l0-0.4l0-0.4l0-0.4l0-0.4l0-0.4l0-0.4l0-0.4l0-0.4
			l0-0.4l0-0.4l0-0.4l0-0.4l0-0.4l0-0.4l0-0.4l0-0.4l0-0.4l0-0.4l0-0.4l0-0.4l0-0.4l0-0.4l0.1-0.8l0.1-0.8l0.1-0.8l0.1-0.8l0.2-1.5
			l0.1-0.8l0.1-0.8l0.1-0.8l0.1-0.8l0-0.4l0-0.4l0-0.4l0-0.4l0-0.4l0-0.4l0-0.4l0-0.4l0-0.4l0-0.4l0-0.4l0-0.4l0-0.4l0-0.4l0-0.4
			l0-0.4l0-0.4l0-0.4v0l0-0.4l0-0.4l0-0.4l0-0.4l0-0.4l0-0.4l0-0.4l0-0.4l0-0.4l0-0.4v-0.4v-0.4l0-0.4l0-0.4l0-0.4l0-0.4l0-0.4
			l0-0.4l0-0.4l0-0.4l0-0.4l0-0.4l0-0.4l0-0.4l0-0.4l0-0.4l0-0.4l0-0.4l0-0.4l0-0.4l0-0.4l0-0.4l0-0.4l0-0.4l0-0.4l0-0.4l0-0.4
			l0-0.4l0-0.4l0-0.4l-0.1-0.4l-0.1-0.4l-0.1-0.4l-0.1-0.4l-0.1-0.4l-0.1-0.4l-0.1-0.4l-0.1-0.4l-0.1-0.4l-0.1-0.4l-0.1-0.4
			l-0.1-0.4l-0.1-0.4l-0.1-0.4l-0.1-0.4l-0.1-0.4l-0.1-0.4l0-0.2l0-0.2l-0.1-0.4l-0.1-0.4l-0.1-0.4l-0.1-0.4l-0.1-0.4l-0.1-0.4
			l-0.1-0.4l-0.1-0.4l-0.1-0.4l-0.1-0.4l-0.1-0.4l-0.1-0.4l-0.1-0.4l-0.1-0.4l0-0.1l-0.1-0.3l-0.1-0.4l-0.1-0.4l-0.1-0.4l-0.1-0.4
			l-0.1-0.4l-0.1-0.4l-0.1-0.4l-0.1-0.4l-0.1-0.4l-0.1-0.4l-0.1-0.4l-0.1-0.4l-0.1-0.4l-0.2-0.4l-0.2-0.4l-0.2-0.4l-0.2-0.4
			l-0.2-0.4l-0.2-0.4v0l-0.2-0.4l-0.2-0.4l-0.2-0.4l-0.2-0.4l-0.2-0.4l-0.2-0.4l-0.2-0.4l-0.2-0.4l-0.2-0.4l-0.2-0.4l-0.2-0.3
			l-0.2-0.3l-0.2-0.3l-0.2-0.3l-0.2-0.3l-0.2-0.3l-0.2-0.3l-0.2-0.3l-0.2-0.3l-0.2-0.3l-0.2-0.3l-0.2-0.3l-0.2-0.3l-0.2-0.3
			l-0.2-0.3l-0.2-0.3l-0.2-0.3l-0.2-0.3l-0.2-0.3l-0.1-0.1l0.1-0.4l0.2-0.2L595.9,244.5z"/>
		<path class="st3" d="M573.7,188.1c0,0-8.2,9.4-10.1,14.5c-1.9,5.1-1.1,8.1,1.2,10.7c0,0-0.9,17-1.4,21.4c-0.5,4.3-1.6,5.9,0.1,7.8
			c0,0,3.5,14.5,29.9,2.2c0,0,7.9-3.1,5-7.5c-2.9-4.5-5-6.9-5-12.1c0-0.9,9.4-31.1-0.7-34.1l-4.8-1.7
			C587.9,189.2,574.3,196.6,573.7,188.1z"/>
		<path class="st3" d="M567.1,202.6l-4.5,2.8c0,0-6-7.8-8.1-20.6c-2.1-12.8-2.4-43.6,7.2-59.5l6.5,2.1c0,0,0.4,6.5-1,15.4
			c-1.1,7.2-1.5,19.2,1.9,32.4c0.7,2.6,5.4,12.9,5.4,12.9S570.2,201.9,567.1,202.6z"/>
		<g transform="matrix(-0.918454,0.395527,-0.395527,-0.918454,888.385,234.511)">
			<path class="st3" d="M258.1,153.4l-4.5,2.8c0,0-6-7.8-8.1-20.6c-2.1-12.8-2.4-43.6,7.2-59.5l6.5,2.1c0,0,0.4,6.5-1,15.4
				c-1.1,7.2-1.5,19.2,1.9,32.4c0.7,2.6,5.4,12.9,5.4,12.9S261.2,152.8,258.1,153.4z"/>
		</g>
	</g>
	<g transform="matrix(1.05026,0,0,1.05026,-45.5066,1.03408)">
		<g transform="matrix(1,0,0,0.929783,-2.95889,11.0544)">
			<path class="st18" d="M227.4,137c0,0-10.8-3.4-14.3,11.8c-2.7,11.7-2.6,24.6-9.9,32.7c-14.4,16-6.7,39.2,10.5,44.9
				c25.9,8.6,46-14.1,37.3-41.6C243,159.5,251.4,139.4,227.4,137z"/>
		</g>
		<g transform="matrix(1.01998,-0.0819875,0.0821468,1.018,-15.0593,124.657)">
			<path class="st10" d="M235.6,131.7c0.9-4.7-29.8-16.2-31.2-9.7c-1.4,6.5-5.2,38.2-6.5,45.8c-1.4,8.5-1,17.9-3.1,26.2
				c-3.8,15.2-20.7,63-26.3,77.9c-3.5,9.2,3.3,4.1,4.3,5.1c0.1,0.1,27.5-42.3,33.8-55.3c3.3-6.8,3.4-21.8,3.8-22.5
				C214.9,190.1,233.3,143.3,235.6,131.7z"/>
		</g>
		<g transform="matrix(0.608557,-0.724811,0.744711,0.51742,-169.232,386.563)">
			<path class="st1" d="M205.6,300c0.5-0.3,3.7-2.1-0.3-2.5c-2.1-0.2-7.8-2.2-11.4-8.6c-1.7-2.9-2.1-3.3-4-3.9
				c-1.4-0.4-2.1,1.1-3.1,1.5c10.6,17.6,19.2,21.3,20.3,21.6c2.2-2.4,1.2-3.3,2.6-3.9C209.9,303.3,206.9,300.8,205.6,300z"/>
			<g>
				<defs>
					<path id="SVGID_17_" d="M205.6,300c0.5-0.3,3.7-2.1-0.3-2.5c-2.1-0.2-7.8-2.2-11.4-8.6c-1.7-2.9-2.1-3.3-4-3.9
						c-1.4-0.4-2.1,1.1-3.1,1.5c10.6,17.6,19.2,21.3,20.3,21.6c2.2-2.4,1.2-3.3,2.6-3.9C209.9,303.3,206.9,300.8,205.6,300z"/>
				</defs>
				<clipPath id="SVGID_18_">
					<use xlink:href="#SVGID_17_"  style="overflow:visible;"/>
				</clipPath>
				<g class="st27">
					<g transform="matrix(1.00164,-0.157258,0.158597,0.973461,-35.845,38.8208)">
						<path class="st6" d="M191.1,302.7c0.5,0.4,1,0.8,1.5,1.1c1.7,1.3,4.3,2.9,4.4,2.9c1.9,1.1,2.2,6-4.8,0.6
							c-9.7-5.9-14.4-16.5-17.3-27.6l-0.7-4l0.3-0.7l0.9,1.3c0.6,1.7,1.1,3.3,1.6,5l0-2.5c0.2-0.8,0.5-1,1.3-0.7
							c1.3,0.6,0.7,1.7,0.7,1.7c0.4,2.2,0.9,4.4,1.5,6.5c1.3,1.4,7.4,5.8,8.8,10.8c0,0,1,2.5,1.4,4
							C190.8,301.7,191,302.2,191.1,302.7z M181.4,288.9c1.8,4.7,4.4,9,8.1,12.4c-0.4-1.9-0.9-3.6-1.4-5.3c-0.7-2.1-2.2-3.4-2.7-3.8
							c-1-0.9-1.7-1.2-2.2-1.7C182.4,289.9,181.9,289.4,181.4,288.9z M189.7,299.1l0.5,1.3C190.1,300.5,189.6,298.9,189.7,299.1z"/>
					</g>
				</g>
			</g>
		</g>
		<g transform="matrix(0.0632733,-0.923548,0.776491,-0.0227788,75.5301,346.612)">
			<path class="st10" d="M219.9,134.7c1.4,2,2.2,5.8-2.8,4.6c-9.8-2.5-32.6-6.7-33.8-4.3c-4,8.3-6.1,19-4.5,27.7
				c4.5,24.8-16.1,12.7-16.8,5.3c-1.1-11.9,1.3-31.1,10.4-48.8C176.2,111.6,218.3,132.4,219.9,134.7z"/>
		</g>
		<g transform="matrix(1.02328,0,0,1.0213,-7.1159,112.911)">
			<path class="st10" d="M231.7,56.8c-1.9,1.1-8.4,2.6-14.4-0.8c-0.3-0.2-1.4-6-0.2-10.9c3.5-13.6,6.1-16.8,14.2-15.2
				c0,0,12,1,12.1,9.8c0.1,8-3.5,12.3-7.8,15.4C234.3,55.8,232.9,56.1,231.7,56.8z"/>
		</g>
		<g transform="matrix(0.737256,0,0,0.866139,40.9011,120.428)">
			<path class="st18" d="M243,21.3c-4.4,1.1-4.5,13.6,4.5,17.4c14.7,6.2,8.6,24.4,10.7,22.2c7.3-7.7,16.3-11.9,15.2-21.4
				C271.5,23.1,251.3,19.3,243,21.3z"/>
		</g>
		<g transform="matrix(1.02328,0,0,1.0213,-7.1159,112.911)">
			<path class="st10" d="M230.9,54.4c1.1-4.5-10.5-7.5-10.3-1.6c0.2,3.9,0,9.1,0,12.1c0,1.9-0.9,2.9,0,5.7
				c0.9,2.7,14.8,0.6,11.3-4.8C229.5,62.2,229.8,58.5,230.9,54.4z"/>
		</g>
		<g transform="matrix(1.02328,0,0,1.0213,-7.1159,112.911)">
			<path class="st10" d="M214,144.3c-7.6-0.3-8.9-12-8.9-35.3c0-5-0.7-16.1-0.1-20.7c0.1-0.8-4.8-9,6.1-17.8c2.4-1.9,6.9-9.2,7.2-9
				c2.7,1.1,9,2.5,14.5,1.7c0.2,0,10.2,14.3,10.1,14.7c-1,4.3-11.4,27.4-11.3,31c0.1,4.3,15.9,14.8,15.7,16.5
				C246.6,131.1,219.8,144.5,214,144.3z"/>
		</g>
		<g transform="matrix(1.02328,0,0,1.0213,-7.1159,112.911)">
			<path class="st10" d="M216.5,134.9c0,0,18.9,46.3,21.3,55.8c1.3,5.1,4,10.3,4.6,15.6c1.5,13.8,4.6,56.1,4.2,65.5
				c0,0.7,1,6.6,2.8,5.7c2.6-1.3,2.7-5.8,3.2-8.2c1.5-7.5,8.5-33.6,9.3-38.4c2-12-2.6-23.7-7.7-34c-1-2,2.7-19.8,2.9-38.6
				c0.2-16.3-6.1-39.3-27.4-49.5c-1-0.5-23.7,7.7-23.7,7.7S207.8,124,216.5,134.9z"/>
		</g>
		<path class="st3" d="M216.1,175.6l-12,14.1c0,0-6.1,4.7-2.4,12.9l0.1,26.8c0,0-2.9,47.8-7.8,63.6c0,0,37.3,16,67.5-3.3
			c0,0-1.2-45.2-28.8-65.6l3.1-15.3c0,0-5.9-14.8-2.9-31.4H229c0,0-8,8.1-11.5,9c0,0-1-6.1,1.1-10.8"/>
		<g transform="matrix(-1.04048,-0.0012651,-0.124039,-0.899813,347.495,287.919)">
			<path class="st10" d="M105.5,7c3.7,0-12.3,55.9-11.7,59.5c1.2,7.4,3.1,16.8,3.7,22.7c1.7,14.9,2.3,22.6-1.5,32.8
				c0,0.1-5.5-2.3-7.4-10.5c-2.5-11.4-6.3-42.1-4.9-47.6C90.7,38,101,7.8,104.9,7C105,7,105.1,7,105.5,7z"/>
		</g>
		<g transform="matrix(0.657923,-0.680494,0.706575,0.568204,-123.228,366.497)">
			<path class="st1" d="M224.3,317.4c0.5-0.3,1.9-5.9-3.6-3.9c-2,0.8-5.2-3.1-7.1-3.7c-1.4-0.4-2.1,1.1-3.1,1.5
				c7.7,10.5,12.3,11.6,13.3,11.9c2.2-2.4,1.2-3.3,2.6-3.9C226.7,318.4,225.5,318.2,224.3,317.4z"/>
			<g>
				<defs>
					<path id="SVGID_19_" d="M224.3,317.4c0.5-0.3,1.9-5.9-3.6-3.9c-2,0.8-5.2-3.1-7.1-3.7c-1.4-0.4-2.1,1.1-3.1,1.5
						c7.7,10.5,12.3,11.6,13.3,11.9c2.2-2.4,1.2-3.3,2.6-3.9C226.7,318.4,225.5,318.2,224.3,317.4z"/>
				</defs>
				<clipPath id="SVGID_20_">
					<use xlink:href="#SVGID_19_"  style="overflow:visible;"/>
				</clipPath>
				<g class="st28">
					<g transform="matrix(0.954999,-0.409602,0.389592,0.880024,-70.724,119.154)">
						<path class="st6" d="M186.2,321.2c0.5,0.4,1,0.8,1.5,1.1c1.7,1.3,4.3,2.9,4.4,2.9c1.9,1.1,2.2,6-4.8,0.6
							c-9.7-5.9-14.4-16.5-17.3-27.6l-0.7-4l0.3-0.7l0.9,1.3c0.6,1.7,1.1,3.3,1.6,5l0-2.5c0.2-0.8,0.5-1,1.3-0.7
							c1.3,0.6,0.7,1.7,0.7,1.7c0.4,2.2,0.9,4.4,1.5,6.5c1.3,1.4,7.4,5.8,8.8,10.8c0,0,1,2.5,1.4,4
							C185.9,320.2,186.1,320.7,186.2,321.2z M176.5,307.4c1.8,4.7,4.4,9,8.1,12.4c-0.4-1.9-0.9-3.6-1.4-5.3
							c-0.7-2.1-2.2-3.4-2.7-3.8c-1-0.9-1.7-1.2-2.2-1.7C177.6,308.4,177,307.9,176.5,307.4z M184.8,317.6l0.5,1.3
							C185.3,319,184.7,317.4,184.8,317.6z"/>
					</g>
				</g>
			</g>
		</g>
		<g transform="matrix(0.91611,-0.457877,0.575431,0.985715,-208.202,280.825)">
			<path class="st10" d="M403.6,51.1c0,0,10.5-9.7,15.2-14.9c0,0,1.3-0.9-0.2,1.3s-3.5,5.1-3.5,5.1s4.9-4.7,6.4-6.2
				c1.5-1.5-0.9,3.1-5,6.7c0,0,4.9-4.3,6.8-5.7c1.2-0.9-1,2.6-5.8,6.7c0,0,4-3,6.4-4.4c1.4-0.8,2.3-0.1-5.6,5.6
				c-0.8,0.6-1.6,1-2.2,1.9c0,0,2-1,3.6,0.1c0,0,0,0.7-1,0.8c-0.9,0.1-2.3,0.5-4,1.8c-1.6,1.4-2.3,2.5-4.8,2.3
				C407.3,52,403.6,51.1,403.6,51.1z"/>
		</g>
		<g transform="matrix(-0.713154,0.845831,-1.07818,-0.718528,478.847,1.82976)">
			<path class="st10" d="M325,3.9c0,0,9.3-7.3,14-12.5c0,0,1.3-0.9-0.2,1.3s-3.5,5.1-3.5,5.1s4.9-4.7,6.4-6.2c1.5-1.5-0.9,3.1-5,6.7
				c0,0,4.9-4.3,6.8-5.7c1.2-0.9-1,2.6-5.8,6.7c0,0,4-3,6.4-4.4c1.4-0.8,2.3-0.1-5.6,5.6c-0.8,0.6-1.6,1-2.2,1.9c0,0,2-1,3.6,0.1
				c0,0,0,0.7-1,0.8c-0.9,0.1-2.3,0.5-4,1.8c-1.6,1.4-2.7,2.2-5.2,2.6C323.3,8.6,325,3.9,325,3.9z"/>
		</g>
	</g>
	<path class="st3" d="M424.1,151.1c-2.3-0.5-8.4-1.5-11.6,0.7c-2.2,1.5-6.8,5-6.8,5s-0.5,1.5,0.6,1c2.1-0.8,12.1-1.9,23.9,5.6
		c0,0,0.8,0.7,1.9,0c2.1-1.5,4.5-2.8,4.5-2.8S433.8,153.3,424.1,151.1z"/>
	<path class="st29" d="M420,150.1l0.2,0l0.2,0l0.2,0l0.2,0l0.2,0l0.2,0l0.2,0l0.2,0l0.2,0l0.2,0l0.2,0l0.2,0l0.1,0l0.1,0l0.2,0
		l0.2,0l0.2,0l0.2,0l0.2,0l0.2,0l0.2,0l0.2,0l0.2,0l0.2,0.1l0.2,0.1l0.2,0.1l0.2,0.1l0.2,0.1l0.2,0.1l0.2,0.1l0.2,0.1l0.2,0.1
		l0.2,0.1l0.2,0.1l0.2,0.1l0.2,0.1l0.2,0.1l0.1,0l0.1,0l0.2,0.1l0.2,0.1l0.2,0.1l0.2,0.1l0.2,0.1l0.2,0.1l0.2,0.1l0.2,0.1l0.2,0.1
		l0.2,0.1l0.2,0.1l0.2,0.1l0.2,0.1l0.2,0.1l0.2,0.1l0.2,0.1l0.2,0.1l0.2,0.1l0.2,0.1l0.2,0.1l0.2,0.1l0.2,0.1l0.2,0.1l0.2,0.1
		l0.2,0.1l0.2,0.1l0.2,0.1l0.2,0.1l0.1,0.1l0.1,0.1l0.1,0.1l0.1,0.1l0.1,0.1l0.1,0.1l0.1,0.1l0.1,0.1l0.1,0.1l0.1,0.1l0.1,0.1
		l0.1,0.1l0.1,0.2l0.1,0.2l0.1,0.2l0.1,0.2l0.1,0.2l0.1,0.2l0.1,0.2l0.1,0.2l0,0.2l-0.2,0l-0.1-0.1l-0.1-0.1l-0.1-0.1l-0.1-0.1
		l-0.1-0.1l-0.1-0.1l-0.1-0.1l-0.1-0.1l-0.1-0.1l-0.1-0.1l-0.1-0.1l-0.1-0.1l-0.1-0.1l-0.1-0.1l-0.1-0.1l-0.1-0.1l-0.1-0.1l-0.1-0.1
		l-0.1-0.1l-0.1-0.1l-0.1-0.1l-0.2-0.1l-0.2-0.1l-0.2-0.1l-0.2-0.1l-0.2-0.1l-0.2-0.1l-0.2-0.1l-0.2-0.1l-0.2-0.1l-0.2-0.1l-0.2-0.1
		l-0.2-0.1l-0.2-0.1l-0.2-0.1l-0.2-0.1l-0.2-0.1l-0.2-0.1l-0.2-0.1l-0.2-0.1l-0.2-0.1l-0.2-0.1l-0.2-0.1l-0.2-0.1l-0.2-0.1l-0.2-0.1
		l-0.2-0.1l-0.2-0.1l-0.1,0l-0.1,0l-0.2-0.1l-0.2-0.1l-0.2-0.1l-0.2-0.1l-0.2-0.1l-0.2-0.1l-0.2-0.1l-0.2-0.1l-0.2-0.1l-0.2-0.1
		l-0.2-0.1l-0.2,0l-0.2,0l-0.2,0l-0.2,0l-0.2,0l-0.2,0l-0.2,0l-0.2,0l-0.2,0l-0.2,0l-0.2,0l-0.2,0l-0.1,0l-0.1,0l-0.2,0l-0.2,0
		l-0.2,0l-0.2,0l-0.2,0l-0.2,0l-0.2,0l-0.2,0l-0.2,0l-0.2,0l-0.2,0l-0.2,0h-0.2l-0.2,0l-0.2,0l-0.2,0l-0.2,0l-0.2,0l0,0l-0.2,0
		l-0.2,0l-0.2,0l-0.2,0l-0.2,0l-0.2,0l-0.2,0l-0.2,0l0,0l-0.2,0l-0.2,0l-0.2,0l-0.2,0l-0.2,0l-0.2,0l-0.2,0l-0.2,0l-0.2,0l-0.2,0
		l0,0l-0.2,0l-0.2,0l-0.2,0.1l-0.2,0.1l-0.2,0.1l-0.2,0.1l-0.2,0.1l-0.2,0.1l-0.2,0.1l-0.2,0.1l-0.2,0.1l-0.2,0.1l-0.2,0.1l-0.2,0.1
		l-0.1,0l-0.1,0l-0.2,0.1l-0.2,0.1l-0.2,0.1l-0.2,0.1l-0.2,0.1l-0.2-0.1l0.1-0.2l0.2-0.1l0.2-0.1l0.2-0.1l0.2-0.1l0.2-0.1l0.1,0
		l0.1,0l0.2-0.1l0.2-0.1l0.2-0.1l0.2-0.1l0.2-0.1l0.2-0.1l0.2-0.1l0.2-0.1l0.2-0.1l0.2-0.1l0.2-0.1l0.2-0.1l0.2-0.1l0.2-0.1l0,0
		l0.2,0l0.2-0.1l0.2,0l0.2,0l0.2,0l0.2,0l0.2,0l0.2,0l0.2,0l0.2,0l0,0l0.2,0l0.2,0l0.2,0l0.2,0l0.2,0l0.2,0l0.2,0l0.2,0l0,0l0.2,0
		l0.2,0l0.2,0l0.2,0h0.2L420,150.1z"/>
	<path class="st29" d="M434.7,158.1L434.7,158.1l0.2,0.2l0.2,0.2l0.1,0.1l0,0l0.1,0.1l0.1,0.1l0.1,0.1l0,0l0.1,0.1l0.1,0.1l0,0l0,0
		l0,0.1l0,0.1l0,0.1l0,0l0,0.1l0,0.1l0,0.1l0,0.1l0,0l0,0.1l0,0.1l0,0.1l0,0.1l0,0.1l-0.1,0l0-0.1l0-0.1l0-0.1l-0.1-0.1l0,0l0,0
		l-0.1-0.1l-0.1-0.1l-0.1-0.1l0,0l0-0.1l-0.1-0.1l-0.1-0.1l0,0l0,0l-0.1-0.1l-0.1-0.1l0,0l-0.1-0.1l-0.1-0.1L435,159l0,0l-0.1-0.1
		l-0.2-0.3l-0.2-0.3l0,0l0-0.2L434.7,158.1z"/>
	<path class="st29" d="M432.3,141.5L432.3,141.5l0.2,0.2l0.1,0.1l0.1,0.1l0.1,0.1l0.1,0.1l0.1,0.1l0.1,0.1l0.1,0.1l0.2,0.2l0.2,0.2
		l0.2,0.2l0.2,0.2l0.2,0.2l0.2,0.2l0.2,0.2l0.2,0.2l0.2,0.2l0.2,0.2l0.2,0.2l0.1,0.1l0.1,0.1l0.1,0.2l0.1,0.2l0.1,0.2l0.1,0.2
		l0.1,0.2l0.1,0.2l0.1,0.2l0.1,0.2l0.1,0.2l0.1,0.2l0.1,0.2l0.1,0.2l0.1,0.2l0.1,0.2l0,0.1l0,0.1l0.1,0.1l0.1,0.1l0,0.1l0,0.1l0,0.1
		l0,0.1l0,0.1l0,0.1l0,0.1l0,0.1l0,0.1l0,0.1l0,0.1l0,0.1l0,0.1l0,0.1l0,0.1l0,0.1l0,0.1l0,0.1l0,0.1l0,0.1l0,0l0,0.1l0,0.1l0,0.1
		l0,0.1l0,0.1l0,0.1l0,0.1l0,0.1l0,0.1l0,0.1l0,0.2l0,0.2l0,0.1l0,0.2l0,0.2l0,0.2l0,0.2l0,0.2l0,0.2l0,0.2l0,0.1l0,0.1l0,0.2l0,0.2
		l0,0.2l0,0.2l0,0.2l0,0.2l0,0.2l0,0.2l0,0l0,0.2l0,0.2l0,0.2l0,0.2l0,0.2l0,0.2l0,0.2l0,0.2l0,0l0,0.2l-0.1,0.2l-0.1,0.2l-0.1,0.2
		l-0.1,0.4l-0.1,0.4l-0.1,0.4l-0.1,0.3l-0.1,0.5l-0.1,0.4l-0.1,0.4l-0.1,0.4l-0.1,0.3l0,0.1l-0.2,0.1l-0.1-0.2l0-0.1l0.1-0.3
		l0.1-0.4l0.1-0.4l0.1-0.4l0.1-0.5l0.1-0.3l0.1-0.4l0.1-0.4l0.1-0.4l0-0.2l0-0.2l0-0.2l0-0.2l0,0l0.1-0.2l0.1-0.2l0-0.2l0-0.2l0-0.2
		l0-0.2l0-0.2l0-0.2l0,0l0-0.2l0-0.2l0-0.2l0-0.2l0-0.2l0-0.2l0-0.2l0-0.2l0-0.1l0-0.1l0-0.2v-0.2l0-0.2l0-0.2l0-0.2l0-0.2l0-0.2
		l0,0l0-0.2l0-0.2l0-0.1l0-0.1l0-0.1l0-0.1l0-0.1l0-0.1l0-0.1l0-0.1l0-0.1l0-0.1l0,0l0-0.1l0-0.1l0-0.1l0-0.1l0-0.1l0-0.1l0-0.1
		l0-0.1l0-0.1l0-0.1l0-0.1l0-0.1l0-0.1l0-0.1l0-0.1l0-0.1l0-0.1l0-0.1l0-0.1l0-0.1l0-0.1l-0.1-0.1l0-0.1l0-0.1l-0.1-0.2l-0.1-0.2
		l-0.1-0.2l-0.1-0.2l-0.1-0.2l-0.1-0.2l-0.1-0.2l-0.1-0.2l-0.1-0.2l-0.1-0.2l-0.1-0.2l-0.1-0.2l-0.1-0.2l-0.1-0.2l-0.1-0.1l-0.1-0.1
		l-0.2-0.2l-0.2-0.2l-0.2-0.2l-0.2-0.2l-0.2-0.2l-0.2-0.2l-0.2-0.2l-0.2-0.2l-0.2-0.2l-0.2-0.2l-0.2-0.2l-0.1-0.1l-0.1-0.1l-0.1-0.1
		l-0.1-0.1l-0.1-0.1l-0.1-0.1l-0.1-0.1l-0.1-0.1l-0.1-0.1l-0.1-0.1l0-0.1L432.3,141.5L432.3,141.5z"/>
	<path class="st29" d="M430.3,139.6l0.1,0l0.1,0l0.1,0l0.1,0l0.1,0.1l0.1,0.1l0.1,0.1l0.1,0.1l0.1,0.1l0.1,0.1l0.1,0.1l0.1,0.1
		l0.1,0.1l0.1,0.1l0.1,0.1l0,0.2l-0.2,0l-0.1-0.1l-0.1-0.1l-0.1-0.1l-0.1-0.1l-0.1-0.1l-0.1-0.1l-0.1-0.1l-0.1-0.1l-0.1-0.1
		l-0.1-0.1l-0.1-0.1l-0.1-0.1l-0.1,0l-0.1,0l-0.1,0l-0.1,0l-0.1-0.2l0.2-0.1L430.3,139.6z"/>
</g>
</svg>
