<?xml version="1.0" encoding="utf-8"?>
<!-- Generator: Adobe Illustrator 23.0.4, SVG Export Plug-In . SVG Version: 6.00 Build 0)  -->
<svg version="1.1" xmlns="http://www.w3.org/2000/svg" xmlns:xlink="http://www.w3.org/1999/xlink" x="0px" y="0px"
	 viewBox="0 0 1100 800" style="enable-background:new 0 0 1100 800;" xml:space="preserve">
<style type="text/css">
	.st0{opacity:0.5;}
	.st1{fill:#EED5D5;}
	.st2{fill:#292949;}
	.st3{fill:#1C1C35;}
	.st4{fill:#EAC1A4;}
	.st5{fill:#8CABEF;}
	.st6{fill:#5D66D3;}
	.st7{fill:#FFFFFF;}
	.st8{fill:#EACDB0;}
	.st9{fill:#EBCEB1;}
	.st10{fill:#273140;}
	.st11{fill:#BDBFC1;}
	.st12{fill:none;}
	.st13{fill:#E7CAAD;}
	.st14{fill:#FF4F00;}
	.st15{fill:#CE3500;}
	.st16{fill:#3B3387;}
	.st17{fill:#474EBB;}
	.st18{fill:#A0734B;}
</style>
<g id="Background">
</g>
<g id="Shadow">
	<g class="st0">
		<path class="st1" d="M522,644.1c-28.2,0.1-56.4,0.8-84.5,3.9c-10.6,1.2-21,3.8-31.6,4.8c-21.2,2.1-42.1,6-63.4,7.8
			c-17.2,1.4-34.4,2.3-51.5,4.1c-16,1.7-33.8,1.3-49.7-1.5c-11.8-2.1-23.6-3.3-35.2-6.7c-13-3.8-27.1-6.5-40.6-6.4
			c-19.3,0.1-38,0.2-56.5,6.8c-6.5,2.3-14.4,6.2-19.3,11.1c-11.3,11.3-12.8,39.4-1.5,51.1c18.9,19.7,59.3,27.4,85.8,27.8
			c29.1,0.4,57.3-1.8,86.4-3c27-1.2,54-2.9,81.1-2.8c55.3,0.1,110.7,0,165.9-3.7c51.9-3.5,103.9-2.3,155.9-2.3
			c53.3,0,106.3,0.4,159.2,7.5c23.1,3.1,46.6,4.2,69.8,6.3c20.8,1.9,40.7,0,61.4-1.8c17.4-1.5,34.6-6,50.4-13.5
			c12.5-6,34.7-24.5,38.6-38.8c10.7-39.9-151.3-39-176.2-38.9c-27.8,0.1-55.9,1-83.7,0c-11.7-0.4-23.2-2.7-34.6-5.2
			c-11.4-2.5-22.8-1.9-34.4-2.9c-48.1-4.4-96.3-3.7-144.5-3.7C553.4,644.2,537.7,644.1,522,644.1z"/>
	</g>
</g>
<g id="Object">
	<g>
		<g>
			<g>
				<g>
					<g>
						<polygon class="st2" points="981.9,451.8 986.5,483.7 977.2,663.7 961.6,660.4 935.7,455.8 						"/>
					</g>
					<g>
						<polygon class="st2" points="905.2,445.8 902.2,565.1 932.5,668.1 950.1,661.5 935.3,569.7 948.9,444.8 						"/>
					</g>
					<g>
						<path class="st3" d="M950.2,651.9l-21.1,9.7l7.1,14.8l-11.1,7c0,0-1,6.2,2.7,8.8c3.7,2.6,27.9-17.7,27.9-17.7L950.2,651.9z"/>
					</g>
					<g>
						<path class="st3" d="M981.9,655.4l-22.9,3.9l3,16.1l-12.5,3.9c0,0-2.6,5.7,0.3,9.2c2.9,3.5,31.5-9.8,31.5-9.8L981.9,655.4z"/>
					</g>
				</g>
				<g>
					<path class="st2" d="M937.3,251.2c1.6,5.3,4,10.4,7,15.1c0.1-9.7,1.5-19.5,4.2-28.9c0.2-0.7,0.4-1.5,0-2.2
						c-0.3-0.6-1.1-0.8-1.8-1C934.7,231.4,934.4,242,937.3,251.2z"/>
				</g>
				<g>
					<g>
						<path class="st4" d="M943.9,266.5c1.3,4,3.3,8.5,7.5,11c4.9,2.9,10.1,1.4,13.8-0.8c12.1-7.3,33-47.6,1.5-57.5
							C938.2,210.2,938.7,249.9,943.9,266.5z"/>
					</g>
					<g>
						<path class="st2" d="M968.8,266.7c1.9,2.8,6.2,2.1,9.2,0.7c12.5-5.9,20.1-20.6,17.7-34.2c-2-11.4-16.1-20.2-19.3-6.2
							c-1.1,4.9,1.7,11.9,0.9,17.4C976.1,252.2,972.2,259.6,968.8,266.7z"/>
					</g>
					<g>
						<path class="st2" d="M938,204.7c-14.3,7.9-20.7,25.4-33.9,35.2c11.8,5.4,25.8,5.7,37.8,0.9c11.8-4.7,39.8-7.6,36.1-23.9
							C974.4,200.3,950.6,197.8,938,204.7z"/>
					</g>
				</g>
				<g>
					<path class="st5" d="M993.6,307.7c8.2,14.2,8.2,30.4,7,45.8c-2.6,34.9,0.8,75.4-11.3,108.8c-22.7,0-66.3-10.4-89-12.8
						c-4.4-30.4-1.8-48.1,0.6-82.5c1.2-17,3.9-39.7,9.9-55.9c4.9-13.2,18-30.3,37.8-29.8C967.3,281.9,986.2,294.7,993.6,307.7z"/>
				</g>
				<path class="st4" d="M956.6,288.5c-2.1,0.9-4.6,0.5-7.1-1.9c-2.1-2-1.5-2.7-1-5.7c0.7-4.4,1.8-8.9,2.8-13.3l12.2,2.5
					c0,0-2.5,11.9-2.6,12.7C960.3,285.5,958.7,287.6,956.6,288.5z"/>
			</g>
			<g>
				<polygon class="st4" points="834.2,320.1 824.6,310.7 809.6,311 807.8,318.7 830.6,328.5 				"/>
			</g>
			<g>
				<polygon class="st5" points="946.5,291.7 935.6,281.8 877,328.5 834.9,313.7 821.3,331 877.7,364.1 937.3,325.9 				"/>
			</g>
		</g>
		<g>
			<polygon class="st2" points="207.4,662.9 223,671.4 221.6,678.8 193.9,675 195.4,664.4 			"/>
			<polygon class="st2" points="136.8,670.9 125.9,670.8 123.3,680 123.6,680 123.5,680 141.6,690.4 150.1,691.3 151.1,681.5 
				148.7,679.9 			"/>
			<path class="st5" d="M170.3,497.8c1.7-0.2,6.5,62.3,6.5,62.3L143,673.5l-19.5-3.8l11.9-113.3c0,0-41.2-47.6-29.4-83.1
				C123.9,482,170.3,497.8,170.3,497.8z"/>
			<path class="st5" d="M218.9,498.3l3.9,55.7L212,664.8l-20.1-1c0,0-4.8-105-6.8-107.1c-2-2.1-19.1-57.2-19.1-57.2L218.9,498.3z"/>
			<g>
				<path class="st6" d="M192.6,523.7c-63.7-1.2-68.4-33.3-82.4-36.8c-14-3.5-6.7-20.2-6.7-20.2s2.7-7.5,3.8-11.3
					c8.2-28,32.7-64,32.7-64c12.1-16.5,24.3-31.1,34.8-39.9c31.2-26.2,64.7-27.4,64.7-27.4c48.2,15.1,31.2,37.7,31.7,43.7
					c-15.8,14.5-27.3,36.3-35.8,59.6c-4,12.4-8.7,33.7-5.4,59.7c1.1,8.3,2.3,15.5,3.5,21.8C233.7,516.9,225.8,524.2,192.6,523.7z"/>
				<path class="st7" d="M239.6,329c0,0,10.7-5.9,17.4,4.3c8.1,12.4-37.5,68.3-36.4,187.9c-11.9,2.4-42.7,8.2-74.4-6.8
					C153.3,478.9,184.4,371.8,239.6,329z"/>
			</g>
			<g>
				<path class="st2" d="M263.2,291.2c5.4,4.2,10.1,13.2,8.2,20.2c-0.9,3.4-3.3,5.7-4.2,9.3c-1.6,7.2-14.2,12.6-8.9,20.9
					c2.7,4.3,8,6.1,12.8,7.7c0.6,0.2,1.2,0.4,1.8,0.3c1-0.2,1.7-1.2,1.9-2.2c0.2-1,0-2-0.1-3c-1.1-10.6,6.1-21.2,8.7-31.2
					c2.6-10,2.5-21.4-4.4-29.7c-5.9,0.5-8.3-0.6-12.1,4L263.2,291.2z"/>
				<path class="st8" d="M250.5,333.6c7,0.6,13.9-3.3,18.3-8.8c4.5-5.5,6.8-12.3,8.3-19.2c4.9-22.9-23.2-30.4-38.1-16.3
					C226.2,301.5,230.1,332,250.5,333.6z"/>
				<path class="st2" d="M215.6,329.3c3.7-0.3,7.5-0.7,10.8-3.1c5.4-3.9,8.6-12.7,11.9-18.3c3.5-5.9,7.5-12.2,14-14.4
					c4.2-1.5,8-0.5,11.9,1.1c2.7,1.1,2.4,2.1,5.3,1.7c2.2-0.4,5.1-3.1,6.3-4.8c2.1-3,2.2-7,1.1-10.4c-1.7-5.3-4.8-8.9-9.7-11.1
					c-17.4-7.8-34.9-2.9-47.1,12.2c-5.8,7.2-7.9,17.2-13.8,24c-3.6,4.2-8.1,6.2-11.6,10.9c-9,12.1-23.7,26.3-29,40.6
					c-0.2,0.5-0.4,1.1-0.1,1.6c0.5,1,2,0.7,3.1,0.2c6-3,12-6,17.9-9c2.3-1.2,4.7-2.4,6.7-4.1c4.8-4.4,6.5-12,12.3-15
					C208.6,329.7,212.1,329.5,215.6,329.3z"/>
			</g>
			<g>
				<polygon class="st6" points="191.1,359.4 143.1,348.1 130.2,284.2 146.2,285.6 158.5,327.3 220.8,329.1 224.4,333.9 				"/>
			</g>
		</g>
		<path class="st9" d="M150.7,279.3l-1.6-16.7l-11.9-9.1l-0.7,4.9l4.2,4.2c0,0,1,4.9,4,7.3c-0.3,2.8-2.6,8.7-2.6,8.7L150.7,279.3z"
			/>
		<g>
			<g>
				<g>
					<g>
						<path class="st10" d="M432.8,657.5l13.8,8.8l4.8,7c0,0-4.9,2.5-7.7,3.1c-2.8,0.7-24.6-1.6-24.6-1.6l-0.6-12.8L432.8,657.5z"/>
					</g>
					<g>
						<path class="st10" d="M364,667.2l6.8,7.6c0,0,5.5,10.3,2.8,10.2c-2.8-0.2-17.9,0.7-18.9-1.1c-1-1.7-9-7.8-10.1-8.9
							c-1-1.2,0-10.9,0-10.9L364,667.2z"/>
					</g>
					<g>
						<path class="st11" d="M402.9,464.2l-17.1,104l-21.8,99l-19.4-1.1l3.7-104.5c0,0-14-96.1-14.1-124.5L402.9,464.2z"/>
					</g>
					<g>
						<polygon class="st11" points="445.9,469.3 438,661.2 418,662.1 407.4,564.6 391.9,478.6 433.2,425.3 						"/>
					</g>
					<g>
						<g>
							<polygon class="st12" points="344.4,304 344.4,304 344.4,304 							"/>
						</g>
						<g>
							<path class="st5" d="M435.4,368.3c-10.5-51,2.8-75.6-20.1-89.8c0,0-37.4-10.3-61.2,6.8c-0.3,0.2-0.7,0.5-1,0.7l-8.7,18
								l-6.6,80.7c0,0-18.4,106-8.6,106.8c11.1,1,61.8-22.7,71.4-22.1c9.6,0.6,39.1,5.8,66.9-3.6
								C491.4,457.7,445.9,419.3,435.4,368.3z"/>
						</g>
					</g>
					<g>
						<polygon class="st7" points="388.9,276.9 381.6,277.1 380.8,284.4 407.6,359.2 413.6,326.8 407,279.8 						"/>
					</g>
					<g>
						<polygon class="st7" points="410.8,387.9 400.5,469.3 422.2,472.3 437.3,471.2 418.3,400.6 						"/>
					</g>
					<g>
						<g>
							<path class="st13" d="M398.7,280.1c-5,0.2-10,0.4-15,0.6c-0.6-3.9-0.9-7.9-0.9-11.9c-4.3-0.9-9.3-2.4-10.7-6.5
								c-0.4-1.3-0.4-2.7-0.3-4.1c0.2-5.7-1.4-11.5,0.5-17.1c0.6-1.9,0.1-4,1-5.8c1.4-3.2,4.8-4.9,8.1-6c8.4-2.7,18.1-2.2,25.6,2.5
								c2,1.3,3.9,2.8,5,4.9c1.7,3.2,1.3,7.1,0.9,10.7c-0.4,3.3-0.8,6.7-1.2,10c-0.4,3.8-1.3,8.2-4.6,10.1c-1.8,1-4,1.1-5.6,2.4
								C398.8,272.2,399.8,276.7,398.7,280.1z"/>
						</g>
						<g>
							<path class="st2" d="M420.1,205.9c-1.1-0.1-2.3-0.2-3.4-0.6c-3.7-1.3-6.5-4.2-10.5-5.3c-8-2.3-17.6-1.1-25,2.8
								c-7,3.7-16.8,5.7-23,10.3c-2.6,1.9-4.5,4.7-5.8,7.6c-4.7,10.1-2.9,22.9,4.3,31.4c1.6,1.9,3.5,3.6,5.4,5.2
								c4,3.3,8.8,7.4,13.8,8.1c-0.5-4.3-6.3-17.3-3.5-21.2c3.7-5.3,11.8-5.8,17.7-5.8c7,0.1,12.5-2.6,19.4-2.9
								c3.5-0.1,7.6,0.2,10.1-2.2c2.9-2.9,8.8-11.7,10-15.5c1.1-3.3-0.1-7.2-2.7-9.5C424.7,206.2,422.5,206.1,420.1,205.9z"/>
						</g>
					</g>
				</g>
				<g>
					<path class="st5" d="M467,318.3l-45.3-41l-10.9,9.2l37.5,62.6l16.9,1.6c0,0,4.9-17.4,5.9-19.3L467,318.3z"/>
				</g>
			</g>
			<g>
				<g>
					<path class="st14" d="M359.3,467.4c-8.7-7.8-18.9-11.5-30.4-10.9c-11.5,0.6-21.3,5.3-29.1,14c-7.8,8.7-11.5,18.9-10.9,30.4
						c0.6,11.5,5.3,21.3,14,29.1c3.4,3.1,7.1,5.6,11,7.3c5.9,2.7,12.4,3.9,19.3,3.6c11.5-0.6,21.3-5.3,29.1-14
						c7.8-8.7,11.5-18.9,10.9-30.4C372.7,485,368,475.2,359.3,467.4z"/>
				</g>
				<g>
					<g>
						<path class="st15" d="M373.3,496.5c-0.6-11.5-5.3-21.3-14-29.1c-2.8-2.5-5.8-4.6-8.9-6.3c4.7,6.5,7.4,13.9,7.8,22.3
							c0.6,11.5-3.1,21.7-10.9,30.4c-7.8,8.7-17.6,13.4-29.1,14c-6.9,0.4-13.4-0.8-19.3-3.6c-0.7-0.3-1.5-0.7-2.2-1.1
							c1.8,2.4,3.8,4.7,6.2,6.8c3.4,3.1,7.1,5.6,11,7.3c5.9,2.7,12.4,3.9,19.3,3.6c11.5-0.6,21.3-5.3,29.1-14
							C370.2,518.2,373.9,508,373.3,496.5z"/>
					</g>
				</g>
				<g>
					<path class="st14" d="M686.8,315c-3.2-34.9-20.7-66.9-52.1-95.2c-31.4-28.3-65.2-42.6-100.5-42.4
						c-30.7,0.1-58.3,11.5-82.2,33.8c-4,3.8-6.3,9.1-6.2,14.6c0,5.5,2.4,10.8,6.5,14.5l18.7,16.8c7.5,6.7,18.8,6.8,26.3,0.1
						c13.3-11.8,27.3-17.6,42.5-17.8c18.5-0.1,37,8,55,24.2c17.9,16.2,27.7,33.8,28.9,52.5c1.2,18.6-6.2,36.9-22.1,54.5
						c-21.9,24.2-43.5,34.3-64.4,29.9c-22-4.6-48.3-21-78.4-48.6l-8.1-7.3c-8.1-7.3-20.5-6.6-27.8,1.4l-63.5,70.4
						c-3.5,3.9-5.3,9-5,14.2c0.3,5.3,2.6,10.1,6.5,13.6l18.9,17.1c1.5,1.4,3.2,2.5,5,3.3c7.6,3.5,16.9,1.8,22.8-4.7l41.1-45.6
						c0.5-0.6,1.4-0.6,2-0.1c36.2,30.9,70.3,47.5,101.6,49.4c33.3,2,65.1-13.6,94.8-46.5C676.6,384.4,690,350.1,686.8,315z"/>
				</g>
				<g>
					<g>
						<path class="st15" d="M686.8,315c-3.2-34.9-20.7-66.9-52.1-95.2c-19.4-17.5-39.8-29.6-60.8-36.3c9.9,6,19.6,13.3,29.1,21.8
							c31.4,28.3,48.9,60.3,52.1,95.2c3.2,35-10.2,69.4-39.7,102.1c-29.6,32.9-61.5,48.5-94.8,46.5c-9.6-0.6-19.5-2.6-29.6-5.9
							c21.4,12.4,41.9,19.2,61.3,20.4c33.3,2,65.1-13.6,94.8-46.5C676.6,384.4,690,350.1,686.8,315z"/>
					</g>
				</g>
			</g>
			<g>
				<polygon class="st5" points="362,280.7 340.5,287.3 289.1,374.9 292.6,391.8 359.2,425.1 368.5,407 326.5,374.9 352.2,339.9 
					362.1,283.8 				"/>
			</g>
			<g>
				<polygon class="st4" points="420.8,278 409.9,266.3 399.4,269.2 396.5,279.7 405.9,281.5 414.6,283.3 				"/>
			</g>
			<g>
				<polygon class="st13" points="367.6,408.8 378.1,410.9 376.4,417.1 385.5,427.7 373,432.2 360.8,421.9 				"/>
			</g>
		</g>
		<g>
			<g>
				<path class="st14" d="M147.7,338.4c-6.5,2-11.3,5.9-14.4,11.8c-3.1,5.9-3.7,12.1-1.7,18.6c2,6.5,5.9,11.3,11.8,14.4
					c5.9,3.1,12.1,3.7,18.6,1.7c2.6-0.8,4.9-1.9,6.9-3.3c3.1-2.1,5.6-5,7.5-8.5c3.1-5.9,3.7-12.1,1.7-18.6
					c-2-6.5-5.9-11.3-11.8-14.4C160.4,337,154.2,336.4,147.7,338.4z"/>
			</g>
			<g>
				<g>
					<path class="st15" d="M166.3,340.2c-5.9-3.1-12.1-3.7-18.6-1.7c-2.1,0.6-4,1.5-5.7,2.5c4.6-0.4,9.1,0.5,13.4,2.8
						c5.9,3.1,9.8,8,11.8,14.4c2,6.5,1.4,12.7-1.7,18.6c-1.9,3.5-4.4,6.4-7.5,8.5c-0.4,0.3-0.8,0.5-1.2,0.8c1.7-0.2,3.4-0.5,5.2-1
						c2.6-0.8,4.9-1.9,6.9-3.3c3.1-2.1,5.6-5,7.5-8.5c3.1-5.9,3.7-12.1,1.7-18.6C176.1,348.1,172.2,343.3,166.3,340.2z"/>
				</g>
			</g>
			<g>
				<path class="st14" d="M169.8,131c-18.2-8.8-39.3-9.7-62.6-2.6c-23.3,7.1-40.4,19.6-50.9,37.1c-9.1,15.2-11.7,32.3-7.7,50.7
					c0.7,3.1,2.6,5.8,5.4,7.4c2.7,1.6,6.1,2,9.1,1.1l13.9-4.2c5.5-1.7,8.9-7.3,7.9-13c-1.9-10.1-0.6-18.7,3.9-26.3
					c5.4-9.2,15-15.9,28.4-20c13.3-4.1,25-3.6,34.6,1.3c9.6,4.9,16.4,14.1,20.4,27.1c5.5,18,4,31.7-4.4,40.8
					c-8.8,9.5-24.8,17.7-47.4,24.3l-6,1.8c-6,1.8-9.4,8.2-7.6,14.2l15.9,52.4c0.9,2.9,2.8,5.3,5.5,6.7c2.7,1.4,5.8,1.7,8.7,0.8
					l14.1-4.3c1.1-0.3,2.2-0.9,3.1-1.5c4-2.7,5.9-7.8,4.5-12.7l-10.3-33.9c-0.1-0.4,0.1-0.9,0.5-1c26-8.7,44.4-20.7,54.7-35.6
					c10.9-15.9,12.6-36.3,5.2-60.7C201.1,156.7,188,139.9,169.8,131z"/>
			</g>
			<g>
				<g>
					<path class="st15" d="M169.8,131c-18.2-8.8-39.3-9.7-62.6-2.6c-14.4,4.4-26.5,10.9-36.1,19.3c5.9-3.1,12.4-5.8,19.5-7.9
						c23.3-7.1,44.4-6.2,62.6,2.6c18.3,8.9,31.3,25.7,38.7,50c7.4,24.4,5.7,44.9-5.2,60.7c-3.1,4.6-7.1,8.9-11.7,12.9
						c12.5-6.9,22-15,28.3-24.3c10.9-15.9,12.6-36.3,5.2-60.7C201.1,156.7,188,139.9,169.8,131z"/>
				</g>
			</g>
		</g>
		<g>
			<g>
				<path class="st14" d="M788.5,363.4c-8.2-1.2-15.6,0.7-22.1,5.6c-6.5,4.9-10.4,11.5-11.5,19.7c-1.2,8.2,0.7,15.6,5.6,22.1
					c4.9,6.5,11.5,10.4,19.7,11.5c3.2,0.5,6.4,0.4,9.4-0.1c4.6-0.8,8.8-2.6,12.8-5.6c6.5-4.9,10.4-11.5,11.5-19.7
					c1.2-8.2-0.7-15.6-5.6-22.1C803.3,368.4,796.6,364.6,788.5,363.4z"/>
			</g>
			<g>
				<g>
					<path class="st15" d="M808.2,374.9c-4.9-6.5-11.5-10.4-19.7-11.5c-2.6-0.4-5.2-0.4-7.7-0.2c5.3,1.9,9.8,5.3,13.4,10
						c4.9,6.5,6.8,14,5.6,22.1c-1.2,8.2-5,14.8-11.5,19.7c-3.9,2.9-8.2,4.8-12.8,5.6c-0.6,0.1-1.1,0.2-1.7,0.2
						c2,0.7,4.1,1.2,6.3,1.5c3.2,0.5,6.4,0.4,9.4-0.1c4.6-0.8,8.8-2.6,12.8-5.6c6.5-4.9,10.4-11.5,11.5-19.7
						C814.9,388.9,813,381.5,808.2,374.9z"/>
				</g>
			</g>
			<g>
				<path class="st14" d="M920.3,144.6c-15.7-19.2-38.6-31.1-68.2-35.2c-29.6-4.2-55,0.8-75.7,14.8c-18,12.2-29.7,29.8-34.8,52.3
					c-0.9,3.8-0.1,7.8,2.1,11c2.2,3.2,5.7,5.4,9.5,5.9l17.6,2.5c7,1,13.7-3.4,15.4-10.3c3.2-12.2,9-21.1,17.9-27.2
					c10.8-7.4,24.9-9.9,41.8-7.5c16.9,2.4,29.6,8.9,37.7,19.4c8.1,10.4,11,24.1,8.6,40.7c-3.2,22.9-12,37.3-25.9,43
					c-14.7,6-36.6,6.8-65.2,2.5l-7.6-1.1c-7.6-1.1-14.7,4.2-15.8,11.8l-9.4,66.4c-0.5,3.7,0.4,7.4,2.7,10.3c2.2,3,5.5,4.9,9.2,5.4
					l17.9,2.5c1.4,0.2,2.9,0.2,4.2,0c5.8-1,10.7-5.6,11.5-11.8l6.1-43c0.1-0.5,0.6-0.9,1.1-0.9c33.4,3.8,60,0.1,79.1-11.2
					c20.3-12,32.8-33.8,37.2-64.7C941.7,189.3,936,163.9,920.3,144.6z"/>
			</g>
			<g>
				<g>
					<path class="st15" d="M920.3,144.6c-15.7-19.2-38.6-31.1-68.2-35.2c-18.3-2.6-35-1.7-50,2.7c8.2-0.4,16.8,0,25.7,1.3
						c29.6,4.2,52.5,16.1,68.2,35.2c15.7,19.3,21.5,44.7,17.1,75.6c-4.4,31-16.9,52.8-37.2,64.7c-5.9,3.5-12.4,6.2-19.7,8.2
						c17.5-1.2,32.2-5.3,44-12.3c20.3-12,32.8-33.8,37.2-64.7C941.7,189.3,936,163.9,920.3,144.6z"/>
				</g>
			</g>
		</g>
		<g>
			<polygon class="st2" points="814.8,665.1 824.6,662.3 840.4,686.3 824.6,686.3 815.1,681.4 			"/>
			<path class="st16" d="M639.3,616.7c0,0-13.7,10.1-13.6,19c0,0-1.5,18.7,2.3,26.1l20.7,18.8l38.2-2.4l12.3-54.1L639.3,616.7z"/>
			<path class="st17" d="M681.2,628.7c0,0-16.5-3.9-22.1,7.4l-11.2,20.7l19.8,26.4l149.9-0.5l-0.3-17.9l-48.5-13.7
				c4.3-2.9,7.8-7.4,10-12c3.8-8.3,0.8-14.4-2.2-22.2c-0.9-2.4-5.5-15.6-9.4-14.5C767.1,602.4,681.2,628.7,681.2,628.7z"/>
			<g>
				<g>
					<polygon class="st18" points="592.9,423.8 585.9,411.4 591.1,408.2 597.7,415.6 599.4,413 604.1,424.3 599.2,428.3 					"/>
				</g>
				<g>
					<polygon class="st1" points="693.4,452.3 645.8,465.1 603.8,419.9 594.5,428.4 633.2,503.1 691.3,491.3 					"/>
				</g>
			</g>
			<g>
				<g>
					<path class="st1" d="M646.5,586.5c10.3-28.8,12.3-59.3,16.1-89.6c1.1-8.9,2.3-18,6.3-26.1c4.6-9.2,11.8-14,20.1-16.4
						c10.6-3.1,23-2.5,33.9-2.8c10.4,0,18.2,39.2,28.2,58.4c6.1,11.8,12.4,22.2,16.4,34.9c3.8,12.2,7.4,24.7,9.4,37.3
						c3.1,19.1,12,32.7,2.8,38.9c-0.8,0.2-1.6,0.5-2.4,0.7c-14.9,4.8-30.3,8.2-45.9,9.7c-13.8,1.4-27.8,1.2-41.6-0.6
						c-18.9-2.5-37.1-5.8-53.5-16.2C639.7,605.4,643.1,595.9,646.5,586.5z"/>
				</g>
			</g>
			<g>
				<path class="st18" d="M728.9,422.8c-5.3-18-31.1-25-37.8-4.5c-2,6.2-3.3,12.7-2.3,19.1c1,6.4,4.7,12.6,10.6,15.4
					c0,0,0.1,0,0.1,0c-0.3,1.6-0.6,3.3-0.9,4.9c-0.1,0.4-0.1,0.7,0.1,1c0.2,0.3,0.7,0.4,1.1,0.5c2,0.4,3.9,0.7,5.9,1.1
					c1,0.2,2,0.4,2.9,0.1c2.1-0.6,3-3,3.2-5.2c0-0.5,0.1-1,0.1-1.6C723.6,450.1,732.4,434.6,728.9,422.8z"/>
				<g>
					<path class="st2" d="M698.2,391.4c-4.7-0.9-8.9,3.6-13.4,5.9c-3.7,1.9-7.9,2.3-11.7,3.8c-3.8,1.5-7.7,4.9-7.9,9.3
						c-3.8-2.1-7.9-4.3-12.2-3.6c-4.3,0.7-8.5,5.7-6.9,10c1.4,3.8,6.3,4.9,7.8,8.7c2.4,6-4.9,14.9-0.3,19c1.1,1,2.7,1.3,3.8,2.3
						c1.4,1.2,1.8,3.3,2.3,5.2c2.6,8.4,10.8,14.1,19.1,13.3c5.2-2.2,9.5-7.1,11.5-12.7c2.4-6.8-1.2-9.3-1.6-15.8
						c-0.4-7.1,2-14.5,6.7-19.8c3-3.5,7.2-6.4,11.6-6.7c1.8-0.1,1.2,1.4,3.2,0c0.9-0.6,2.1-2.8,2.4-3.8
						C708.1,402.3,704.5,392.5,698.2,391.4z"/>
					<path class="st2" d="M749.4,402.2c2.4,0.8,5.1,0.7,7.4,1.8c3.5,1.7,3.1,5.3,4,8.5c1,3.5,2.4,8.3,4.7,11.1
						c1.6,2,3.9,3.2,5.9,4.8c2,1.6,3.8,3.9,3.6,6.6c-0.1,2.6-1.9,4.9-2.3,7.4c-0.4,3.8,0.2,5.8-1.1,9.7c-0.7,2-1.4,4.1-3,5.5
						c-2.1,1.8-4.9,1.6-7.4,1.1c-2.5-0.5-5.1-1.3-7.6-0.5c-5.4,1.6-4.6,7.1-6.2,11.6c-2.4,6.9-10.6,10.6-16.6,8
						c-5.1-2.3-8-8.4-7.5-14.4c0.2-3,1.5-5.7,1.7-8.7c0.2-2.9-1.3-6.9,1.4-9.1c0.7-0.5,1.5-0.8,2.1-1.4c0.5-0.5,0.8-1.2,0.9-1.9
						c0.6-2.4,0.2-5-1.2-6.9c-1-1.3-2.4-2.4-3-4c-0.7-1.8,0-3.9,0.2-5.9c0.4-4.8-2.1-9.7-6-11.7c-2.6-1.3-5-2.1-7.3-4.1
						c-0.3-0.3-5.5-5.2-5.7-4.1c0.3-1.8,1.4-3.3,2.5-4.6c1.8-2.3,3.8-4.5,6.2-5.8c7.9-4.2,8,6.2,14.3,5.1c1.5-0.3,2.7-1.6,4.1-2.4
						c2.6-1.5,5.8-0.8,8.3,0.4S746.6,401.4,749.4,402.2z"/>
				</g>
			</g>
		</g>
		<g>
			<g>
				<path class="st14" d="M607,615.7c-5.3-1.3-10.4-0.5-15,2.3c-4.6,2.8-7.6,6.9-8.9,12.3c-1.3,5.3-0.5,10.4,2.3,15
					c2.8,4.6,6.9,7.6,12.3,8.9c2.1,0.5,4.2,0.7,6.2,0.6c3.1-0.2,6-1.2,8.8-2.9c4.6-2.8,7.6-6.9,8.9-12.3c1.3-5.3,0.5-10.4-2.3-15
					C616.5,620,612.4,617,607,615.7z"/>
			</g>
			<g>
				<g>
					<path class="st15" d="M619.3,624.6c-2.8-4.6-6.9-7.6-12.3-8.9c-1.7-0.4-3.4-0.6-5.1-0.6c3.4,1.6,6.2,4.1,8.2,7.4
						c2.8,4.6,3.6,9.6,2.3,15c-1.3,5.3-4.3,9.5-8.9,12.3c-2.8,1.7-5.7,2.7-8.8,2.9c-0.4,0-0.8,0-1.1,0c1.3,0.6,2.6,1.1,4.1,1.4
						c2.1,0.5,4.2,0.7,6.2,0.6c3.1-0.2,6-1.2,8.8-2.9c4.6-2.8,7.6-6.9,8.9-12.3C622.9,634.2,622.1,629.2,619.3,624.6z"/>
				</g>
			</g>
			<g>
				<path class="st14" d="M707.8,479.6c-9.1-13.7-23.5-22.9-42.8-27.6c-19.2-4.6-36.4-2.9-50.9,5c-12.6,6.9-21.5,17.8-26.3,32.3
					c-0.8,2.4-0.6,5.1,0.7,7.4c1.3,2.3,3.4,3.9,5.9,4.5l11.5,2.8c4.6,1.1,9.2-1.4,10.8-5.8c2.9-7.9,7.3-13.4,13.5-16.8
					c7.6-4.2,17-5,28.1-2.3c11,2.6,19,7.7,23.7,15.2c4.7,7.4,5.7,16.6,3.1,27.4c-3.6,14.9-10.3,23.9-19.8,26.7
					c-10.1,3-24.6,2.2-43.2-2.5l-5-1.2c-5-1.2-9.9,1.9-11.1,6.8l-10.4,43.2c-0.6,2.4-0.2,4.9,1.1,7c1.3,2.1,3.3,3.6,5.7,4.2
					l11.6,2.8c0.9,0.2,1.9,0.3,2.8,0.2c3.9-0.3,7.4-3,8.4-7.1l6.7-28c0.1-0.3,0.4-0.6,0.8-0.5c21.8,4.6,39.6,3.8,52.9-2.4
					c14.1-6.6,23.8-20.2,28.6-40.4C719.2,510.5,717,493.4,707.8,479.6z"/>
			</g>
			<g>
				<g>
					<path class="st15" d="M707.8,479.6c-9.1-13.7-23.5-22.9-42.8-27.6c-11.9-2.9-23-3.3-33.2-1.3c5.4,0.2,11.1,1.1,16.9,2.5
						c19.3,4.6,33.6,13.9,42.8,27.6c9.2,13.7,11.3,30.9,6.5,51c-4.9,20.2-14.5,33.7-28.6,40.4c-4.1,1.9-8.6,3.3-13.5,4.2
						c11.6,0.3,21.6-1.5,29.8-5.3c14.1-6.6,23.8-20.2,28.6-40.4C719.2,510.5,717,493.4,707.8,479.6z"/>
				</g>
			</g>
		</g>
		<g>
			<g>
				<path class="st14" d="M270,211.2c-4.9-0.1-9.2,1.5-12.7,4.8c-3.5,3.3-5.4,7.5-5.5,12.4c-0.1,4.9,1.5,9.2,4.8,12.7
					c3.3,3.5,7.5,5.4,12.4,5.5c1.9,0.1,3.8-0.2,5.5-0.7c2.6-0.7,5-2.1,7.2-4.1c3.5-3.3,5.4-7.5,5.5-12.4c0.1-4.9-1.5-9.2-4.8-12.7
					C279,213.2,274.9,211.3,270,211.2z"/>
			</g>
			<g>
				<g>
					<path class="st15" d="M282.3,216.7c-3.3-3.5-7.5-5.4-12.4-5.5c-1.6,0-3.1,0.1-4.5,0.4c3.3,0.8,6.2,2.5,8.6,5
						c3.3,3.5,4.9,7.8,4.8,12.7c-0.1,4.9-2,9.1-5.5,12.4c-2.1,2-4.5,3.4-7.2,4.1c-0.3,0.1-0.7,0.2-1,0.2c1.2,0.3,2.5,0.5,3.8,0.5
						c1.9,0.1,3.8-0.2,5.5-0.7c2.6-0.7,5-2.1,7.2-4.1c3.5-3.3,5.4-7.5,5.5-12.4C287.3,224.5,285.7,220.2,282.3,216.7z"/>
				</g>
			</g>
			<g>
				<path class="st14" d="M333.3,73.3C322.8,63,308.4,57.5,290.7,57c-17.7-0.5-32.4,4.1-43.7,13.8c-9.8,8.4-15.5,19.6-17.1,33.2
					c-0.3,2.3,0.5,4.6,2,6.4c1.5,1.7,3.7,2.8,6,2.9l10.6,0.3c4.2,0.1,7.8-2.9,8.4-7.1c1.1-7.4,3.9-13.1,8.8-17.3
					c5.9-5.1,14-7.5,24.2-7.2c10.1,0.3,18.1,3.3,23.5,8.9c5.5,5.6,8.1,13.5,7.8,23.4c-0.4,13.7-4.6,22.8-12.5,27.1
					c-8.3,4.5-21.2,6.4-38.3,5.8l-4.6-0.1c-4.6-0.1-8.4,3.5-8.5,8l-1.2,39.8c-0.1,2.2,0.7,4.3,2.3,5.9c1.5,1.6,3.6,2.5,5.8,2.6
					l10.7,0.3c0.9,0,1.7-0.1,2.5-0.3c3.4-1,5.9-4,6-7.7l0.8-25.8c0-0.3,0.3-0.6,0.6-0.6c20,0,35.4-3.9,46-11.8
					c11.2-8.4,17.1-22.1,17.7-40.7C348.9,98.3,343.8,83.6,333.3,73.3z"/>
			</g>
			<g>
				<g>
					<path class="st15" d="M333.3,73.3C322.8,63,308.4,57.5,290.7,57c-11-0.3-20.8,1.3-29.4,4.9c4.8-0.8,9.9-1.1,15.3-0.9
						c17.7,0.5,32.1,6,42.6,16.3c10.6,10.3,15.6,25,15.1,43.5c-0.5,18.6-6.5,32.3-17.7,40.7c-3.2,2.4-6.9,4.5-11.1,6.2
						c10.2-1.9,18.6-5.3,25.2-10.2c11.2-8.4,17.1-22.1,17.7-40.7C348.9,98.3,343.8,83.6,333.3,73.3z"/>
				</g>
			</g>
		</g>
		<g>
			<g>
				<polygon class="st18" points="645.7,567.2 633.5,564.3 634.5,559 643.3,559.2 642.6,556.4 652.8,560.2 652.5,565.8 				"/>
			</g>
			<g>
				<polygon class="st1" points="726.5,516.9 706,556.5 649.8,557.8 649.7,569 716.5,582.2 740,544.8 				"/>
			</g>
		</g>
		<g>
			<path class="st6" d="M277.5,413.1l-5.5-60.9l-14.2-0.6l-9.7,46.9l-11.8,19.8l18.1,17.5c0,0,15.4-9.5,17.4-10.2L277.5,413.1z"/>
		</g>
		<g>
			<polygon class="st4" points="270.8,352.2 270.7,336.2 261,331.2 251.8,337 257.5,344.6 262.7,351.8 			"/>
		</g>
		<g>
			<path class="st5" d="M1021,321.8l-16.8-58.8l-14.1,2.1l-1.2,73l13.5,10.3c0,0,13.3-12.2,15.2-13.3L1021,321.8z"/>
		</g>
		<g>
			<polygon class="st4" points="1003,263.2 999.9,247.5 989.5,244.4 981.4,251.8 988.4,258.2 995,264.4 			"/>
		</g>
	</g>
</g>
</svg>
